<svg fill="none" height="300" viewBox="0 0 300 300" width="300" xmlns="http://www.w3.org/2000/svg"><rect fill="#ff4a4a" height="300" rx="60" width="300"/><path d="m230.49 186.071h1.023l.723-.723c1.607-1.606 2.422-3.623 2.422-5.898 0-2.327-.924-4.33-2.709-5.805-1.724-1.663-4.035-2.325-6.553-2.325h-.01-.009l-22.862.175-32.864-110.1069-.204-.683-.537-.4694c-2.604-2.2785-6.09-3.2526-10.117-3.2526-2.711 0-5.171 1.2766-7.344 3.3049-1.915 1.7785-3.427 3.9031-3.427 6.3348 0 .6524.202 1.6302.429 2.6085.254 1.0981.629 2.5556 1.119 4.3602.924 3.3973 2.278 8.095 4.058 14.0851-1.317 1.9895-2.497 4.6102-3.581 7.7534-.001.0032-.003.0064-.004.0095l-26.962 76.0855c-14.304.262-27.3546 3.752-39.1013 10.501-6.2871 3.611-11.3062 8.633-15.0383 15.021-3.8941 6.322-5.8235 13.434-5.8235 21.27 0 7.901 2.2904 14.303 7.207 18.794 4.7332 4.439 11.1902 6.506 19.036 6.506 10.3917 0 19.0431-3.355 25.7261-10.175 6.416-6.547 11.313-14.328 14.698-23.31l.003-.009.004-.01 8.839-24.042h44.55l12.868 42.955.204.682.536.468c2.589 2.266 6.001 3.253 9.928 3.253 2.857 0 5.302-1.545 7.33-3.863 1.837-2.098 3.253-4.387 3.253-6.72 0-1.509-.135-2.892-.473-4.075l-.004-.016-.005-.015-9.8-32.669zm-112.755.264-6.167 17.552c-.002.005-.003.009-.005.013-3.41 9.361-7.058 16.165-10.867 20.589-3.7817 4.393-7.5547 6.264-11.3351 6.264-3.3379 0-5.9026-.999-7.8978-2.884-1.7854-1.798-2.8394-4.482-2.8394-8.42 0-9.97 3.7076-17.87 11.1551-23.925 6.938-5.547 16.1902-8.677 27.9562-9.189zm61.073-14.826h-34.923l19.366-60.006z" fill="#fff" stroke="#fff" stroke-width="4.94"/></svg>