<svg fill="none" height="193" viewBox="0 0 546 193" width="546" xmlns="http://www.w3.org/2000/svg"><g fill="#020202"><path d="m154.653 123c1.333 1.067 2 2.467 2 4.2s-.6 3.2-1.8 4.4h-8.4l11.4 38c.266.933.4 2.133.4 3.6s-.934 3.267-2.8 5.4c-1.867 2.133-3.8 3.2-5.8 3.2-3.734 0-6.667-.933-8.8-2.8l-14.2-47.4h-51.0003l-10 27.2c-3.4666 9.2-8.4666 17.133-15 23.8-6.5333 6.667-15 10-25.4 10-7.8666 0-14-2.067-18.39997-6.2-4.53333-4.133-6.7999956-10.133-6.7999956-18s1.9333356-14.933 5.8000056-21.2c3.73333-6.4 8.73336-11.4 14.99996-15 12.5334-7.2 26.5334-10.8 42-10.8l29.2-82.4c1.3334-3.8667 2.7334-6.7333 4.2-8.6-4.1333-13.8667-6.2-21.46667-6.2-22.8 0-1.46667.9334-3.06667 2.8-4.8 2-1.866667 4-2.8 6-2.8 3.8663 0 6.8663.933333 9.0003 2.8l35.4 118.6 6.2-.2c2.266 0 4 .6 5.2 1.8zm-129.4003 61.2c10 0 18.6667-10.067 26-30.2l7.8-22.2c-14.6666 0-26.3333 3.467-35 10.4-8.5333 6.933-12.8 16.067-12.8 27.4 0 4.667 1.2667 8.267 3.8 10.8 2.6667 2.533 6.0667 3.8 10.2 3.8zm78.6003-138.4-24.4003 75.6h44.0003z"/><path d="m167.876 57c-2.266-2.2667-3.4-5.0667-3.4-8.4s1.134-6.1333 3.4-8.4c2.267-2.4 5.067-3.6 8.4-3.6 3.334 0 6.134 1.2 8.4 3.6 2.4 2.2667 3.6 5.0667 3.6 8.4s-1.2 6.1333-3.6 8.4c-2.266 2.2667-5.066 3.4-8.4 3.4-3.333 0-6.133-1.1333-8.4-3.4zm-.8 31.8c0-4 1-7 3-9 2-2.1333 4.534-3.2 7.6-3.2 3.067 0 5.534.9333 7.4 2.8v57.4c0 7.6 1.467 13.333 4.4 17.2 2.934 3.867 6.934 5.8 12 5.8 5.067 0 9.8-3.067 14.2-9.2s6.6-16.067 6.6-29.8c.267-.8 1.267-1.2 3-1.2 2.4 0 3.6 3.533 3.6 10.6 0 10.267-2.8 19.067-8.4 26.4s-12.733 11-21.4 11c-10.8 0-18.866-3.2-24.2-9.6-5.2-6.4-7.8-15.467-7.8-27.2z"/><path d="m273.526 155.4v-48c0-15.8667-4-23.8-12-23.8-6.666 0-11.8 3.6667-15.4 11-3.467 7.333-5.2 20.267-5.2 38.8v31.4c-1.333 1.867-3.666 2.8-7 2.8-3.333 0-6-1-8-3-2-2.133-3-5.2-3-9.2v-76c1.334-1.8667 3.667-2.8 7-2.8 3.334 0 6 1.0667 8 3.2 2 2 3 5 3 9 4.534-8.1333 12.2-12.2 23-12.2 12.667 0 21.2 5.4 25.6 16.2 4.534-10.8 13-16.2 25.4-16.2 8.667 0 15.534 2.7333 20.6 8.2 5.2 5.4667 7.8 13.3333 7.8 23.6v28.4c0 7.6 1.2 13.333 3.6 17.2s5.934 5.8 10.6 5.8c4.8 0 9-2.933 12.6-8.8 3.6-6 5.4-16.067 5.4-30.2.134-.8 1.134-1.2 3-1.2 2.4 0 3.6 3.533 3.6 10.6 0 11.333-2.466 20.4-7.4 27.2-4.8 6.8-11.866 10.2-21.2 10.2-9.333 0-16.533-3.2-21.6-9.6-4.933-6.4-7.4-15.467-7.4-27.2v-23.4c0-15.8667-4-23.8-12-23.8-13.6 0-20.4 16.733-20.4 50.2v31c-1.333 1.867-3.733 2.8-7.2 2.8-3.333 0-6.067-1-8.2-3-2.133-2.133-3.2-5.2-3.2-9.2z"/><path d="m459.656 122c2.8 0 4.2 2.133 4.2 6.4 0 9.867-3.467 18.867-10.4 27-6.8 8.133-17.2 12.2-31.2 12.2s-25.267-3.733-33.8-11.2c-8.4-7.6-12.6-18.667-12.6-33.2 0-14.667 3.733-26.0667 11.2-34.2 7.467-8.2667 17-12.4 28.6-12.4 8.4 0 14.533 2.2667 18.4 6.8 3.867 4.4 5.8 9.6667 5.8 15.8 0 10-4.2 18.333-12.6 25-8.267 6.533-18.867 9.8-31.8 9.8 1.2 8.533 4.267 15 9.2 19.4 5.067 4.267 11.667 6.4 19.8 6.4 8.267 0 15.667-3.067 22.2-9.2 6.667-6.267 10-15.4 10-27.4.133-.8 1.133-1.2 3-1.2zm-64.8 2.8v1.8c8.267-1.067 15.4-3.667 21.4-7.8 6.133-4.133 9.2-10.267 9.2-18.4 0-5.2-1.133-9.1333-3.4-11.8-2.267-2.8-5.467-4.2-9.6-4.2-6.267 0-10.8 3.0667-13.6 9.2-2.667 6.1333-4 16.533-4 31.2z"/><path d="m541.101 122c2.8 0 4.2 2.133 4.2 6.4 0 9.867-3.466 18.867-10.4 27-6.8 8.133-17.2 12.2-31.2 12.2s-25.266-3.733-33.8-11.2c-8.4-7.6-12.6-18.667-12.6-33.2 0-14.667 3.733-26.0667 11.2-34.2 7.467-8.2667 17-12.4 28.6-12.4 8.4 0 14.533 2.2667 18.4 6.8 3.867 4.4 5.8 9.6667 5.8 15.8 0 10-4.2 18.333-12.6 25-8.266 6.533-18.866 9.8-31.8 9.8 1.2 8.533 4.267 15 9.2 19.4 5.067 4.267 11.667 6.4 19.8 6.4 8.267 0 15.667-3.067 22.2-9.2 6.667-6.267 10-15.4 10-27.4.134-.8 1.134-1.2 3-1.2zm-64.8 2.8v1.8c8.267-1.067 15.4-3.667 21.4-7.8 6.134-4.133 9.2-10.267 9.2-18.4 0-5.2-1.133-9.1333-3.4-11.8-2.267-2.8-5.466-4.2-9.6-4.2-6.266 0-10.8 3.0667-13.6 9.2-2.666 6.1333-4 16.533-4 31.2z"/></g></svg>