<svg fill="none" height="124" viewBox="0 0 364 124" width="364" xmlns="http://www.w3.org/2000/svg" xmlns:xlink="http://www.w3.org/1999/xlink"><filter id="a" color-interpolation-filters="sRGB" filterUnits="userSpaceOnUse" height="112" width="112" x="129" y="5"><feFlood flood-opacity="0" result="BackgroundImageFix"/><feColorMatrix in="SourceAlpha" result="hardAlpha" type="matrix" values="0 0 0 0 0 0 0 0 0 0 0 0 0 0 0 0 0 0 127 0"/><feOffset dy="2"/><feGaussianBlur stdDeviation="2"/><feComposite in2="hardAlpha" operator="out"/><feColorMatrix type="matrix" values="0 0 0 0 0 0 0 0 0 0 0 0 0 0 0 0 0 0 0.25 0"/><feBlend in2="BackgroundImageFix" mode="normal" result="effect1_dropShadow_715_551"/><feBlend in="SourceGraphic" in2="effect1_dropShadow_715_551" mode="normal" result="shape"/></filter><filter id="b" color-interpolation-filters="sRGB" filterUnits="userSpaceOnUse" height="121" width="121" x=".595703" y="2.99989"><feFlood flood-opacity="0" result="BackgroundImageFix"/><feColorMatrix in="SourceAlpha" result="hardAlpha" type="matrix" values="0 0 0 0 0 0 0 0 0 0 0 0 0 0 0 0 0 0 127 0"/><feOffset dy="4"/><feGaussianBlur stdDeviation="4"/><feComposite in2="hardAlpha" operator="out"/><feColorMatrix type="matrix" values="0 0 0 0 0 0 0 0 0 0 0 0 0 0 0 0 0 0 0.25 0"/><feBlend in2="BackgroundImageFix" mode="normal" result="effect1_dropShadow_715_551"/><feBlend in="SourceGraphic" in2="effect1_dropShadow_715_551" mode="normal" result="shape"/></filter><path d="m257.881 11c0-1.65685 1.343-3 3-3h100c1.657 0 3 1.34315 3 3v100c0 1.657-1.343 3-3 3h-100c-1.657 0-3-1.343-3-3z" fill="#000"/><path d="m334.845 89.0568c-1.976 0-5.902 0-11.777 0-5.847-.0274-10.583-.0412-14.206-.0412-4.255 0-8.675.0138-13.26.0412-4.584 0-7.466 0-8.647 0 0-1.2628.014-4.0491.041-8.3591.028-4.31.041-11.3789.041-21.2067 0-3.2668-.013-7.1924-.041-11.7769-.027-4.6119-.041-9.2101-.041-13.7946 1.73 0 4.653.0137 8.771.0412h12.271 15.442c6.231-.0275 9.869-.0412 10.912-.0412v16.0594c-.714 0-2.608 0-5.683 0-3.074-.0274-5.161-.0412-6.259-.0412-1.564 0-3.884.0138-6.959.0412-3.074 0-5.449 0-7.124 0v2.8825 2.7589c1.702 0 3.995.0137 6.877.0412h6.671 6.012c2.141-.0275 4.035-.0412 5.683-.0412v11.4887c-.989 0-2.938 0-5.848 0-2.91-.0275-4.9-.0412-5.971-.0412-1.537 0-3.733.0137-6.588.0412-2.828 0-5.106 0-6.836 0v2.9236 2.9648c1.702 0 4.214.0137 7.536.0412h7.412 6.177c2.278-.0275 4.076-.0412 5.394-.0412z" fill="#fff"/><g filter="url(#a)"><rect fill="#00c2ff" height="104" rx="3.33694" width="104" x="133" y="7"/></g><path d="m215.609 32.8113c0 5.0468-.014 8.7552-.042 11.1252-.028 2.3422-.042 4.7122-.042 7.1101v8.323c.028 2.37.042 4.3776.042 6.0227 0 4.6006-.864 8.4903-2.593 11.6689-1.701 3.1786-3.876 5.6741-6.524 7.4865-3.263 2.2306-6.469 3.7642-9.62 4.6006-3.151.8644-6.845 1.2966-11.083 1.2966-5.27 0-9.508-.5716-12.715-1.7148-3.179-1.1432-6.009-2.6349-8.49-4.4752-2.788-2.0633-4.935-4.6424-6.441-7.7374-1.506-3.1229-2.259-6.9707-2.259-11.5435 0-1.6451 0-3.6526 0-6.0226.028-2.3701.042-5.1444.042-8.323 0-3.0392-.014-5.4929-.042-7.3611 0-1.896 0-5.3813 0-10.456h22.92c0 4.5728-.014 8.2951-.042 11.1671v6.65 6.65c.028 2.0912.042 4.2661.042 6.5246 0 2.7325.641 4.7958 1.924 6.1899 1.283 1.3942 2.969 2.0912 5.061 2.0912 2.119 0 3.806-.711 5.06-2.133 1.255-1.422 1.882-3.4714 1.882-6.1481 0-2.2585 0-4.5728 0-6.9428.028-2.3701.042-4.4473.042-6.2318 0-1.7009-.014-3.8897-.042-6.5664 0-2.7046 0-6.4548 0-11.2507z" fill="#fff"/><g filter="url(#b)"><path d="m8.5957 10.3368c0-1.84291 1.494-3.33691 3.3369-3.33691h98.3264c1.843 0 3.337 1.494 3.337 3.33691v98.3262c0 1.843-1.494 3.337-3.337 3.337h-98.3264c-1.8429 0-3.3369-1.494-3.3369-3.337z" fill="#fff"/></g><path d="m92.9984 30.806c0 5.781-.0147 10.7509-.0442 14.9096-.0295 4.1293-.0443 7.9047-.0443 11.3261 0 4.4242.0148 9.5415.0443 15.352.0295 5.781.0442 10.1167.0442 13.0072l-16.7678 6.1497c-5.5745-7.1082-10.6182-13.2432-15.1309-18.4048-4.5127-5.1911-7.5949-8.6862-9.2466-10.4854l-.3539.177c0 4.2767.0147 9.2614.0442 14.9539s.0442 9.7775.0442 12.2551h-22.5193c0-2.4186.0148-6.4741.0442-12.1666.0295-5.6926.0443-11.8717.0443-18.5375 0-2.8021-.0148-6.2087-.0443-10.22-.0294-4.0408-.0589-8.465-.0884-13.2727l17.6969-6.5036c2.3596 2.7725 5.3386 6.2087 8.9369 10.3084 3.6279 4.0703 8.5093 9.4531 14.6442 16.1485l.2655-.1328c0-3.4803-.0148-7.4032-.0443-11.7684s-.0442-8.7305-.0442-13.0957z" fill="#000"/></svg>