<svg fill="none" height="281" viewBox="0 0 452 281" width="452" xmlns="http://www.w3.org/2000/svg"><rect fill="#b3edff" height="42.0575" rx="21.0287" width="42.0575" y="20.7324"/><rect fill="#00c2ff" height="45.4908" rx="22.7454" stroke="#fff" stroke-width="3.43326" width="45.4908" x="123.597" y="19.0158"/><rect fill="#009acb" height="42.0575" rx="21.0287" width="42.0575" x="187.972" y="20.7324"/><rect fill="#007297" height="42.0575" rx="21.0287" width="42.0575" x="250.629" y="20.7324"/><rect fill="#006687" height="42.0575" rx="21.0287" width="42.0575" x="313.285" y="20.7324"/><rect fill="#80e1ff" height="42.0575" rx="21.0287" width="42.0575" x="62.6572" y="20.7324"/><rect fill="#d3f4ff" height="42.0575" rx="21.0287" width="42.0575" y="95"/><rect fill="#b3edff" height="42.0575" rx="21.0287" width="42.0575" x="62.6572" y="95"/><rect fill="#00c2ff" height="42.0575" rx="21.0287" width="42.0575" x="187.972" y="95"/><rect fill="#009acb" height="42.0575" rx="21.0287" width="42.0575" x="250.629" y="95"/><rect fill="#007297" height="42.0575" rx="21.0287" width="42.0575" x="313.285" y="95"/><rect fill="#006687" height="42.0575" rx="21.0287" width="42.0575" x="375.942" y="95"/><rect fill="#80e1ff" height="42.0575" rx="21.0287" width="42.0575" x="125.313" y="95"/><rect fill="#ff5139" height="42.0575" rx="21.0287" width="42.0575" y="170"/><rect fill="#ffbc39" height="42.0575" rx="21.0287" width="42.0575" x="62.6572" y="170"/><rect fill="#78ff39" height="42.0575" rx="21.0287" width="42.0575" x="125.313" y="170"/><path d="m8.07666 259.404c-.60612 0-1.11019.229-1.51221.686-.39583.452-.59375 1.027-.59375 1.726 0 .717.19792 1.305.59375 1.763.39584.451.89991.677 1.51221.677s1.11637-.229 1.51221-.687c.40202-.457.60303-1.042.60303-1.753 0-.693-.20101-1.268-.60303-1.726-.40202-.457-.90609-.686-1.51221-.686zm-2.05029-1.141c.29687-.26.64941-.464 1.05761-.613.40821-.148.83497-.222 1.28028-.222 1.28646 0 2.33784.426 3.15434 1.28.8225.847 1.2338 1.936 1.2338 3.266 0 1.212-.4174 2.226-1.2524 3.043-.835.81-1.88639 1.215-3.1543 1.215-.59993 0-1.12256-.102-1.56787-.306-.43913-.211-.79785-.523-1.07617-.937v.612c0 .124-.04948.223-.14844.297-.09277.068-.22575.102-.39892.102h-1.42871c-.42058 0-.72054-.077-.89991-.232-.17317-.161-.25976-.427-.25976-.798 0-.328.08349-.575.25049-.742.17317-.173.42675-.26.76074-.26h.14844v-8.052h-.14844c-.33399 0-.59066-.087-.77002-.26-.17318-.18-.25977-.436-.25977-.77 0-.365.08968-.628.26905-.789.17936-.161.48242-.241.90918-.241h1.73486c.19792 0 .34017.049.42676.148.09277.093.13916.248.13916.464zm16.86623 5.705h.1484c.334 0 .5876.09.7608.269.1793.173.269.424.269.752 0 .358-.0928.618-.2783.779-.1794.155-.4793.232-.8999.232h-.8721c-.3092 0-.5412-.059-.6958-.176-.1484-.118-.2721-.331-.3711-.64-.5133.34-1.0576.6-1.6328.779s-1.1566.269-1.7441.269c-.9958 0-1.7782-.247-2.3472-.742s-.8535-1.172-.8535-2.032c0-.928.368-1.648 1.104-2.162.736-.513 1.7689-.77 3.0986-.77.2969 0 .6123.016.9463.047s.7082.08 1.1226.148v-.176c0-.557-.1361-.98-.4082-1.271-.266-.291-.6618-.436-1.1875-.436-.4082 0-.9309.151-1.5679.454-.6309.304-1.0947.455-1.3916.455-.2907 0-.5257-.083-.7051-.25-.1794-.174-.269-.399-.269-.678 0-.501.3649-.896 1.0947-1.187.736-.297 1.7349-.445 2.9966-.445 1.3174 0 2.2606.253 2.8296.76s.8535 1.367.8535 2.579zm-2.2451-1.79c-.3093-.068-.5938-.118-.8536-.149-.2597-.037-.5009-.055-.7236-.055-.6803 0-1.2153.114-1.605.343-.3834.229-.5752.544-.5752.946 0 .359.1237.634.3711.826.2474.185.6031.278 1.0669.278.4268 0 .8288-.062 1.2061-.185.3773-.124.7484-.316 1.1133-.576zm12.6264-4.249c.0742-.241.1887-.421.3433-.538.1608-.124.3649-.186.6123-.186.334 0 .5721.102.7143.306.1423.198.2134.545.2134 1.039v1.522c0 .377-.0773.655-.2319.835-.1546.179-.3927.269-.7144.269-.2288 0-.4205-.053-.5752-.158-.1546-.105-.3185-.306-.4917-.603-.2474-.421-.5721-.73-.9741-.928-.402-.204-.8937-.306-1.4751-.306-.7236 0-1.3174.238-1.7812.715-.4577.47-.6865 1.073-.6865 1.809 0 .773.2381 1.394.7143 1.864s1.1164.705 1.9204.705c.7298 0 1.4535-.201 2.1709-.603.7236-.408 1.1659-.612 1.3267-.612.2288 0 .4175.09.5659.269.1546.173.2319.393.2319.659 0 .581-.4422 1.101-1.3266 1.558-.8783.458-1.9235.687-3.1358.687-1.4967 0-2.7151-.421-3.6552-1.262-.934-.841-1.4009-1.923-1.4009-3.247 0-1.292.4638-2.369 1.3916-3.228.9277-.86 2.0967-1.29 3.5068-1.29.4762 0 .9401.059 1.3916.176.4515.118.8999.3 1.3452.548zm7.1807 3.033 1.9575-1.762c-.1917-.062-.3247-.146-.3989-.251-.0681-.105-.1021-.269-.1021-.491 0-.378.0835-.644.2505-.798.167-.155.4639-.232.8906-.232h2.0503c.4206 0 .7175.077.8907.232.1793.154.269.414.269.779 0 .272-.0526.47-.1577.594-.099.123-.3062.216-.6216.278-.2907.056-.5504.148-.7793.278-.2226.13-.4824.347-.7793.65l-.6587.686 2.4492 3.043h.232c.3587 0 .6277.084.8071.251s.269.417.269.751c0 .365-.0896.628-.269.789s-.4824.241-.9092.241h-2.2729c-.402 0-.6927-.068-.8721-.204s-.269-.353-.269-.65c0-.222.0525-.398.1577-.528.1051-.136.2783-.251.5195-.344l-1.5122-1.846-1.1411 1.049v1.911c0 .235-.0402.396-.1206.482-.0804.087-.2258.13-.4361.13h-1.6699c-.4082 0-.702-.08-.8813-.241-.1732-.161-.2598-.424-.2598-.789 0-.328.0835-.575.2505-.742.167-.173.4144-.26.7422-.26h.1484v-8.052h-.1484c-.3278 0-.5783-.09-.7515-.27-.1732-.179-.2597-.432-.2597-.76 0-.359.0896-.619.269-.78.1794-.167.4762-.25.8906-.25h1.6699c.2103 0 .3557.043.4361.13.0804.086.1206.247.1206.482zm12.4873-1.799c-.6061 0-1.1102.219-1.5122.658-.3958.439-.5938.999-.5938 1.679 0 .668.198 1.222.5938 1.661.402.433.9061.65 1.5122.65.6123 0 1.1164-.217 1.5122-.65.402-.439.603-.993.603-1.661 0-.68-.201-1.24-.603-1.679-.3958-.439-.8999-.658-1.5122-.658zm2.3008-.872v-.483c0-.124.0433-.216.1299-.278.0927-.068.2288-.102.4082-.102h1.5122c.4267 0 .7267.08.8999.241.1731.155.2597.411.2597.77 0 .334-.0866.588-.2597.761-.167.173-.4144.259-.7422.259h-.1577v6.393c0 1.354-.368 2.337-1.104 2.95-.736.612-1.9174.918-3.544.918-1.0081 0-1.7503-.099-2.2265-.297-.4701-.198-.7051-.51-.7051-.937 0-.297.0958-.538.2876-.723.1917-.186.4453-.279.7607-.279.0804 0 .3464.028.7979.084s.8689.083 1.2524.083c.8845 0 1.4937-.167 1.8276-.501.3402-.334.5103-.934.5103-1.799v-.418c-.4391.254-.8752.442-1.3081.566-.4268.118-.8721.176-1.3359.176-1.2432 0-2.2606-.386-3.0523-1.159-.7855-.78-1.1782-1.779-1.1782-2.997 0-1.255.4113-2.288 1.2339-3.099.8288-.81 1.8864-1.215 3.1728-1.215.5567 0 1.0453.09 1.4658.269.4206.173.7855.445 1.0948.817zm9.0918 2.671v3.006h2.1894c.4206 0 .7175.078.8907.232.1793.155.269.411.269.77 0 .365-.0897.628-.269.789-.1732.161-.4701.241-.8907.241h-5.186c-.4268 0-.7298-.08-.9092-.241s-.269-.424-.269-.789c0-.359.0866-.615.2597-.77.1794-.154.4855-.232.9185-.232h.7051v-4.509h-.399c-.4205 0-.7205-.077-.8999-.231-.1731-.161-.2597-.424-.2597-.789s.0835-.625.2505-.779c.1731-.155.4762-.232.9091-.232h1.9761c.167 0 .2969.037.3897.111.0927.068.1391.164.1391.288v1.373c.6742-.724 1.3019-1.24 1.8833-1.55.5876-.309 1.2185-.463 1.8926-.463.6123 0 1.0978.139 1.4565.417.3588.272.5381.64.5381 1.104 0 .359-.1237.656-.3711.891-.2474.228-.5659.343-.9555.343-.2783 0-.6092-.102-.9927-.306-.3773-.204-.6401-.306-.7886-.306-.2969 0-.6463.133-1.0483.399-.402.265-.8783.677-1.4287 1.233zm11.8286-1.781c-.7236 0-1.3205.238-1.7905.715-.4639.47-.6958 1.073-.6958 1.809 0 .742.2319 1.357.6958 1.846.47.482 1.0669.723 1.7905.723s1.3205-.241 1.7905-.723c.4701-.489.7051-1.104.7051-1.846 0-.736-.235-1.339-.7051-1.809-.4639-.477-1.0607-.715-1.7905-.715zm0-1.957c1.5029 0 2.7213.42 3.6553 1.261.9339.841 1.4008 1.921 1.4008 3.238 0 1.324-.4669 2.406-1.4008 3.247-.934.841-2.1524 1.262-3.6553 1.262-1.4968 0-2.7121-.421-3.646-1.262s-1.4009-1.923-1.4009-3.247c0-1.317.467-2.397 1.4009-3.238.9401-.841 2.1554-1.261 3.646-1.261zm12.8769 2.235h-.1484c-.334 0-.5876-.086-.7607-.259-.167-.173-.2505-.427-.2505-.761 0-.365.0866-.625.2597-.779.1732-.155.4732-.232.8999-.232h1.7535c.1669 0 .2968.037.3896.111.0928.068.1392.164.1392.288v6.141h.1484c.334 0 .5876.087.7607.26.1794.173.2691.421.2691.742 0 .371-.0897.637-.2691.798-.1793.155-.4824.232-.9091.232h-1.5586c-.1732 0-.3093-.037-.4082-.111-.0928-.075-.1392-.177-.1392-.306v-.706c-.2969.446-.6618.78-1.0947 1.002-.4268.223-.9308.334-1.5122.334-.9958 0-1.7349-.3-2.2173-.9-.4824-.599-.7236-1.518-.7236-2.755v-3.099h-.1578c-.3339 0-.5875-.086-.7607-.259s-.2598-.427-.2598-.761c0-.365.0866-.625.2598-.779.1794-.155.4855-.232.9185-.232h1.7441c.167 0 .2938.037.3804.111.0866.068.1299.164.1299.288v4.314c0 .76.1051 1.295.3154 1.605.2103.309.5566.463 1.039.463.5134 0 .934-.188 1.2618-.565.3339-.384.5009-.885.5009-1.503zm13.842 4.491h.12c.347 0 .607.086.78.259.173.167.26.421.26.761 0 .365-.09.628-.27.789-.173.161-.47.241-.89.241h-2.282c-.415 0-.7147-.08-.9003-.241-.1794-.161-.269-.424-.269-.789 0-.34.0866-.594.2597-.761.1794-.173.4456-.259.7976-.259h.112v-2.681c0-.743-.106-1.268-.316-1.578-.204-.315-.5472-.473-1.0296-.473-.5134 0-.9339.189-1.2617.566-.3216.371-.4824.866-.4824 1.485v2.681h.1113c.3525 0 .6154.086.7886.259.1731.167.2597.421.2597.761 0 .365-.0897.628-.269.789-.1794.161-.4763.241-.8906.241h-2.3008c-.4144 0-.7113-.08-.8907-.241-.1793-.161-.269-.424-.269-.789 0-.34.0866-.594.2598-.761.1731-.173.436-.259.7885-.259h.1114v-4.491h-.1577c-.334 0-.5876-.083-.7608-.25-.1732-.173-.2598-.424-.2598-.751 0-.365.0897-.628.2691-.789s.4824-.241.9092-.241h1.5771c.1732 0 .3031.034.3897.102.0927.068.1391.167.1391.297v.723c.2845-.445.6464-.779 1.0855-1.002.4453-.229.9586-.343 1.54-.343.9901 0 1.7261.3 2.2081.9.489.6.733 1.515.733 2.746zm11.467.018h.157c.334 0 .585.087.752.26.167.167.25.414.25.742 0 .365-.089.628-.269.789-.173.161-.47.241-.89.241h-1.42c-.179 0-.318-.034-.417-.102-.093-.074-.139-.173-.139-.297v-.649c-.304.414-.693.733-1.169.955-.477.217-1.012.325-1.605.325-1.213 0-2.227-.411-3.043-1.234-.817-.829-1.225-1.862-1.225-3.099 0-1.286.411-2.353 1.234-3.2.829-.848 1.88-1.271 3.154-1.271.439 0 .866.074 1.281.222.42.143.804.347 1.15.613v-2.347h-1.234c-.427 0-.73-.081-.909-.242-.18-.167-.269-.43-.269-.788 0-.365.089-.628.269-.789.179-.161.482-.241.909-.241h2.885c.211 0 .353.043.427.13.08.086.121.247.121.482zm-4.351-4.564c-.607 0-1.111.229-1.513.686-.395.452-.593 1.027-.593 1.726 0 .717.198 1.305.593 1.763.396.451.9.677 1.513.677.612 0 1.116-.229 1.512-.687.402-.457.603-1.042.603-1.753 0-.693-.201-1.268-.603-1.726-.402-.457-.906-.686-1.512-.686zm7.941 1.262h7.691c.148 0 .26.037.334.111.08.074.12.182.12.325v1.159c0 .13-.049.248-.148.353-.093.105-.195.157-.306.157h-7.691c-.124 0-.223-.046-.297-.139-.068-.092-.102-.216-.102-.371v-1.159c0-.13.037-.235.111-.316.075-.08.17-.12.288-.12zm18.035-2.737c.074-.241.189-.421.343-.538.161-.124.365-.186.613-.186.334 0 .572.102.714.306.142.198.213.545.213 1.039v1.522c0 .377-.077.655-.232.835-.154.179-.392.269-.714.269-.229 0-.42-.053-.575-.158s-.319-.306-.492-.603c-.247-.421-.572-.73-.974-.928-.402-.204-.894-.306-1.475-.306-.724 0-1.317.238-1.781.715-.458.47-.687 1.073-.687 1.809 0 .773.238 1.394.715 1.864.476.47 1.116.705 1.92.705.73 0 1.453-.201 2.171-.603.724-.408 1.166-.612 1.327-.612.228 0 .417.09.565.269.155.173.232.393.232.659 0 .581-.442 1.101-1.326 1.558-.878.458-1.924.687-3.136.687-1.497 0-2.715-.421-3.655-1.262-.934-.841-1.401-1.923-1.401-3.247 0-1.292.464-2.369 1.391-3.228.928-.86 2.097-1.29 3.507-1.29.477 0 .94.059 1.392.176.451.118.9.3 1.345.548zm8.656 1.252c-.724 0-1.321.238-1.791.715-.464.47-.695 1.073-.695 1.809 0 .742.231 1.357.695 1.846.47.482 1.067.723 1.791.723s1.32-.241 1.79-.723c.47-.489.705-1.104.705-1.846 0-.736-.235-1.339-.705-1.809-.463-.477-1.06-.715-1.79-.715zm0-1.957c1.503 0 2.721.42 3.655 1.261s1.401 1.921 1.401 3.238c0 1.324-.467 2.406-1.401 3.247s-2.152 1.262-3.655 1.262c-1.497 0-2.712-.421-3.646-1.262s-1.401-1.923-1.401-3.247c0-1.317.467-2.397 1.401-3.238.94-.841 2.155-1.261 3.646-1.261zm12.552 6.744h1.995c.427 0 .726.078.9.232.173.155.259.411.259.77 0 .365-.089.628-.269.789-.173.161-.47.241-.89.241h-6.29c-.415 0-.712-.08-.891-.241-.173-.161-.26-.424-.26-.789s.084-.621.251-.77c.173-.154.473-.232.9-.232h1.994v-8.052h-1.02c-.421 0-.724-.081-.909-.242-.18-.167-.269-.43-.269-.788 0-.365.089-.628.269-.789.179-.161.482-.241.909-.241h2.774c.173 0 .306.037.399.111.099.068.148.164.148.288zm10.27-4.787c-.723 0-1.32.238-1.79.715-.464.47-.696 1.073-.696 1.809 0 .742.232 1.357.696 1.846.47.482 1.067.723 1.79.723.724 0 1.321-.241 1.791-.723.47-.489.705-1.104.705-1.846 0-.736-.235-1.339-.705-1.809-.464-.477-1.061-.715-1.791-.715zm0-1.957c1.503 0 2.722.42 3.655 1.261.934.841 1.401 1.921 1.401 3.238 0 1.324-.467 2.406-1.401 3.247-.933.841-2.152 1.262-3.655 1.262-1.497 0-2.712-.421-3.646-1.262s-1.401-1.923-1.401-3.247c0-1.317.467-2.397 1.401-3.238.94-.841 2.156-1.261 3.646-1.261zm10.994 3.738v3.006h2.189c.421 0 .718.078.891.232.179.155.269.411.269.77 0 .365-.09.628-.269.789-.173.161-.47.241-.891.241h-5.186c-.427 0-.73-.08-.909-.241s-.269-.424-.269-.789c0-.359.087-.615.26-.77.179-.154.485-.232.918-.232h.705v-4.509h-.399c-.42 0-.72-.077-.9-.231-.173-.161-.259-.424-.259-.789s.083-.625.25-.779c.173-.155.476-.232.909-.232h1.976c.167 0 .297.037.39.111.093.068.139.164.139.288v1.373c.674-.724 1.302-1.24 1.884-1.55.587-.309 1.218-.463 1.892-.463.612 0 1.098.139 1.457.417.358.272.538.64.538 1.104 0 .359-.124.656-.371.891-.248.228-.566.343-.956.343-.278 0-.609-.102-.993-.306-.377-.204-.64-.306-.788-.306-.297 0-.646.133-1.048.399-.403.265-.879.677-1.429 1.233z" fill="#78ff39"/><path d="m190.274 262.642c.582 0 1.049.16 1.401.482.359.315.538.73.538 1.243 0 .52-.179.943-.538 1.271-.352.328-.819.492-1.401.492-.569 0-1.032-.164-1.391-.492-.359-.334-.538-.757-.538-1.271 0-.507.179-.921.538-1.243s.822-.482 1.391-.482zm0-4.945c.582 0 1.046.161 1.392.482.353.316.529.73.529 1.243 0 .526-.176.953-.529 1.281-.353.327-.816.491-1.392.491-.569 0-1.032-.164-1.391-.491-.359-.334-.538-.761-.538-1.281 0-.513.176-.927.529-1.243.358-.321.825-.482 1.4-.482zm21.19 1.762 1.67 3.953 1.753-3.953h-.148c-.334 0-.591-.086-.77-.259-.173-.173-.26-.427-.26-.761 0-.365.087-.625.26-.779.179-.155.485-.232.918-.232h2.18c.433 0 .736.08.91.241.179.155.269.411.269.77 0 .334-.087.588-.26.761s-.427.259-.761.259h-.158l-2.755 5.854c-.204.421-.39.678-.557.77-.16.099-.411.149-.751.149-.619 0-1.036-.26-1.253-.779-.024-.062-.043-.109-.055-.14l-2.589-5.854h-.148c-.334 0-.591-.086-.77-.259-.173-.173-.26-.427-.26-.761 0-.365.09-.625.269-.779.18-.155.483-.232.909-.232h2.357c.427 0 .73.08.909.241.179.155.269.411.269.77 0 .334-.09.588-.269.761-.173.173-.424.259-.751.259zm16.829 4.509h.148c.334 0 .588.09.761.269.18.173.269.424.269.752 0 .358-.093.618-.278.779-.179.155-.479.232-.9.232h-.872c-.309 0-.541-.059-.696-.176-.148-.118-.272-.331-.371-.64-.513.34-1.058.6-1.633.779s-1.156.269-1.744.269c-.996 0-1.778-.247-2.347-.742s-.854-1.172-.854-2.032c0-.928.368-1.648 1.104-2.162.736-.513 1.769-.77 3.099-.77.297 0 .612.016.946.047s.708.08 1.123.148v-.176c0-.557-.136-.98-.408-1.271-.266-.291-.662-.436-1.188-.436-.408 0-.931.151-1.568.454-.631.304-1.094.455-1.391.455-.291 0-.526-.083-.705-.25-.18-.174-.269-.399-.269-.678 0-.501.364-.896 1.094-1.187.736-.297 1.735-.445 2.997-.445 1.317 0 2.26.253 2.829.76s.854 1.367.854 2.579zm-2.245-1.79c-.309-.068-.594-.118-.854-.149-.259-.037-.501-.055-.723-.055-.681 0-1.216.114-1.605.343-.384.229-.575.544-.575.946 0 .359.123.634.371.826.247.185.603.278 1.067.278.426 0 .828-.062 1.206-.185.377-.124.748-.316 1.113-.576zm9.453-1.216v3.006h2.19c.42 0 .717.078.891.232.179.155.269.411.269.77 0 .365-.09.628-.269.789-.174.161-.471.241-.891.241h-5.186c-.427 0-.73-.08-.909-.241-.18-.161-.269-.424-.269-.789 0-.359.086-.615.259-.77.18-.154.486-.232.919-.232h.705v-4.509h-.399c-.421 0-.721-.077-.9-.231-.173-.161-.26-.424-.26-.789s.084-.625.251-.779c.173-.155.476-.232.909-.232h1.976c.167 0 .297.037.39.111.093.068.139.164.139.288v1.373c.674-.724 1.302-1.24 1.883-1.55.588-.309 1.219-.463 1.893-.463.612 0 1.098.139 1.456.417.359.272.538.64.538 1.104 0 .359-.123.656-.371.891-.247.228-.566.343-.955.343-.279 0-.609-.102-.993-.306-.377-.204-.64-.306-.788-.306-.297 0-.647.133-1.049.399-.402.265-.878.677-1.429 1.233zm14.241-6.308c.124 0 .229.046.316.139.086.087.13.192.13.315 0 .13-.149.449-.446.956-.216.359-.386.656-.51.891-.501.927-.863 1.809-1.086 2.644-.222.835-.334 1.7-.334 2.597 0 .804.09 1.587.27 2.347.179.761.454 1.519.825 2.273.198.39.461.863.789 1.42.328.563.492.912.492 1.048 0 .124-.044.226-.13.306-.081.087-.177.13-.288.13-.241 0-.523-.105-.844-.315-.316-.211-.656-.517-1.021-.919-.841-.934-1.478-1.929-1.911-2.987-.427-1.058-.64-2.159-.64-3.303 0-1.039.176-2.038.529-2.996.352-.965.881-1.89 1.586-2.774.458-.569.882-1.005 1.271-1.308.396-.31.73-.464 1.002-.464zm154.514.454c0-.123.044-.228.13-.315.087-.093.189-.139.306-.139.279 0 .616.154 1.012.464.402.303.831.739 1.289 1.308.699.872 1.225 1.79 1.577 2.755.353.965.529 1.97.529 3.015 0 1.144-.213 2.245-.64 3.303s-1.061 2.053-1.902 2.987c-.359.396-.702.699-1.03.91-.327.216-.612.324-.853.324-.112 0-.21-.043-.297-.13-.08-.08-.121-.182-.121-.306 0-.136.152-.451.455-.946.223-.365.396-.662.519-.891.501-.927.863-1.809 1.086-2.644s.334-1.704.334-2.607c0-.81-.09-1.595-.269-2.356-.18-.761-.455-1.519-.826-2.273-.204-.408-.473-.885-.807-1.429-.328-.55-.492-.894-.492-1.03z" fill="#6e6e6e"/><g fill="#00c2ff"><path d="m289.106 260.666h7.691c.148 0 .26.037.334.111.08.074.12.182.12.325v1.159c0 .13-.049.248-.148.353-.093.105-.195.157-.306.157h-7.691c-.124 0-.223-.046-.297-.139-.068-.092-.102-.216-.102-.371v-1.159c0-.13.037-.235.111-.316.075-.08.17-.12.288-.12zm11.411 0h7.691c.148 0 .26.037.334.111.08.074.121.182.121.325v1.159c0 .13-.05.248-.149.353-.093.105-.195.157-.306.157h-7.691c-.124 0-.223-.046-.297-.139-.068-.092-.102-.216-.102-.371v-1.159c0-.13.037-.235.111-.316.075-.08.171-.12.288-.12zm15.874-2.607c.259-.279.559-.489.9-.631.34-.149.705-.223 1.094-.223.841 0 1.448.251 1.819.752.371.494.556 1.326.556 2.495v3.516h.13c.291 0 .507.087.65.26.148.167.222.414.222.742 0 .371-.077.637-.232.798-.148.155-.405.232-.77.232h-1.577c-.167 0-.297-.034-.39-.102-.092-.074-.139-.173-.139-.297v-5.242c0-.414-.065-.723-.195-.927-.129-.204-.318-.307-.565-.307-.31 0-.551.14-.724.418-.167.272-.251.665-.251 1.178v3.247h.14c.284 0 .501.087.649.26.148.167.223.414.223.742 0 .371-.078.637-.232.798-.155.155-.415.232-.78.232h-1.577c-.167 0-.3-.034-.399-.102-.099-.074-.148-.173-.148-.297v-5.242c0-.414-.062-.723-.186-.927-.123-.204-.309-.307-.556-.307-.31 0-.554.14-.733.418-.173.278-.26.671-.26 1.178v3.247h.139c.291 0 .507.084.65.251.148.167.222.417.222.751 0 .371-.077.637-.232.798-.154.155-.414.232-.779.232h-2.106c-.359 0-.615-.08-.77-.241s-.232-.424-.232-.789c0-.328.071-.575.214-.742.148-.173.368-.26.658-.26h.13v-4.509h-.13c-.29 0-.513-.086-.668-.259-.148-.18-.222-.433-.222-.761 0-.359.077-.615.232-.77.16-.161.423-.241.788-.241h1.253c.253 0 .423.052.51.157.093.099.139.294.139.585.229-.316.504-.554.826-.714.321-.167.68-.251 1.076-.251.359 0 .671.071.937.213.266.137.498.35.696.641zm14.602 5.909h.149c.334 0 .587.09.76.269.18.173.269.424.269.752 0 .358-.092.618-.278.779-.179.155-.479.232-.9.232h-.872c-.309 0-.541-.059-.696-.176-.148-.118-.272-.331-.371-.64-.513.34-1.057.6-1.633.779-.575.179-1.156.269-1.744.269-.996 0-1.778-.247-2.347-.742s-.853-1.172-.853-2.032c0-.928.368-1.648 1.104-2.162.736-.513 1.768-.77 3.098-.77.297 0 .613.016.946.047.334.031.709.08 1.123.148v-.176c0-.557-.136-.98-.408-1.271-.266-.291-.662-.436-1.188-.436-.408 0-.93.151-1.568.454-.63.304-1.094.455-1.391.455-.291 0-.526-.083-.705-.25-.18-.174-.269-.399-.269-.678 0-.501.365-.896 1.094-1.187.736-.297 1.735-.445 2.997-.445 1.317 0 2.261.253 2.83.76s.853 1.367.853 2.579zm-2.245-1.79c-.309-.068-.594-.118-.853-.149-.26-.037-.501-.055-.724-.055-.68 0-1.215.114-1.605.343-.384.229-.575.544-.575.946 0 .359.123.634.371.826.247.185.603.278 1.067.278.426 0 .828-.062 1.206-.185.377-.124.748-.316 1.113-.576zm11.17 1.79h1.995c.426 0 .729.078.909.232.179.155.269.411.269.77 0 .365-.093.628-.279.789-.179.161-.479.241-.899.241h-6.272c-.42 0-.724-.08-.909-.241-.179-.161-.269-.424-.269-.789 0-.359.086-.615.26-.77.179-.154.485-.232.918-.232h1.995v-4.509h-1.049c-.414 0-.711-.077-.89-.231-.18-.161-.269-.424-.269-.789s.086-.625.26-.779c.173-.155.473-.232.899-.232h2.793c.173 0 .306.037.399.111.093.068.139.164.139.288zm-1.336-10.734c.452 0 .751.087.9.26.148.173.223.588.223 1.243 0 .631-.068 1.024-.205 1.179-.129.148-.442.222-.937.222-.482 0-.794-.071-.937-.213-.136-.142-.204-.427-.204-.854 0-.791.071-1.295.214-1.512.142-.216.457-.325.946-.325zm15.345 10.716h.12c.347 0 .606.086.78.259.173.167.259.421.259.761 0 .365-.089.628-.269.789-.173.161-.47.241-.89.241h-2.282c-.415 0-.715-.08-.9-.241-.18-.161-.269-.424-.269-.789 0-.34.086-.594.259-.761.18-.173.446-.259.798-.259h.112v-2.681c0-.743-.106-1.268-.316-1.578-.204-.315-.547-.473-1.03-.473-.513 0-.934.189-1.261.566-.322.371-.483.866-.483 1.485v2.681h.112c.352 0 .615.086.788.259.173.167.26.421.26.761 0 .365-.09.628-.269.789-.18.161-.476.241-.891.241h-2.301c-.414 0-.711-.08-.89-.241-.18-.161-.269-.424-.269-.789 0-.34.086-.594.259-.761.174-.173.437-.259.789-.259h.111v-4.491h-.157c-.334 0-.588-.083-.761-.25-.173-.173-.26-.424-.26-.751 0-.365.09-.628.269-.789.18-.161.483-.241.909-.241h1.578c.173 0 .303.034.389.102.093.068.139.167.139.297v.723c.285-.445.647-.779 1.086-1.002.445-.229.958-.343 1.54-.343.989 0 1.725.3 2.208.9.488.6.733 1.515.733 2.746zm3.646-3.284h7.691c.148 0 .259.037.334.111.08.074.12.182.12.325v1.159c0 .13-.049.248-.148.353-.093.105-.195.157-.306.157h-7.691c-.124 0-.223-.046-.297-.139-.068-.092-.102-.216-.102-.371v-1.159c0-.13.037-.235.111-.316.074-.08.17-.12.288-.12zm17.757.695c.018.007.037.013.055.019h.093c.124 0 .266-.077.427-.232.161-.161.297-.241.408-.241.26 0 .464.065.612.195.149.123.223.3.223.528 0 .062-.006.127-.019.195-.006.068-.018.13-.037.186l-.204.686c-.037.13-.099.226-.185.288-.087.062-.198.093-.334.093h-1.039v1.159h.547c.056 0 .127.003.213.01.087.006.143.009.167.009.223 0 .412.083.566.25.155.161.232.368.232.622 0 .309-.093.532-.278.668-.18.136-.479.204-.9.204h-3.915c-.421 0-.721-.068-.9-.204-.173-.136-.26-.359-.26-.668 0-.316.09-.541.269-.677.18-.143.477-.214.891-.214h1.354v-1.159h-4.276c-.161 0-.285-.05-.372-.149-.08-.099-.12-.241-.12-.427v-.565c0-.229.015-.406.046-.529.037-.13.096-.266.177-.408l3.896-6.625c.093-.154.167-.25.223-.287.061-.037.145-.056.25-.056.056 0 .102.003.139.01.044 0 .081.003.112.009l1.651.287c.093.019.164.068.213.149.05.08.075.188.075.325zm-2.014-5.13-2.913 5.13h2.913zm10.948-.148c-.656 0-1.175.358-1.559 1.076-.377.717-.566 1.707-.566 2.968 0 1.281.189 2.283.566 3.006.377.718.897 1.076 1.559 1.076.661 0 1.181-.358 1.558-1.076.384-.723.575-1.725.575-3.006 0-1.261-.191-2.251-.575-2.968-.377-.718-.897-1.076-1.558-1.076zm-.019-2.088c1.423 0 2.551.554 3.386 1.661.835 1.101 1.253 2.597 1.253 4.49 0 1.899-.418 3.402-1.253 4.509-.835 1.101-1.963 1.651-3.386 1.651-1.41 0-2.53-.55-3.358-1.651-.823-1.107-1.234-2.61-1.234-4.509s.411-3.399 1.234-4.5c.828-1.1 1.948-1.651 3.358-1.651zm11.43 2.088c-.656 0-1.175.358-1.559 1.076-.377.717-.566 1.707-.566 2.968 0 1.281.189 2.283.566 3.006.377.718.897 1.076 1.559 1.076s1.181-.358 1.558-1.076c.384-.723.576-1.725.576-3.006 0-1.261-.192-2.251-.576-2.968-.377-.718-.896-1.076-1.558-1.076zm-.019-2.088c1.423 0 2.552.554 3.386 1.661.835 1.101 1.253 2.597 1.253 4.49 0 1.899-.418 3.402-1.253 4.509-.834 1.101-1.963 1.651-3.386 1.651-1.41 0-2.529-.55-3.358-1.651-.823-1.107-1.234-2.61-1.234-4.509s.411-3.399 1.234-4.5c.829-1.1 1.948-1.651 3.358-1.651z"/><rect height="20" rx="2.5" stroke="#fff" width="20" x="261.5" y="251.5"/></g></svg>