<svg fill="none" stroke="#00c2ff" viewBox="0 0 24 24" xmlns="http://www.w3.org/2000/svg"><path d="m9.75 3.104v5.714a2.25 2.25 0 0 1 -.659 1.591l-4.091 4.091m4.75-11.396c-.251.023-.501.05-.75.082m.75-.082a24.301 24.301 0 0 1 4.5 0m0 0v5.714c0 .597.237 1.17.659 1.591l4.891 4.891m-5.55-12.196c.251.023.501.05.75.082m4.8 12.114-1.57.393a9.065 9.065 0 0 1 -6.23-.693 9.065 9.065 0 0 0 -6.23-.693l-.77.193m14.8.8 1.402 1.402c1.232 1.232.65 3.318-1.067 3.611a48.309 48.309 0 0 1 -8.135.687c-2.773 0-5.491-.235-8.135-.687-1.718-.293-2.3-2.379-1.067-3.61l2.202-2.203" stroke-linecap="round" stroke-linejoin="round"/></svg>