<svg fill="none" stroke="#00c2ff" viewBox="0 0 24 24" xmlns="http://www.w3.org/2000/svg"><path d="m9 12.75 2.25 2.25 3.75-5.25m6 2.25c0 1.268-.63 2.39-1.593 3.068a3.745 3.745 0 0 1 -1.043 3.296 3.745 3.745 0 0 1 -3.296 1.043 3.745 3.745 0 0 1 -3.068 1.593c-1.268 0-2.39-.63-3.068-1.593a3.746 3.746 0 0 1 -3.296-1.043 3.745 3.745 0 0 1 -1.043-3.296 3.745 3.745 0 0 1 -1.593-3.068c0-1.268.63-2.39 1.593-3.068a3.745 3.745 0 0 1 1.043-3.296 3.746 3.746 0 0 1 3.296-1.043 3.746 3.746 0 0 1 3.068-1.593c1.268 0 2.39.63 3.068 1.593a3.746 3.746 0 0 1 3.296 1.043 3.746 3.746 0 0 1 1.043 3.296 3.745 3.745 0 0 1 1.593 3.068z" stroke-linecap="round" stroke-linejoin="round"/></svg>