<svg fill="none" stroke="#00c2ff" viewBox="0 0 24 24" xmlns="http://www.w3.org/2000/svg"><path d="m20.25 6.375c0 2.278-3.694 4.125-8.25 4.125s-8.25-1.847-8.25-4.125m16.5 0c0-2.278-3.694-4.125-8.25-4.125s-8.25 1.847-8.25 4.125m16.5 0v11.25c0 2.278-3.694 4.125-8.25 4.125s-8.25-1.847-8.25-4.125v-11.25m16.5 0v3.75m-16.5-3.75v3.75m16.5 0v3.75c0 2.278-3.694 4.125-8.25 4.125s-8.25-1.847-8.25-4.125v-3.75m16.5 0c0 2.278-3.694 4.125-8.25 4.125s-8.25-1.847-8.25-4.125" stroke-linecap="round" stroke-linejoin="round"/></svg>