<svg fill="none" height="28" viewBox="0 0 87 28" width="87" xmlns="http://www.w3.org/2000/svg"><path d="m30.598 22 2.806-15.663h2.691l3.933 10.948h-.092l3.933-10.948h2.691l2.806 15.663h-3.059l-1.127-7.153c-.1687-.966-.3143-1.932-.437-2.898-.1073-.9813-.1917-1.955-.253-2.921h.828c-.2607 1.0887-.5213 2.093-.782 3.013-.2453.9047-.5367 1.8323-.874 2.783l-2.507 6.969h-2.346l-2.507-6.969c-.3373-.9507-.6363-1.8783-.897-2.783-.2607-.92-.5137-1.9243-.759-3.013h.805c-.046.966-.1303 1.9397-.253 2.921-.1073.966-.2453 1.932-.414 2.898l-1.127 7.153zm25.6258.276c-1.1654 0-2.1927-.2453-3.082-.736-.874-.506-1.5564-1.196-2.047-2.07-.4907-.8893-.736-1.9167-.736-3.082s.2453-2.185.736-3.059c.4906-.8893 1.173-1.5793 2.047-2.07.8893-.506 1.9166-.759 3.082-.759 1.1653 0 2.185.253 3.059.759.8893.4907 1.5793 1.1807 2.07 2.07.4906.874.736 1.8937.736 3.059s-.2454 2.1927-.736 3.082c-.4907.874-1.1807 1.564-2.07 2.07-.874.4907-1.8937.736-3.059.736zm0-2.921c.828 0 1.5026-.276 2.024-.828.5213-.552.782-1.265.782-2.139 0-.8893-.2607-1.61-.782-2.162-.5214-.552-1.196-.828-2.024-.828s-1.5027.276-2.024.828c-.506.5367-.759 1.2497-.759 2.139s.253 1.61.759 2.162c.5213.552 1.196.828 2.024.828zm14.2041-8.855c.7667 0 1.38.1303 1.84.391.4753.2607.828.6133 1.058 1.058.2453.4447.4063.9507.483 1.518.0767.552.115 1.127.115 1.725v6.808h-3.013v-6.831c0-.69-.138-1.15-.414-1.38-.2607-.23-.598-.345-1.012-.345-.3833 0-.7743.0767-1.173.23-.3987.138-.7743.345-1.127.621-.3373.2607-.6287.5597-.874.897l-.391-1.564h.759v8.372h-3.013v-11.247h2.254l.621 2.162-.966-.046c.3987-.46.851-.8663 1.357-1.219.5213-.3527 1.0733-.6287 1.656-.828.5827-.2147 1.196-.322 1.84-.322zm9.1035 11.822c-.828 0-1.5563-.1533-2.185-.46-.6287-.322-1.1117-.7667-1.449-1.334-.3373-.5827-.506-1.2573-.506-2.024s.1763-1.4337.529-2.001c.368-.5673.8663-1.0043 1.495-1.311.6287-.322 1.3417-.483 2.139-.483 1.0887 0 1.9703.253 2.645.759.69.4907 1.1577 1.196 1.403 2.116l-1.403-.184v-2.714c0-.4293-.1533-.8127-.46-1.15s-.805-.506-1.495-.506c-.4293 0-.9047.0537-1.426.161-.5213.092-1.0657.276-1.633.552l-.897-2.208c.6593-.322 1.357-.575 2.093-.759.7513-.184 1.5027-.276 2.254-.276 1.0273 0 1.8783.184 2.553.552s1.1807.874 1.518 1.518.506 1.38.506 2.208v7.222h-2.392l-.644-2.139 1.426-.414c-.2607.9047-.7437 1.61-1.449 2.116-.69.506-1.564.759-2.622.759zm.828-2.3c.552 0 .9967-.138 1.334-.414s.506-.644.506-1.104c0-.4753-.1687-.8433-.506-1.104-.3373-.276-.782-.414-1.334-.414s-.9967.138-1.334.414c-.3373.2607-.506.6287-.506 1.104 0 .46.1687.828.506 1.104s.782.414 1.334.414z" fill="#fff"/><rect fill="#0166ff" height="21" rx="4" width="21" y="3"/></svg>