<svg fill="none" height="257" viewBox="0 0 481 257" width="481" xmlns="http://www.w3.org/2000/svg" xmlns:xlink="http://www.w3.org/1999/xlink"><linearGradient id="a"><stop offset="0" stop-color="#00516a"/><stop offset="1" stop-color="#00c2ff"/></linearGradient><linearGradient id="b" gradientUnits="userSpaceOnUse" x1="0" x2="476" xlink:href="#a" y1="19.5" y2="19.5"/><linearGradient id="c" gradientUnits="userSpaceOnUse" x1="0" x2="205" xlink:href="#a" y1="85.5" y2="85.5"/><linearGradient id="d" gradientUnits="userSpaceOnUse" x1="0" x2="159" xlink:href="#a" y1="151.5" y2="151.5"/><linearGradient id="e" gradientUnits="userSpaceOnUse" x1="0" x2="65" xlink:href="#a" y1="217.5" y2="217.5"/><path d="m0 17.5h476" stroke="url(#b)" stroke-width="3"/><path d="m1.9 43v-10.215h3.66c.84 0 1.515.105 2.025.315s.88.525 1.11.945c.24.41.36.925.36 1.545 0 .49-.11.925-.33 1.305-.21.37-.5.66-.87.87s-.79.315-1.26.315l.045-.48c.59 0 1.08.11 1.47.33s.685.52.885.9.3.81.3 1.29c0 .96-.295 1.68-.885 2.16-.58.48-1.44.72-2.58.72zm2.19-9.09v7.86l-.78-.87h2.49c.39 0 .695-.095.915-.285.23-.19.345-.45.345-.78 0-.36-.11-.63-.33-.81-.21-.18-.51-.27-.9-.27h-2.52v-1.89h2.295c.4 0 .7-.08.9-.24s.3-.41.3-.75c0-.31-.105-.55-.315-.72-.2-.18-.495-.27-.885-.27h-2.235zm8.6555 9.285c-.53 0-1-.1-1.41-.3-.4-.21-.71-.5-.93-.87s-.33-.8-.33-1.29c0-.52.12-.96.36-1.32.24-.37.56-.655.96-.855.41-.2.865-.3 1.365-.3.73 0 1.32.165 1.77.495s.75.805.9 1.425l-.945-.165v-1.71c0-.27-.095-.505-.285-.705s-.495-.3-.915-.3c-.27 0-.58.035-.93.105-.35.06-.71.18-1.08.36l-.645-1.56c.44-.22.91-.395 1.41-.525.51-.13 1.03-.195 1.56-.195.68 0 1.25.12 1.71.36s.8.58 1.02 1.02c.23.44.345.95.345 1.53v4.605h-1.785l-.435-1.425.975-.3c-.16.6-.465 1.07-.915 1.41s-1.04.51-1.77.51zm.675-1.56c.33 0 .59-.085.78-.255.2-.17.3-.385.3-.645 0-.28-.1-.5-.3-.66-.19-.16-.45-.24-.78-.24s-.59.08-.78.24-.285.38-.285.66c0 .26.095.475.285.645s.45.255.78.255zm7.3629 1.59c-.59 0-1.145-.115-1.665-.345-.51-.23-.975-.625-1.395-1.185l1.245-1.2c.34.35.665.6.975.75s.65.225 1.02.225c.22 0 .395-.045.525-.135.14-.1.21-.22.21-.36 0-.12-.04-.22-.12-.3s-.23-.16-.45-.24-.54-.175-.96-.285c-.77-.19-1.345-.465-1.725-.825-.37-.37-.555-.86-.555-1.47 0-.44.115-.84.345-1.2.23-.37.56-.665.99-.885s.94-.33 1.53-.33c.7 0 1.295.135 1.785.405.49.26.895.58 1.215.96l-1.35 1.155c-.22-.2-.485-.37-.795-.51s-.66-.21-1.05-.21c-.21 0-.39.04-.54.12s-.225.2-.225.36c0 .15.09.275.27.375s.54.215 1.08.345c.91.22 1.56.515 1.95.885.4.37.6.865.6 1.485 0 .48-.125.905-.375 1.275-.25.36-.595.64-1.035.84s-.94.3-1.5.3zm7.2932-.09c-.73 0-1.375-.155-1.935-.465-.55-.31-.98-.75-1.29-1.32-.3-.57-.45-1.24-.45-2.01 0-.76.15-1.43.45-2.01.31-.58.74-1.03 1.29-1.35.56-.33 1.205-.495 1.935-.495.75 0 1.4.17 1.95.51s.975.8 1.275 1.38c.3.57.45 1.215.45 1.935 0 .13-.005.255-.015.375s-.02.215-.03.285h-5.595v-1.56h3.915l-.255.645c0-.55-.14-1-.42-1.35-.27-.35-.69-.525-1.26-.525-.51 0-.92.155-1.23.465-.3.31-.45.72-.45 1.23v.825c0 .55.155.98.465 1.29.32.3.76.45 1.32.45.47 0 .84-.095 1.11-.285.28-.19.515-.425.705-.705l1.485.825c-.32.59-.77 1.05-1.35 1.38-.58.32-1.27.48-2.07.48zm6.7984-.06c-.37 0-.71-.075-1.02-.225s-.56-.38-.75-.69c-.19-.32-.285-.745-.285-1.275v-8.1h2.175v7.32c0 .37.065.61.195.72.14.1.315.15.525.15v2.025c-.1.02-.235.035-.405.045-.16.02-.305.03-.435.03zm4.208-.075h-2.19v-7.335h2.19zm-2.385-9.645c0-.39.115-.705.345-.945.24-.24.555-.36.945-.36s.7.12.93.36c.24.24.36.555.36.945 0 .38-.12.69-.36.93-.23.23-.54.345-.93.345s-.705-.115-.945-.345c-.23-.24-.345-.55-.345-.93zm8.4886 2.13c.49 0 .89.085 1.2.255.31.16.545.385.705.675.17.29.28.62.33.99.06.36.09.735.09 1.125v4.47h-2.19v-4.35c0-.42-.075-.695-.225-.825-.15-.14-.35-.21-.6-.21-.21 0-.43.045-.66.135-.22.08-.435.195-.645.345s-.395.32-.555.51l-.39-1.11h.615v5.505h-2.19v-7.335h1.62l.45 1.455-.75-.06c.26-.29.555-.555.885-.795s.69-.43 1.08-.57.8-.21 1.23-.21zm6.9428 7.65c-.73 0-1.375-.155-1.935-.465-.55-.31-.98-.75-1.29-1.32-.3-.57-.45-1.24-.45-2.01 0-.76.15-1.43.45-2.01.31-.58.74-1.03 1.29-1.35.56-.33 1.205-.495 1.935-.495.75 0 1.4.17 1.95.51s.975.8 1.275 1.38c.3.57.45 1.215.45 1.935 0 .13-.005.255-.015.375s-.02.215-.03.285h-5.595v-1.56h3.915l-.255.645c0-.55-.14-1-.42-1.35-.27-.35-.69-.525-1.26-.525-.51 0-.92.155-1.23.465-.3.31-.45.72-.45 1.23v.825c0 .55.155.98.465 1.29.32.3.76.45 1.32.45.47 0 .84-.095 1.11-.285.28-.19.515-.425.705-.705l1.485.825c-.32.59-.77 1.05-1.35 1.38-.58.32-1.27.48-2.07.48zm6.0327-.03c-.23 0-.445-.06-.645-.18s-.36-.28-.48-.48-.18-.415-.18-.645c0-.24.06-.455.18-.645.12-.2.28-.36.48-.48s.415-.18.645-.18c.25 0 .47.06.66.18.2.12.36.28.48.48.12.19.18.405.18.645 0 .23-.06.445-.18.645s-.28.36-.48.48c-.19.12-.41.18-.66.18zm0-4.935c-.23 0-.445-.06-.645-.18s-.36-.28-.48-.48-.18-.415-.18-.645c0-.24.06-.455.18-.645.12-.2.28-.36.48-.48s.415-.18.645-.18c.25 0 .47.06.66.18.2.12.36.28.48.48.12.19.18.405.18.645 0 .23-.06.445-.18.645s-.28.36-.48.48c-.19.12-.41.18-.66.18zm9.678 4.83-3.585-10.215h1.77l3.15 9.015h-.465l3.15-9.015h1.77l-3.585 10.215zm10.0947.24c-.55 0-1.075-.08-1.575-.24-.5-.17-.955-.435-1.365-.795-.41-.37-.755-.855-1.035-1.455l1.41-.84c.33.58.705 1.005 1.125 1.275s.925.405 1.515.405c.55 0 .965-.12 1.245-.36.29-.24.435-.57.435-.99 0-.25-.065-.465-.195-.645-.12-.19-.34-.365-.66-.525-.31-.17-.755-.325-1.335-.465-.8-.2-1.425-.445-1.875-.735-.45-.3-.765-.645-.945-1.035-.18-.4-.27-.835-.27-1.305 0-.58.135-1.085.405-1.515s.66-.77 1.17-1.02 1.115-.375 1.815-.375c.83 0 1.515.16 2.055.48.55.32 1.005.745 1.365 1.275l-1.425.945c-.29-.37-.61-.63-.96-.78-.34-.16-.695-.24-1.065-.24-.53 0-.935.105-1.215.315-.28.2-.42.495-.42.885 0 .33.135.615.405.855s.795.455 1.575.645c.84.21 1.505.46 1.995.75.49.28.835.625 1.035 1.035.21.4.315.88.315 1.44 0 .57-.145 1.08-.435 1.53s-.7.81-1.23 1.08c-.52.27-1.14.405-1.86.405zm13.445-.075c-1.04 0-1.95-.225-2.73-.675-.78-.46-1.385-1.085-1.815-1.875-.42-.8-.63-1.705-.63-2.715 0-.76.125-1.46.375-2.1.26-.65.62-1.21 1.08-1.68.47-.47 1.02-.835 1.65-1.095s1.32-.39 2.07-.39c1.17 0 2.13.245 2.88.735s1.35 1.165 1.8 2.025l-1.65.555c-.42-.61-.88-1.035-1.38-1.275-.49-.24-1.04-.36-1.65-.36-.65 0-1.23.155-1.74.465-.51.3-.915.72-1.215 1.26s-.45 1.16-.45 1.86.15 1.32.45 1.86.705.965 1.215 1.275c.51.3 1.09.45 1.74.45.61 0 1.16-.12 1.65-.36.5-.24.96-.665 1.38-1.275l1.65.555c-.45.86-1.05 1.535-1.8 2.025s-1.71.735-2.88.735zm9.1242 0c-.7502 0-1.4102-.16-1.9802-.48s-1.015-.765-1.335-1.335c-.31-.58-.465-1.245-.465-1.995 0-.77.155-1.44.465-2.01.32-.58.765-1.03 1.335-1.35s1.23-.48 1.9802-.48c.75 0 1.41.16 1.98.48s1.01.77 1.32 1.35c.32.57.48 1.24.48 2.01 0 .75-.16 1.415-.48 1.995-.31.57-.75 1.015-1.32 1.335s-1.23.48-1.98.48zm0-1.68c.6 0 1.085-.195 1.455-.585.37-.4.555-.92.555-1.56s-.185-1.155-.555-1.545c-.37-.4-.855-.6-1.455-.6-.6002 0-1.0852.195-1.4552.585s-.555.91-.555 1.56c0 .64.185 1.16.555 1.56.37.39.855.585 1.4552.585zm7.856 1.68c-.66 0-1.245-.16-1.755-.48-.51-.33-.91-.78-1.2-1.35-.28-.58-.42-1.25-.42-2.01s.14-1.425.42-1.995c.29-.57.69-1.015 1.2-1.335s1.1-.48 1.77-.48c.65 0 1.215.155 1.695.465.49.3.87.74 1.14 1.32.27.57.405 1.245.405 2.025 0 .77-.135 1.445-.405 2.025-.27.57-.65 1.015-1.14 1.335s-1.06.48-1.71.48zm.3-1.56c.56 0 1.01-.205 1.35-.615.35-.42.525-.97.525-1.65s-.175-1.225-.525-1.635c-.34-.42-.79-.63-1.35-.63s-1.02.21-1.38.63c-.35.41-.525.95-.525 1.62 0 .68.175 1.23.525 1.65.36.42.82.63 1.38.63zm2.22 1.395-.42-1.605h.135v-3.915h-.135v-4.695h1.74v10.215zm6.187.15c-.72 0-1.35-.155-1.89-.465-.54-.32-.965-.765-1.275-1.335-.3-.57-.45-1.235-.45-1.995 0-.77.15-1.44.45-2.01.31-.58.735-1.03 1.275-1.35s1.17-.48 1.89-.48c.73 0 1.365.165 1.905.495.55.32.975.77 1.275 1.35.3.57.45 1.23.45 1.98 0 .09-.005.18-.015.27 0 .09-.005.17-.015.24h-5.685v-1.395h4.395l-.36.795c0-.69-.16-1.255-.48-1.695s-.805-.66-1.455-.66c-.59 0-1.06.185-1.41.555-.34.36-.51.84-.51 1.44v.795c0 .62.17 1.115.51 1.485.35.36.83.54 1.44.54.55 0 .975-.115 1.275-.345.31-.23.575-.515.795-.855l1.245.75c-.33.62-.77 1.09-1.32 1.41s-1.23.48-2.04.48z" fill="#fff"/><path d="m251.209 243.786c-3.475 0-6.427-.619-8.855-1.857-2.427-1.238-4.26-2.904-5.498-4.999-1.19-2.142-1.785-4.475-1.785-6.998 0-2.476.523-4.618 1.571-6.427 1.047-1.857 2.523-3.404 4.427-4.642 1.904-1.237 4.094-2.118 6.57-2.642v3.785c-2.285-.571-4.261-1.476-5.927-2.714-1.666-1.237-2.952-2.737-3.856-4.498-.905-1.762-1.357-3.69-1.357-5.785 0-2.57.571-4.856 1.714-6.855 1.19-2.047 2.88-3.642 5.07-4.784 2.237-1.143 4.927-1.714 8.069-1.714 3.047 0 5.642.571 7.784 1.714 2.19 1.142 3.856 2.737 4.999 4.784 1.19 1.999 1.785 4.285 1.785 6.855 0 1.905-.405 3.714-1.214 5.428-.762 1.666-1.881 3.118-3.356 4.356-1.429 1.237-3.143 2.189-5.142 2.856l-.143-3.142c2.333.619 4.332 1.547 5.999 2.785 1.666 1.238 2.951 2.761 3.856 4.57.952 1.762 1.428 3.785 1.428 6.07 0 2.523-.619 4.856-1.857 6.998-1.19 2.095-2.999 3.761-5.427 4.999-2.38 1.238-5.332 1.857-8.855 1.857zm0-7.998c2.333 0 4.213-.643 5.642-1.928 1.428-1.286 2.142-3 2.142-5.142 0-2.238-.714-4.023-2.142-5.356-1.429-1.333-3.309-1.999-5.642-1.999-2.332 0-4.213.666-5.641 1.999s-2.142 3.118-2.142 5.356c0 2.142.714 3.856 2.142 5.142 1.428 1.285 3.309 1.928 5.641 1.928zm0-22.209c1.952 0 3.547-.571 4.785-1.714 1.285-1.19 1.928-2.666 1.928-4.427 0-1.666-.643-3.047-1.928-4.142-1.238-1.095-2.833-1.642-4.785-1.642-1.904 0-3.499.547-4.784 1.642-1.286 1.095-1.928 2.476-1.928 4.142 0 1.761.642 3.237 1.928 4.427 1.285 1.143 2.88 1.714 4.784 1.714zm36.64 30.207c-3.428 0-6.427-1-8.998-3-2.571-1.999-4.546-4.856-5.927-8.569-1.381-3.761-2.071-8.26-2.071-13.496 0-5.142.69-9.593 2.071-13.354s3.356-6.641 5.927-8.641c2.571-2.047 5.57-3.07 8.998-3.07 3.475 0 6.474 1.023 8.997 3.07 2.571 2 4.547 4.88 5.927 8.641 1.381 3.761 2.071 8.212 2.071 13.354 0 5.236-.69 9.735-2.071 13.496-1.38 3.713-3.356 6.57-5.927 8.569-2.523 2-5.522 3-8.997 3zm0-7.998c2.047 0 3.689-.762 4.927-2.286 1.238-1.523 2.142-3.57 2.714-6.141.619-2.618.928-5.498.928-8.64 0-2.809-.309-5.523-.928-8.141-.572-2.619-1.476-4.737-2.714-6.356-1.238-1.666-2.88-2.499-4.927-2.499-2.095 0-3.785.833-5.07 2.499-1.286 1.619-2.214 3.737-2.785 6.356-.524 2.618-.786 5.332-.786 8.141 0 3.142.262 6.022.786 8.64.571 2.571 1.499 4.618 2.785 6.141 1.285 1.524 2.975 2.286 5.07 2.286zm36.98 7.998c-3.428 0-6.427-1-8.998-3-2.571-1.999-4.547-4.856-5.927-8.569-1.381-3.761-2.071-8.26-2.071-13.496 0-5.142.69-9.593 2.071-13.354 1.38-3.761 3.356-6.641 5.927-8.641 2.571-2.047 5.57-3.07 8.998-3.07 3.475 0 6.474 1.023 8.997 3.07 2.571 2 4.547 4.88 5.927 8.641 1.381 3.761 2.071 8.212 2.071 13.354 0 5.236-.69 9.735-2.071 13.496-1.38 3.713-3.356 6.57-5.927 8.569-2.523 2-5.522 3-8.997 3zm0-7.998c2.047 0 3.689-.762 4.927-2.286 1.238-1.523 2.142-3.57 2.713-6.141.619-2.618.929-5.498.929-8.64 0-2.809-.31-5.523-.929-8.141-.571-2.619-1.475-4.737-2.713-6.356-1.238-1.666-2.88-2.499-4.927-2.499-2.095 0-3.785.833-5.071 2.499-1.285 1.619-2.213 3.737-2.785 6.356-.523 2.618-.785 5.332-.785 8.141 0 3.142.262 6.022.785 8.64.572 2.571 1.5 4.618 2.785 6.141 1.286 1.524 2.976 2.286 5.071 2.286zm26.911 7.998-5.071-3.857 38.776-44.702 5.142 3.927zm3.499-26.494c-2.047 0-3.928-.476-5.642-1.428-1.714-1-3.094-2.333-4.142-3.999-1.047-1.714-1.571-3.594-1.571-5.641 0-2.095.524-3.975 1.571-5.642 1.048-1.666 2.428-2.999 4.142-3.999 1.714-.999 3.595-1.499 5.642-1.499 2.094 0 3.999.524 5.712 1.571 1.714 1 3.071 2.333 4.071 3.999s1.499 3.523 1.499 5.57-.523 3.927-1.571 5.641c-.999 1.666-2.356 2.999-4.07 3.999-1.714.952-3.594 1.428-5.641 1.428zm0-6.427c1.285 0 2.356-.428 3.213-1.285.905-.857 1.357-1.976 1.357-3.356 0-1.381-.452-2.5-1.357-3.356-.857-.905-1.928-1.357-3.213-1.357-1.333 0-2.428.452-3.285 1.357-.81.856-1.214 1.975-1.214 3.356 0 1.38.404 2.499 1.214 3.356.857.857 1.952 1.285 3.285 1.285zm26.85 32.921c-2 0-3.88-.477-5.642-1.429-1.713-.999-3.094-2.332-4.141-3.999-1-1.713-1.5-3.594-1.5-5.641 0-2.095.5-3.975 1.5-5.641 1.047-1.714 2.428-3.047 4.141-3.999 1.762-1 3.642-1.5 5.642-1.5 2.094 0 3.999.5 5.713 1.5 1.761.952 3.142 2.285 4.141 3.999 1 1.713 1.5 3.594 1.5 5.641s-.524 3.928-1.571 5.641c-1 1.667-2.38 3-4.142 3.999-1.714.952-3.594 1.429-5.641 1.429zm0-6.427c1.333 0 2.428-.429 3.285-1.286s1.285-1.975 1.285-3.356-.428-2.523-1.285-3.428c-.857-.904-1.952-1.357-3.285-1.357-1.286 0-2.357.453-3.214 1.357-.857.905-1.285 2.047-1.285 3.428s.428 2.499 1.285 3.356 1.928 1.286 3.214 1.286z" fill="#fff"/><path d="m0 83.5h205" stroke="url(#c)" stroke-width="3"/><path d="m5.425 109.24c-.55 0-1.075-.08-1.575-.24-.5-.17-.955-.435-1.365-.795-.41-.37-.755-.855-1.035-1.455l1.41-.84c.33.58.705 1.005 1.125 1.275s.925.405 1.515.405c.55 0 .965-.12 1.245-.36.29-.24.435-.57.435-.99 0-.25-.065-.465-.195-.645-.12-.19-.34-.365-.66-.525-.31-.17-.755-.325-1.335-.465-.8-.2-1.425-.445-1.875-.735-.45-.3-.765-.645-.945-1.035-.18-.4-.27-.835-.27-1.305 0-.58.135-1.085.405-1.515s.66-.77 1.17-1.02 1.115-.375 1.815-.375c.83 0 1.515.16 2.055.48.55.32 1.005.745 1.365 1.275l-1.425.945c-.29-.37-.61-.63-.96-.78-.34-.16-.695-.24-1.065-.24-.53 0-.935.105-1.215.315-.28.2-.42.495-.42.885 0 .33.135.615.405.855s.795.455 1.575.645c.84.21 1.505.46 1.995.75.49.28.835.625 1.035 1.035.21.4.315.88.315 1.44 0 .57-.145 1.08-.435 1.53s-.7.81-1.23 1.08c-.52.27-1.14.405-1.86.405zm7.2386-.075c-.55 0-.99-.085-1.32-.255-.32-.17-.56-.4-.72-.69s-.27-.62-.33-.99c-.05-.37-.075-.755-.075-1.155v-4.395h1.74v4.56c0 .48.105.805.315.975.22.16.475.24.765.24s.575-.055.855-.165c.29-.11.555-.265.795-.465.25-.2.445-.42.585-.66l.135.93h-.375v-5.415h1.74v7.32h-1.305l-.36-1.35h.495c-.25.3-.535.565-.855.795s-.655.41-1.005.54c-.35.12-.71.18-1.08.18zm9.7313 0c-.65 0-1.22-.16-1.71-.48-.48-.32-.86-.765-1.14-1.335-.27-.58-.405-1.255-.405-2.025 0-.78.135-1.455.405-2.025.27-.58.645-1.02 1.125-1.32.49-.31 1.065-.465 1.725-.465.67 0 1.26.16 1.77.48s.905.765 1.185 1.335.42 1.235.42 1.995-.14 1.43-.42 2.01c-.28.57-.675 1.02-1.185 1.35-.5.32-1.09.48-1.77.48zm-3.825-.165v-10.215h1.74v4.695h-.15v3.915h.15l-.435 1.605zm3.54-1.395c.56 0 1.015-.21 1.365-.63s.525-.97.525-1.65c0-.67-.175-1.21-.525-1.62-.35-.42-.805-.63-1.365-.63-.55 0-1.005.21-1.365.63-.35.41-.525.955-.525 1.635s.175 1.23.525 1.65c.36.41.815.615 1.365.615zm6.5018 1.47c-.29 0-.555-.065-.795-.195-.24-.14-.43-.34-.57-.6-.14-.27-.21-.61-.21-1.02v-8.475h1.71v7.86c0 .33.075.55.225.66s.325.165.525.165v1.485c-.12.04-.26.07-.42.09-.15.02-.305.03-.465.03zm4.0183-.075h-1.74v-7.32h1.74zm-1.965-9.6c0-.32.095-.58.285-.78.2-.21.47-.315.81-.315.32 0 .58.105.78.315.2.2.3.46.3.78s-.1.58-.3.78-.46.3-.78.3c-.34 0-.61-.1-.81-.3-.19-.2-.285-.46-.285-.78zm3.7985 9.6v-7.32h1.305l.36 1.335-.51.015c.27-.31.555-.575.855-.795.31-.23.64-.405.99-.525.36-.13.73-.195 1.11-.195.51 0 .915.085 1.215.255s.52.405.66.705c.15.29.245.62.285.99.05.36.075.735.075 1.125v4.41h-1.74v-4.56c0-.49-.105-.815-.315-.975-.2-.17-.445-.255-.735-.255-.4 0-.79.125-1.17.375s-.675.56-.885.93l-.135-.945h.375v5.43zm9.21 0v-4.56c0-.49-.105-.815-.315-.975-.2-.17-.44-.255-.72-.255-.41 0-.805.125-1.185.375s-.675.56-.885.93l-.33-1.485c.26-.31.54-.575.84-.795.31-.23.64-.405.99-.525.36-.13.73-.195 1.11-.195.51 0 .915.085 1.215.255s.52.405.66.705c.15.29.245.62.285.99.05.36.075.735.075 1.125v4.41zm6.5526.15c-.72 0-1.35-.155-1.89-.465-.54-.32-.965-.765-1.275-1.335-.3-.57-.45-1.235-.45-1.995 0-.77.15-1.44.45-2.01.31-.58.735-1.03 1.275-1.35s1.17-.48 1.89-.48c.73 0 1.365.165 1.905.495.55.32.975.77 1.275 1.35.3.57.45 1.23.45 1.98 0 .09-.005.18-.015.27 0 .09-.005.17-.015.24h-5.685v-1.395h4.395l-.36.795c0-.69-.16-1.255-.48-1.695s-.805-.66-1.455-.66c-.59 0-1.06.185-1.41.555-.34.36-.51.84-.51 1.44v.795c0 .62.17 1.115.51 1.485.35.36.83.54 1.44.54.55 0 .975-.115 1.275-.345.31-.23.575-.515.795-.855l1.245.75c-.33.62-.77 1.09-1.32 1.41s-1.23.48-2.04.48zm11.2171-.15v-9.12h1.74v9.12zm-3.135-8.565v-1.65h8.13v1.65zm11.2099 8.715c-.72 0-1.35-.155-1.89-.465-.54-.32-.965-.765-1.275-1.335-.3-.57-.45-1.235-.45-1.995 0-.77.15-1.44.45-2.01.31-.58.735-1.03 1.275-1.35s1.17-.48 1.89-.48c.73 0 1.365.165 1.905.495.55.32.975.77 1.275 1.35.3.57.45 1.23.45 1.98 0 .09-.005.18-.015.27 0 .09-.005.17-.015.24h-5.685v-1.395h4.395l-.36.795c0-.69-.16-1.255-.48-1.695s-.805-.66-1.455-.66c-.59 0-1.06.185-1.41.555-.34.36-.51.84-.51 1.44v.795c0 .62.17 1.115.51 1.485.35.36.83.54 1.44.54.55 0 .975-.115 1.275-.345.31-.23.575-.515.795-.855l1.245.75c-.33.62-.77 1.09-1.32 1.41s-1.23.48-2.04.48zm9.1105-.15-1.785-2.79h.54l-1.785 2.79h-2.04l2.775-4.035.015.735-2.775-4.02h2.04l1.785 2.775h-.555l1.77-2.775h2.04l-2.775 4.02.015-.735 2.775 4.035zm6.059.135c-.7 0-1.255-.19-1.665-.57-.4-.39-.6-1-.6-1.83v-4.965-.09l.33-1.695h1.41v6.6c0 .3.075.52.225.66s.345.21.585.21c.16 0 .305-.01.435-.03s.245-.045.345-.075v1.62c-.15.05-.31.09-.48.12-.16.03-.355.045-.585.045zm-3.39-5.865v-1.59h4.455v1.59z" fill="#fff"/><path d="m0 149.5h159" stroke="url(#d)" stroke-width="3"/><path d="m7.12 165.865-.015.57h-5.295v-1.65h7.035v1.395l-5.4 7.77-.15-.6h5.61v1.65h-7.215v-1.41zm4.7768 4.83v-1.65h4.155v1.65zm-.045-4.26.495-.63v8.01l-.57-.465h5.145v1.65h-6.315v-10.215h6.315v1.65zm6.9581 8.565v-10.215h3.435c1.01 0 1.9.205 2.67.615s1.37 1 1.8 1.77c.43.76.645 1.675.645 2.745 0 1.08-.22 2-.66 2.76-.43.76-1.03 1.34-1.8 1.74-.77.39-1.66.585-2.67.585zm1.74-1.155-.585-.495h2.16c.65 0 1.23-.12 1.74-.36.52-.25.93-.625 1.23-1.125.31-.51.465-1.16.465-1.95 0-.77-.15-1.41-.45-1.92-.3-.52-.71-.91-1.23-1.17-.51-.26-1.09-.39-1.74-.39h-2.28l.69-.57z" fill="#fff"/><path d="m0 215.5h65" stroke="url(#e)" stroke-width="3"/><g fill="#fff"><path d="m1.465 241 1.845-10.215h1.56l2.67 7.29 2.685-7.29h1.545l1.86 10.215h-1.8l-.78-4.755c-.11-.67-.205-1.33-.285-1.98-.08-.66-.135-1.325-.165-1.995h.465c-.18.77-.36 1.465-.54 2.085-.18.61-.385 1.235-.615 1.875l-1.695 4.62h-1.35l-1.695-4.62c-.23-.65-.435-1.28-.615-1.89s-.36-1.3-.54-2.07h.465c-.03.67-.085 1.335-.165 1.995-.07.65-.165 1.31-.285 1.98l-.78 4.755zm16.8611.165c-.75 0-1.41-.16-1.98-.48s-1.015-.765-1.335-1.335c-.31-.58-.465-1.245-.465-1.995 0-.77.155-1.44.465-2.01.32-.58.765-1.03 1.335-1.35s1.23-.48 1.98-.48 1.41.16 1.98.48 1.01.77 1.32 1.35c.32.57.48 1.24.48 2.01 0 .75-.16 1.415-.48 1.995-.31.57-.75 1.015-1.32 1.335s-1.23.48-1.98.48zm0-1.68c.6 0 1.085-.195 1.455-.585.37-.4.555-.92.555-1.56s-.185-1.155-.555-1.545c-.37-.4-.855-.6-1.455-.6s-1.085.195-1.455.585-.555.91-.555 1.56c0 .64.185 1.16.555 1.56.37.39.855.585 1.455.585zm9.3825-5.97c.52 0 .93.085 1.23.255s.525.405.675.705c.15.29.245.62.285.99.05.36.075.735.075 1.125v4.41h-1.74v-4.56c0-.49-.105-.815-.315-.975-.2-.17-.45-.255-.75-.255-.28 0-.57.06-.87.18-.29.11-.555.265-.795.465-.24.19-.435.41-.585.66l-.135-.945h.375v5.43h-1.74v-7.32h1.305l.36 1.335-.51.015c.28-.31.585-.575.915-.795.33-.23.68-.405 1.05-.525.38-.13.77-.195 1.17-.195zm6.1927 7.695c-.56 0-1.045-.1-1.455-.3-.4-.21-.71-.5-.93-.87s-.33-.81-.33-1.32c0-.5.11-.935.33-1.305.23-.37.55-.66.96-.87.41-.22.885-.33 1.425-.33.71 0 1.28.16 1.71.48.44.32.74.77.9 1.35l-.87-.06v-1.815c0-.3-.105-.57-.315-.81-.2-.24-.545-.36-1.035-.36-.28 0-.59.035-.93.105-.34.06-.69.175-1.05.345l-.525-1.29c.42-.21.86-.37 1.32-.48.47-.11.935-.165 1.395-.165.65 0 1.185.12 1.605.36.43.23.75.545.96.945s.315.86.315 1.38v4.8h-1.335l-.39-1.365.855-.255c-.17.6-.485 1.055-.945 1.365-.45.31-1.005.465-1.665.465zm.405-1.425c.4 0 .72-.095.96-.285.25-.19.375-.45.375-.78 0-.35-.125-.615-.375-.795-.24-.19-.56-.285-.96-.285s-.725.095-.975.285c-.24.18-.36.445-.36.795 0 .33.12.59.36.78.25.19.575.285.975.285z"/><path d="m412.383 212v-15.559h2.968v15.559zm-5.349-14.612v-2.815h13.87v2.815zm18.669 14.612h-2.969v-12.488h2.969zm-3.353-16.378c0-.546.163-.989.487-1.33.341-.359.801-.538 1.382-.538.545 0 .989.179 1.33.538.341.341.512.784.512 1.33s-.171.99-.512 1.331-.785.512-1.33.512c-.581 0-1.041-.171-1.382-.512-.324-.341-.487-.785-.487-1.331zm6.481 16.378v-12.488h2.226l.614 2.278-.87.025c.461-.529.947-.981 1.459-1.356.529-.392 1.092-.691 1.689-.896.614-.222 1.245-.332 1.893-.332.87 0 1.561.145 2.073.435s.887.691 1.126 1.202c.256.495.418 1.058.486 1.689.086.614.128 1.254.128 1.92v7.523h-2.968v-7.779c0-.836-.179-1.391-.538-1.664-.341-.29-.759-.435-1.253-.435-.683 0-1.348.214-1.996.64-.649.427-1.152.955-1.51 1.587l-.231-1.613h.64v9.264zm15.712 0v-7.779c0-.836-.179-1.391-.537-1.664-.342-.29-.751-.435-1.229-.435-.699 0-1.373.214-2.021.64-.649.427-1.152.955-1.51 1.587l-.563-2.534c.443-.529.921-.981 1.433-1.356.529-.392 1.092-.691 1.689-.896.614-.222 1.245-.332 1.893-.332.871 0 1.561.145 2.073.435s.887.691 1.126 1.202c.256.495.418 1.058.486 1.689.086.614.128 1.254.128 1.92v7.523zm11.179.256c-1.229 0-2.303-.265-3.225-.793-.921-.546-1.646-1.305-2.175-2.278-.511-.972-.767-2.107-.767-3.403 0-1.314.256-2.457.767-3.429.529-.99 1.254-1.758 2.175-2.304.922-.545 1.996-.818 3.225-.818 1.245 0 2.328.281 3.25.844.938.546 1.663 1.314 2.175 2.303.512.973.768 2.099.768 3.378 0 .154-.009.307-.026.461 0 .153-.009.29-.026.409h-9.698v-2.38h7.498l-.615 1.356c0-1.177-.272-2.141-.818-2.891-.546-.751-1.374-1.126-2.483-1.126-1.006 0-1.808.315-2.405.947-.58.614-.87 1.433-.87 2.456v1.357c0 1.057.29 1.902.87 2.533.597.614 1.416.921 2.457.921.938 0 1.663-.196 2.175-.588.529-.393.981-.879 1.356-1.459l2.124 1.28c-.563 1.057-1.314 1.859-2.252 2.405s-2.098.819-3.48.819zm12.417.051c-.921 0-1.809-.205-2.662-.614-.853-.41-1.586-1.1-2.2-2.073l2.021-1.535c.512.614.998 1.057 1.459 1.33s1.023.41 1.689.41c.478 0 .853-.12 1.126-.358.273-.239.409-.538.409-.896 0-.239-.068-.452-.204-.64-.137-.187-.393-.358-.768-.512-.358-.17-.879-.341-1.561-.511-1.263-.325-2.227-.768-2.892-1.331-.648-.563-.972-1.399-.972-2.508 0-.699.179-1.339.537-1.919.358-.597.879-1.066 1.561-1.408.683-.358 1.484-.537 2.406-.537 1.108 0 2.055.222 2.84.665.785.444 1.408.973 1.868 1.587l-2.073 1.638c-.29-.324-.682-.623-1.177-.896-.477-.29-1.058-.435-1.74-.435-.409 0-.776.102-1.1.307s-.487.495-.487.87c0 .358.163.657.487.896s.938.46 1.842.665c1.519.358 2.602.836 3.25 1.433s.973 1.382.973 2.354c0 .819-.214 1.536-.64 2.15-.427.597-.99 1.058-1.689 1.382-.7.324-1.467.486-2.303.486zm-57.164 22.477v-2.815h6.884v2.815zm.717 7.216h-2.969v-17.427h10.569v2.815h-8.445l.845-1.075zm13.206.358c-.956 0-1.783-.17-2.482-.512-.683-.358-1.212-.853-1.587-1.484s-.563-1.382-.563-2.252c0-.853.188-1.595.563-2.226.392-.631.938-1.126 1.638-1.484.699-.376 1.51-.563 2.431-.563 1.211 0 2.184.273 2.917.819.751.546 1.263 1.313 1.536 2.303l-1.485-.103v-3.096c0-.512-.179-.972-.537-1.382-.341-.409-.93-.614-1.766-.614-.477 0-1.006.06-1.586.179-.58.102-1.178.299-1.792.589l-.895-2.201c.716-.358 1.467-.631 2.252-.819.801-.188 1.595-.281 2.379-.281 1.109 0 2.022.204 2.739.614.733.392 1.279.93 1.637 1.612.359.682.538 1.467.538 2.354v8.189h-2.278l-.665-2.329 1.459-.435c-.291 1.024-.828 1.8-1.613 2.329-.767.529-1.714.793-2.84.793zm.691-2.431c.682 0 1.228-.162 1.638-.486.426-.324.639-.768.639-1.331 0-.597-.213-1.049-.639-1.356-.41-.324-.956-.486-1.638-.486-.683 0-1.237.162-1.664.486-.409.307-.614.759-.614 1.356 0 .563.205 1.007.614 1.331.427.324.981.486 1.664.486zm12.287 2.38c-.922 0-1.809-.205-2.662-.614-.853-.41-1.586-1.1-2.201-2.073l2.022-1.535c.512.614.998 1.057 1.459 1.33.46.273 1.023.41 1.689.41.477 0 .853-.12 1.126-.358.273-.239.409-.538.409-.896 0-.239-.068-.452-.205-.64-.136-.187-.392-.358-.767-.512-.359-.17-.879-.341-1.561-.511-1.263-.325-2.227-.768-2.892-1.331-.648-.563-.972-1.399-.972-2.508 0-.699.179-1.339.537-1.919.358-.597.879-1.066 1.561-1.408.682-.358 1.484-.537 2.405-.537 1.109 0 2.056.222 2.841.665.785.444 1.407.973 1.868 1.587l-2.073 1.638c-.29-.324-.682-.623-1.177-.896-.478-.29-1.058-.435-1.74-.435-.41 0-.776.102-1.1.307-.325.205-.487.495-.487.87 0 .358.162.657.487.896.324.239.938.46 1.842.665 1.518.358 2.602.836 3.25 1.433s.972 1.382.972 2.354c0 .819-.213 1.536-.639 2.15-.427.597-.99 1.058-1.689 1.382-.7.324-1.467.486-2.303.486zm11.987-.077c-1.194 0-2.141-.324-2.84-.972-.683-.665-1.024-1.706-1.024-3.122v-8.47-.154l.563-2.892h2.406v11.26c0 .512.128.887.383 1.126.256.239.589.358.998.358.273 0 .521-.017.743-.051.221-.034.418-.077.588-.128v2.764c-.256.085-.529.153-.819.205-.273.051-.605.076-.998.076zm-5.783-10.005v-2.713h7.6v2.713zm15.54 10.031c-1.228 0-2.303-.265-3.224-.793-.921-.546-1.646-1.305-2.175-2.278-.512-.972-.768-2.107-.768-3.403 0-1.314.256-2.457.768-3.429.529-.99 1.254-1.758 2.175-2.304.921-.545 1.996-.818 3.224-.818 1.246 0 2.329.281 3.25.844.939.546 1.664 1.314 2.175 2.303.512.973.768 2.099.768 3.378 0 .154-.008.307-.026.461 0 .153-.008.29-.025.409h-9.699v-2.38h7.498l-.614 1.356c0-1.177-.273-2.141-.819-2.891-.546-.751-1.373-1.126-2.482-1.126-1.007 0-1.808.315-2.406.947-.58.614-.87 1.433-.87 2.456v1.357c0 1.057.29 1.902.87 2.533.598.614 1.416.921 2.457.921.938 0 1.663-.196 2.175-.588.529-.393.981-.879 1.356-1.459l2.124 1.28c-.563 1.057-1.313 1.859-2.251 2.405-.939.546-2.099.819-3.481.819zm10.647-12.744.742 3.404v9.084h-2.969v-12.488zm.204 4.811-.614-.281v-2.227l.231-.307c.17-.29.443-.614.818-.972.376-.359.811-.666 1.306-.922.511-.255 1.032-.383 1.561-.383.255 0 .494.017.716.051.239.034.418.094.537.179v2.687h-.818c-1.126 0-1.971.179-2.534.537-.563.341-.964.887-1.203 1.638z"/></g></svg>