<svg fill="none" height="311" viewBox="0 0 520 311" width="520" xmlns="http://www.w3.org/2000/svg" xmlns:xlink="http://www.w3.org/1999/xlink"><linearGradient id="a"><stop offset="0" stop-color="#00c2ff"/><stop offset="1" stop-color="#007498" stop-opacity="0"/></linearGradient><linearGradient id="b" gradientUnits="userSpaceOnUse" x1="275" x2="275" xlink:href="#a" y1="78" y2="255"/><linearGradient id="c" gradientUnits="userSpaceOnUse" x1="245" x2="245" xlink:href="#a" y1="68" y2="245"/><path d="m162.07 106.81c-44.98 126.361-132.07 148.19-132.07 148.19h490c-104-105.5-127.758-200.9309-211-108-83.242 92.931-101.949-166.5511-146.93-40.19z" fill="url(#b)"/><path d="m132.07 96.81c-44.9802 126.361-132.07 148.19-132.07 148.19h490c-104-105.5-127.758-200.9309-211-108-83.242 92.931-101.949-166.5511-146.93-40.19z" fill="url(#c)"/><path d="m24.6274 296.25v3.748h1.9205c.8658 0 1.5153-.155 1.9482-.464.4391-.316.6587-.783.6587-1.401 0-.625-.2134-1.095-.6402-1.41-.4267-.316-1.0638-.473-1.9111-.473zm0 8.442h.6309c.3587 0 .6123.049.7607.148.1485.099.2227.263.2227.492 0 .247-.0649.421-.1948.52s-.3742.148-.7329.148h-3.1172c-.2103 0-.3711-.056-.4824-.167-.1114-.118-.167-.284-.167-.501 0-.229.0618-.393.1855-.492s.3278-.148.6123-.148h.3062.5381v-8.442h-.5381c-.4639 0-.7639-.044-.8999-.13-.1361-.087-.2041-.251-.2041-.492 0-.21.0525-.368.1577-.473.1113-.105.2752-.158.4917-.158h3.915c.9463 0 1.6514.046 2.1153.139.47.087.8658.238 1.1875.455.4143.278.739.646.9741 1.104.2412.458.3618.949.3618 1.475 0 .711-.2196 1.323-.6587 1.837-.4329.507-1.0391.86-1.8184 1.057.1608.093.3031.201.4268.325.1299.124.2536.272.3711.445l1.8647 2.858h.3062c.3463 0 .5845.049.7143.148.1299.093.1949.257.1949.492 0 .217-.0557.383-.167.501-.1052.111-.2629.167-.4732.167h-1.0483c-.3031 0-.5999-.223-.8906-.668-.0371-.037-.065-.068-.0835-.093l-1.7813-2.699c-.3649-.551-.6679-.907-.9092-1.067-.235-.161-.5473-.242-.937-.242h-1.2339zm9.5093 1.308h-.436c-.2227 0-.3928-.056-.5103-.167-.1113-.111-.167-.278-.167-.501 0-.247.065-.414.1949-.501.136-.093.4422-.139.9184-.139h.5938v-8.359h-.5938c-.4638 0-.7669-.046-.9092-.139-.136-.099-.2041-.275-.2041-.529 0-.229.0557-.396.167-.501.1175-.111.2938-.167.5288-.167h.4175 7.6631c.2103 0 .368.065.4731.195.1114.124.167.306.167.547v2.19c0 .321-.0463.544-.1391.668-.0928.123-.2598.185-.501.185-.2536 0-.4298-.068-.5288-.204-.0928-.136-.1392-.442-.1392-.918v-1.327h-4.9355v3.126h2.4307v-.491c0-.334.0432-.566.1298-.696.0928-.13.2505-.195.4732-.195.2165 0 .3649.071.4453.214.0866.136.1299.432.1299.89v1.726c0 .464-.0433.76-.1299.89s-.2412.195-.4639.195c-.2226 0-.3773-.074-.4638-.222-.0804-.149-.1206-.437-.1206-.863v-.325h-2.4307v4.11h4.9355v-1.503c0-.476.0464-.782.1392-.918.099-.137.2752-.205.5288-.205.235 0 .3989.065.4917.195.099.124.1484.362.1484.715v2.337c0 .223-.0556.393-.167.511-.1113.117-.269.176-.4731.176zm13.1646-1.308c.1979.018.3927.034.5844.046.198.006.3897.01.5752.01 1.5215 0 2.6348-.341 3.3399-1.021.7112-.68 1.0669-1.753 1.0669-3.219 0-1.472-.3557-2.542-1.0669-3.21-.7113-.674-1.8493-1.011-3.4141-1.011-.2907 0-.5133.003-.6679.009-.1485.006-.2876.018-.4175.037zm0 1.308h-1.4659-.4174c-.2289 0-.402-.056-.5196-.167-.1113-.111-.167-.278-.167-.501 0-.241.065-.408.1949-.501.136-.093.3896-.139.7607-.139h.167v-8.359h-.1484c-.3711 0-.6278-.049-.7701-.148-.136-.099-.2041-.273-.2041-.52 0-.229.0557-.396.167-.501.1176-.111.2969-.167.5381-.167h.3989 1.4659 2.0503c1.54 0 2.7677.498 3.6831 1.494.9153.989 1.373 2.328 1.373 4.017 0 .822-.133 1.586-.3989 2.291-.2598.705-.6401 1.324-1.1411 1.856-.4639.482-1.0298.835-1.6978 1.057-.6618.217-1.5153.325-2.5605.325-.1237 0-.334-.006-.6309-.018-.2907-.013-.5164-.019-.6772-.019zm16.4487-1.308c.4762 0 .7793.046.9092.139.136.087.2041.254.2041.501 0 .254-.0681.43-.2041.529-.1299.093-.433.139-.9092.139h-5.6313-.4361c-.2226 0-.3927-.056-.5102-.167s-.1763-.278-.1763-.501c0-.247.068-.414.2041-.501.1361-.093.4422-.139.9185-.139h2.0966v-8.359h-2.0966c-.4639 0-.767-.046-.9092-.139-.1423-.099-.2134-.275-.2134-.529 0-.229.0588-.396.1763-.501.1175-.111.2937-.167.5288-.167h.4175 5.6313.436c.2227 0 .3897.056.501.167.1175.111.1763.278.1763.501 0 .254-.0711.43-.2134.529-.1361.093-.436.139-.8999.139h-2.0967v8.359zm5.8818.983c-.0309.279-.102.47-.2133.575-.1114.112-.2876.167-.5289.167-.2597 0-.4545-.077-.5844-.231-.1237-.149-.1948-.393-.2134-.733l-.1206-2.153v-.167c0-.297.0557-.507.167-.631.1175-.123.3092-.185.5752-.185.3711 0 .637.266.7978.798.0742.266.1454.467.2134.603.2165.433.5566.767 1.0205 1.002.4701.235 1.0298.352 1.6792.352.7979 0 1.4442-.188 1.939-.566.501-.377.7514-.859.7514-1.447 0-.489-.1546-.881-.4638-1.178-.3031-.297-.7484-.489-1.336-.575l-1.373-.186c-1.2803-.179-2.2142-.516-2.8018-1.011-.5875-.495-.8813-1.191-.8813-2.088 0-.946.3896-1.741 1.1689-2.384.7855-.643 1.7627-.965 2.9317-.965.3401 0 .6989.047 1.0761.14.3773.086.8041.225 1.2803.417.0124-.179.0619-.303.1485-.371.0865-.068.235-.102.4453-.102.2721 0 .4607.04.5659.12.1051.081.1701.273.1948.576l.1299 1.939v.092c0 .217-.0619.387-.1856.511-.1236.117-.2968.176-.5195.176-.3278 0-.5814-.229-.7607-.687-.0866-.259-.1732-.454-.2598-.584-.2041-.309-.4979-.547-.8813-.714-.3835-.167-.8195-.251-1.3081-.251-.7484 0-1.3576.186-1.8277.557-.4638.371-.6958.856-.6958 1.456 0 .47.1732.841.5195 1.114.3526.272.8876.457 1.605.556l1.4844.186c1.0762.142 1.8864.473 2.4307.992.5442.514.8164 1.21.8164 2.088 0 1.039-.3866 1.874-1.1597 2.505-.7731.624-1.806.937-3.0986.937-.4453 0-.8876-.053-1.3267-.158s-.9061-.269-1.4009-.492z" fill="#78ff39"/><path d="m81.9336 299.348c0-.482.167-.878.501-1.187.3401-.31.7793-.464 1.3174-.464.5504 0 .9926.151 1.3266.454s.501.702.501 1.197-.1701.894-.5103 1.197c-.3339.303-.7731.455-1.3173.455-.5443 0-.9834-.152-1.3174-.455s-.501-.702-.501-1.197zm0 5.131c0-.483.167-.879.501-1.188.3401-.309.7793-.464 1.3174-.464.5504 0 .9926.152 1.3266.455s.501.702.501 1.197c0 .494-.1701.893-.5103 1.196-.3339.303-.7731.455-1.3173.455-.5443 0-.9834-.152-1.3174-.455s-.501-.702-.501-1.196z" fill="#fff"/><path d="m105.062 297.047v2.134h3.034v-2.134h-.149c-.334 0-.59-.086-.77-.259-.173-.174-.26-.427-.26-.761 0-.365.09-.628.27-.789.185-.161.488-.241.909-.241h2.393c.421 0 .718.08.891.241.179.161.269.424.269.789 0 .334-.087.587-.26.761-.167.173-.414.259-.742.259h-.158v6.921h.158c.334 0 .588.087.761.26.173.167.259.414.259.742 0 .365-.089.628-.269.789-.179.161-.482.241-.909.241h-2.393c-.427 0-.73-.077-.909-.232-.18-.161-.27-.427-.27-.798 0-.328.087-.575.26-.742.18-.173.436-.26.77-.26h.149v-2.737h-3.034v2.737h.148c.334 0 .588.087.761.26.18.167.269.414.269.742 0 .365-.093.628-.278.789-.179.161-.479.241-.9.241h-2.394c-.426 0-.729-.077-.909-.232-.179-.161-.269-.427-.269-.798 0-.328.087-.575.26-.742.173-.173.427-.26.761-.26h.157v-6.921h-.157c-.328 0-.579-.086-.752-.259-.167-.174-.25-.427-.25-.761 0-.365.086-.628.26-.789.179-.161.479-.241.899-.241h2.394c.414 0 .714.08.9.241.185.161.278.424.278.789 0 .334-.089.587-.269.761-.173.173-.427.259-.761.259zm15.744-1.744c.117-.222.241-.38.371-.473.136-.093.303-.139.501-.139.303 0 .516.08.64.241.13.161.195.436.195.826l.018 2.412c0 .427-.071.714-.213.863-.136.148-.39.222-.761.222-.26 0-.464-.061-.612-.185-.142-.13-.26-.359-.353-.687-.167-.593-.423-1.017-.77-1.271-.346-.253-.832-.38-1.456-.38-.953 0-1.683.322-2.19.965-.501.643-.751 1.574-.751 2.792 0 1.219.263 2.162.788 2.83.532.662 1.284.993 2.255.993.222 0 .476-.025.761-.075.284-.055.618-.139 1.001-.25v-1.466h-1.048c-.42 0-.72-.077-.9-.232-.173-.155-.26-.411-.26-.77 0-.371.087-.634.26-.789.18-.16.48-.241.9-.241h3.349c.433 0 .736.078.909.232.18.155.269.415.269.779 0 .328-.089.582-.269.761-.173.173-.426.26-.76.26h-.149v2.208.111c0 .198-.021.337-.065.418-.043.074-.13.151-.259.232-.353.21-.913.396-1.68.556-.767.161-1.543.242-2.328.242-1.621 0-2.932-.535-3.934-1.605s-1.503-2.468-1.503-4.194c0-1.663.507-3.046 1.522-4.147 1.014-1.101 2.3-1.651 3.859-1.651.433 0 .863.049 1.29.148.433.099.89.254 1.373.464zm11.253 1.652h-4.314v2.375h1.633v-.112c0-.352.077-.615.232-.788.154-.173.39-.26.705-.26.278 0 .504.08.677.241.18.155.269.353.269.594 0 .012.003.052.01.12.006.069.009.137.009.205v1.92c0 .414-.074.711-.223.891-.148.179-.39.269-.724.269-.315 0-.553-.084-.714-.251s-.241-.414-.241-.742v-.167h-1.633v2.774h4.314v-1.104c0-.414.077-.711.232-.891.161-.179.421-.269.779-.269.353 0 .603.09.752.269.154.173.232.47.232.891v2.245c0 .334-.065.557-.195.668s-.387.167-.77.167h-7.598c-.408 0-.702-.08-.882-.241-.173-.161-.259-.424-.259-.789 0-.328.083-.575.25-.742.167-.173.411-.26.733-.26h.158v-6.921h-.158c-.315 0-.56-.086-.733-.259-.167-.18-.25-.433-.25-.761 0-.359.089-.619.269-.779.179-.167.47-.251.872-.251h7.598c.377 0 .631.059.761.176.136.112.204.337.204.678v2.078c0 .42-.078.723-.232.909-.155.179-.405.269-.752.269-.358 0-.618-.093-.779-.278-.155-.186-.232-.486-.232-.9zm11.884.074h-1.939v6.921h1.559c.414 0 .711.08.891.241.179.161.269.42.269.779 0 .365-.09.628-.269.789-.18.161-.477.241-.891.241h-5.511c-.408 0-.702-.08-.881-.241s-.269-.424-.269-.789.086-.624.26-.779c.179-.161.476-.241.89-.241h1.559v-6.921h-1.939l-.056 1.883v.232c0 .297-.083.529-.25.696-.161.167-.387.25-.678.25-.346 0-.603-.086-.77-.259-.16-.18-.241-.461-.241-.845v-.074l.102-2.774c.019-.55.093-.881.223-.992.136-.112.408-.167.816-.167h7.979c.408 0 .677.055.807.167.136.111.216.442.241.992l.093 2.774v.074c0 .39-.077.671-.232.845-.155.173-.405.259-.751.259-.334 0-.576-.083-.724-.25-.142-.173-.22-.483-.232-.928zm12.952 6.939h.157c.334 0 .588.087.761.26.173.167.26.414.26.742 0 .365-.093.628-.279.789-.179.161-.479.241-.899.241h-2.793c-.427 0-.73-.077-.909-.232-.179-.161-.269-.427-.269-.798 0-.359.09-.615.269-.77.179-.154.482-.232.909-.232h.325l-.381-1.085h-4.007l-.399 1.085h.324c.421 0 .721.081.9.241.186.155.279.409.279.761 0 .365-.093.628-.279.789-.179.161-.479.241-.9.241h-2.393c-.427 0-.73-.08-.909-.241-.18-.161-.269-.424-.269-.789 0-.328.086-.575.259-.742.174-.173.427-.26.761-.26h.158l2.486-6.921h-.742c-.421 0-.724-.08-.909-.241-.18-.161-.269-.42-.269-.779 0-.365.089-.628.269-.789.185-.161.488-.241.909-.241h3.479c.55 0 .937.297 1.16.891v.028zm-4.862-6.921-1.345 3.915h2.69zm10.595 0v6.921h4.221v-1.651c0-.427.074-.73.223-.909.154-.18.408-.269.761-.269.352 0 .609.092.77.278.16.179.241.479.241.9v2.848c0 .334-.065.557-.195.668s-.39.167-.779.167h-8.415c-.402 0-.69-.08-.863-.241s-.259-.424-.259-.789c0-.359.083-.615.25-.77.173-.154.464-.232.872-.232h.816v-6.921h-.816c-.402 0-.69-.08-.863-.241s-.259-.42-.259-.779.089-.619.269-.779c.185-.167.476-.251.872-.251h3.952c.396 0 .683.084.863.251.185.16.278.42.278.779s-.09.618-.269.779c-.18.161-.47.241-.872.241zm11.411 0v6.921h4.221v-1.651c0-.427.074-.73.223-.909.155-.18.408-.269.761-.269.352 0 .609.092.77.278.16.179.241.479.241.9v2.848c0 .334-.065.557-.195.668s-.39.167-.779.167h-8.415c-.402 0-.689-.08-.863-.241-.173-.161-.259-.424-.259-.789 0-.359.083-.615.25-.77.173-.154.464-.232.872-.232h.817v-6.921h-.817c-.402 0-.689-.08-.863-.241-.173-.161-.259-.42-.259-.779s.089-.619.269-.779c.185-.167.476-.251.872-.251h3.952c.396 0 .683.084.863.251.185.16.278.42.278.779s-.09.618-.269.779-.47.241-.872.241z" fill="#1ca0ff"/><path d="m200.721 304.673c.253 0 .445.056.575.167.136.112.204.276.204.492 0 .223-.065.39-.195.501-.124.111-.306.167-.547.167h-6.068c-.253 0-.448-.056-.584-.167-.13-.111-.195-.278-.195-.501 0-.216.062-.38.186-.492.13-.111.315-.167.556-.167h1.577v-5.668h-1.521c-.254 0-.452-.059-.594-.176-.136-.118-.204-.285-.204-.501 0-.223.065-.39.195-.501.13-.112.318-.167.566-.167h1.466v-.631c0-1.12.318-1.93.955-2.431.637-.507 1.667-.761 3.09-.761.692 0 1.203.078 1.53.232.334.155.501.396.501.724 0 .192-.071.349-.213.473s-.325.186-.547.186c-.112 0-.381-.037-.808-.112-.42-.074-.782-.111-1.085-.111-.699 0-1.2.148-1.503.445-.303.291-.454.777-.454 1.457v.529h3.284c.253 0 .445.055.575.167.136.111.204.278.204.501 0 .21-.068.377-.204.501-.136.117-.322.176-.557.176h-3.21v5.668zm8.553.26c.953 0 1.732-.3 2.338-.9.613-.606.919-1.376.919-2.31s-.306-1.704-.919-2.31c-.612-.612-1.391-.918-2.338-.918-.946 0-1.725.306-2.337.918-.607.606-.91 1.376-.91 2.31 0 .94.303 1.71.91 2.31.606.6 1.385.9 2.337.9zm4.871-3.21c0 1.324-.451 2.406-1.354 3.247s-2.076 1.262-3.517 1.262c-1.434 0-2.603-.421-3.506-1.262s-1.355-1.923-1.355-3.247c0-1.323.452-2.403 1.355-3.238.903-.841 2.072-1.261 3.506-1.261 1.435 0 2.604.42 3.507 1.261.909.841 1.364 1.921 1.364 3.238zm5.631 2.969h3.08c.242 0 .418.052.529.158.118.099.177.259.177.482 0 .254-.056.43-.167.529-.106.093-.304.139-.594.139h-6.068c-.241 0-.423-.056-.547-.167s-.186-.278-.186-.501c0-.216.062-.377.186-.482.13-.106.328-.158.594-.158h1.614v-5.947h-.631c-.6 0-.974-.046-1.122-.139-.149-.099-.223-.275-.223-.529 0-.216.059-.377.176-.482.124-.112.309-.167.557-.167h2.115c.167 0 .294.034.38.102.087.062.13.154.13.278v1.577c.588-.736 1.2-1.283 1.837-1.642s1.324-.538 2.06-.538c.55 0 .996.111 1.336.334s.51.51.51.863c0 .229-.087.433-.26.612-.167.173-.352.26-.556.26-.143 0-.384-.093-.724-.278-.334-.192-.634-.288-.9-.288-.482 0-.993.173-1.531.52-.532.34-1.122.881-1.772 1.623zm15.763-3.859c0-.873-.081-1.46-.242-1.763-.154-.309-.423-.464-.807-.464-.457 0-.822.198-1.094.594-.266.396-.399.94-.399 1.633v3.859h.167c.377 0 .627.046.751.139.13.087.195.254.195.501 0 .223-.053.39-.158.501s-.266.167-.482.167h-1.178c-.266 0-.449-.062-.548-.186-.093-.123-.139-.389-.139-.797v-.269-3.915-.724c0-.464-.105-.829-.315-1.095-.211-.272-.498-.408-.863-.408-.279 0-.535.083-.77.25-.229.161-.427.402-.594.724v5.112h.343c.371 0 .622.046.752.139s.195.26.195.501c0 .254-.053.43-.158.529-.105.093-.306.139-.603.139h-2.468c-.241 0-.421-.053-.538-.158-.111-.111-.167-.281-.167-.51 0-.247.071-.414.213-.501.149-.093.433-.139.854-.139h.185v-5.947h-.167c-.433 0-.729-.049-.89-.148-.155-.099-.232-.272-.232-.52 0-.216.062-.377.185-.482.124-.112.31-.167.557-.167h1.419c.205 0 .338.037.399.111.068.068.109.217.121.445.254-.272.526-.473.816-.603.291-.13.619-.194.984-.194.433 0 .788.095 1.067.287.284.186.494.47.631.854.259-.39.559-.678.899-.863.341-.186.73-.278 1.169-.278.798 0 1.38.259 1.745.779.371.519.556 1.36.556 2.523v4.203h.149c.383 0 .64.046.77.139s.194.26.194.501c0 .223-.055.39-.167.501-.111.111-.275.167-.491.167h-1.123c-.247 0-.43-.074-.547-.223-.118-.148-.176-.383-.176-.705zm10.028 1.066c-.34-.111-.671-.191-.992-.241-.316-.055-.631-.083-.947-.083-.952 0-1.704.161-2.254.482-.55.322-.826.755-.826 1.299 0 .421.17.767.511 1.039.346.272.785.408 1.317.408.785 0 1.512-.204 2.18-.612.674-.414 1.011-.844 1.011-1.29zm.075 2.923c-.508.457-1.061.807-1.661 1.048-.594.241-1.206.362-1.837.362-.922 0-1.667-.257-2.236-.77-.563-.513-.844-1.181-.844-2.004 0-.977.374-1.735 1.123-2.273.754-.538 1.812-.807 3.172-.807.359 0 .721.025 1.086.074.365.043.739.115 1.122.214v-.065c0-.712-.17-1.237-.51-1.578-.34-.34-.869-.51-1.586-.51-.483 0-1.021.13-1.615.39-.593.26-.986.389-1.178.389-.179 0-.328-.071-.445-.213-.118-.148-.176-.337-.176-.566 0-.365.34-.674 1.02-.928.687-.253 1.562-.38 2.626-.38 1.088 0 1.911.278 2.467.835.557.55.835 1.367.835 2.449v4.203h.455c.439 0 .733.046.881.139.149.093.223.26.223.501 0 .223-.062.39-.186.501-.123.111-.309.167-.556.167h-1.457c-.173 0-.315-.053-.427-.158-.111-.105-.185-.256-.222-.454zm11.81-6.875c.303 0 .522.053.658.158.143.105.214.272.214.501 0 .216-.065.38-.195.492-.13.105-.325.157-.585.157h-3.757v3.099c0 1.014.13 1.682.39 2.004.266.322.717.482 1.354.482.563 0 1.237-.164 2.023-.491.785-.328 1.271-.492 1.456-.492.173 0 .319.062.436.185.124.124.186.276.186.455 0 .204-.077.384-.232.538-.149.149-.405.294-.77.436-.606.241-1.154.418-1.642.529-.483.111-.937.167-1.364.167-.724 0-1.333-.114-1.828-.343-.488-.235-.853-.582-1.094-1.039-.124-.217-.214-.473-.269-.77-.05-.297-.075-.755-.075-1.373v-.288-3.099h-1.577c-.26 0-.448-.049-.566-.148-.117-.105-.176-.272-.176-.501 0-.254.08-.427.241-.52.161-.092.504-.139 1.03-.139h1.048v-1.902-.491c0-.266.056-.461.167-.585.118-.13.297-.195.538-.195.273 0 .461.078.566.232.106.155.158.508.158 1.058v1.883zm8.025-3.191c0-.668.058-1.089.176-1.262.124-.173.383-.26.779-.26.384 0 .637.075.761.223.124.142.185.486.185 1.03 0 .532-.058.863-.176.992-.111.124-.368.186-.77.186-.396 0-.655-.059-.779-.176-.118-.118-.176-.362-.176-.733zm1.716 9.936h2.978c.241 0 .417.052.529.158.117.099.176.259.176.482 0 .254-.056.43-.167.529-.105.093-.303.139-.594.139h-7.199c-.247 0-.433-.056-.557-.167-.123-.111-.185-.278-.185-.501 0-.216.065-.377.195-.482.13-.106.324-.158.584-.158h2.83v-5.947h-1.809c-.254 0-.449-.056-.585-.167-.13-.117-.195-.284-.195-.501 0-.216.062-.377.186-.482.124-.112.309-.167.557-.167h2.718c.167 0 .297.034.389.102.099.068.149.161.149.278zm10.548.241c.953 0 1.732-.3 2.338-.9.612-.606.919-1.376.919-2.31s-.307-1.704-.919-2.31c-.612-.612-1.391-.918-2.338-.918-.946 0-1.725.306-2.338.918-.606.606-.909 1.376-.909 2.31 0 .94.303 1.71.909 2.31s1.386.9 2.338.9zm4.871-3.21c0 1.324-.452 2.406-1.355 3.247s-2.075 1.262-3.516 1.262c-1.435 0-2.604-.421-3.507-1.262s-1.354-1.923-1.354-3.247c0-1.323.451-2.403 1.354-3.238.903-.841 2.072-1.261 3.507-1.261s2.604.42 3.507 1.261c.909.841 1.364 1.921 1.364 3.238zm3.089 2.969v-5.947h-.176c-.421 0-.711-.049-.872-.148-.155-.099-.232-.272-.232-.52 0-.229.065-.393.195-.492.13-.105.34-.157.631-.157h.436.89c.167 0 .297.034.39.102s.139.161.139.278v.631c.452-.421.897-.73 1.336-.928.445-.204.906-.306 1.382-.306.934 0 1.667.291 2.199.872.538.582.807 1.386.807 2.412v4.203h.436c.309 0 .532.052.668.158.136.099.204.259.204.482 0 .241-.074.414-.222.52-.143.099-.399.148-.77.148h-2.051c-.396 0-.649-.046-.76-.139-.112-.093-.167-.269-.167-.529 0-.241.065-.408.194-.501.13-.093.375-.139.733-.139h.325v-3.859c0-.724-.164-1.275-.492-1.652-.327-.383-.804-.575-1.428-.575-.631 0-1.188.213-1.67.64-.483.427-.724.956-.724 1.587v3.859h.325c.371 0 .621.046.751.139s.195.26.195.501c0 .26-.056.436-.167.529s-.383.139-.816.139h-1.689-.501c-.253 0-.445-.053-.575-.158-.124-.111-.186-.281-.186-.51 0-.247.072-.414.214-.501.148-.093.433-.139.853-.139zm13.044-5.344c0-.482.167-.878.501-1.187.34-.31.779-.464 1.317-.464.551 0 .993.151 1.327.454s.501.702.501 1.197-.17.894-.51 1.197c-.334.303-.773.455-1.318.455-.544 0-.983-.152-1.317-.455s-.501-.702-.501-1.197zm0 5.131c0-.483.167-.879.501-1.188.34-.309.779-.464 1.317-.464.551 0 .993.152 1.327.455s.501.702.501 1.197c0 .494-.17.893-.51 1.196-.334.303-.773.455-1.318.455-.544 0-.983-.152-1.317-.455s-.501-.702-.501-1.196zm10.001 1.521c-.328 0-.572-.065-.733-.195-.154-.136-.232-.343-.232-.621 0-.402.594-1.157 1.781-2.264l.27-.26c.179-.173.439-.42.779-.742 2.14-2.016 3.21-3.485 3.21-4.407 0-.662-.189-1.197-.566-1.605-.377-.414-.866-.621-1.466-.621-.39 0-.764.08-1.122.241-.353.161-.638.377-.854.649-.037.05-.096.133-.176.251-.229.414-.486.621-.77.621-.223 0-.381-.068-.473-.204-.093-.136-.14-.396-.14-.779 0-.223.022-.383.065-.482.044-.106.124-.217.242-.334.395-.384.884-.687 1.465-.91.588-.228 1.188-.343 1.8-.343 1.027 0 1.883.331 2.57.993.693.662 1.039 1.475 1.039 2.44 0 1.212-1.051 2.823-3.154 4.833-.538.501-.95.894-1.234 1.178l-1.141 1.095h4.24c.024-.266.095-.467.213-.603.124-.142.287-.213.492-.213.204 0 .364.068.482.204s.176.321.176.557c0 .018-.003.052-.009.102-.006.043-.009.074-.009.092l-.074.715c-.019.191-.075.343-.167.454-.093.105-.214.158-.362.158zm14.64-10.678c-.712 0-1.265.42-1.661 1.261-.396.842-.594 2.029-.594 3.563 0 1.54.198 2.734.594 3.581.396.841.949 1.262 1.661 1.262.717 0 1.274-.421 1.67-1.262.395-.847.593-2.041.593-3.581 0-1.534-.198-2.721-.593-3.563-.396-.841-.953-1.261-1.67-1.261zm0 10.984c-1.163 0-2.088-.547-2.774-1.642-.681-1.101-1.021-2.607-1.021-4.518 0-1.905.34-3.405 1.021-4.5.686-1.1 1.611-1.651 2.774-1.651s2.087.551 2.774 1.651c.686 1.101 1.029 2.601 1.029 4.5s-.343 3.402-1.029 4.509c-.687 1.101-1.611 1.651-2.774 1.651zm8.182-.306c-.327 0-.572-.065-.733-.195-.154-.136-.231-.343-.231-.621 0-.402.593-1.157 1.781-2.264l.269-.26c.179-.173.439-.42.779-.742 2.14-2.016 3.21-3.485 3.21-4.407 0-.662-.189-1.197-.566-1.605-.377-.414-.866-.621-1.466-.621-.389 0-.764.08-1.122.241-.353.161-.637.377-.854.649-.037.05-.096.133-.176.251-.229.414-.486.621-.77.621-.223 0-.38-.068-.473-.204s-.139-.396-.139-.779c0-.223.021-.383.065-.482.043-.106.123-.217.241-.334.396-.384.884-.687 1.466-.91.587-.228 1.187-.343 1.799-.343 1.027 0 1.884.331 2.57.993.693.662 1.039 1.475 1.039 2.44 0 1.212-1.051 2.823-3.154 4.833-.538.501-.949.894-1.234 1.178l-1.141 1.095h4.24c.025-.266.096-.467.213-.603.124-.142.288-.213.492-.213s.365.068.482.204c.118.136.177.321.177.557 0 .018-.004.052-.01.102-.006.043-.009.074-.009.092l-.074.715c-.019.191-.074.343-.167.454-.093.105-.214.158-.362.158zm15.419-4.277v-6.29l-3.516 6.29zm-1.002 4.277c-.297 0-.498-.046-.603-.139-.105-.099-.157-.275-.157-.529 0-.223.052-.383.157-.482.112-.106.288-.158.529-.158h1.076v-1.559h-4.332c-.155 0-.275-.049-.362-.148s-.13-.241-.13-.427v-.64c0-.247.09-.507.269-.779.031-.05.056-.09.074-.121l3.915-6.643c.087-.154.158-.253.214-.296.055-.044.13-.065.222-.065.038 0 .102.006.195.018.025.006.05.013.074.019l.947.148c.086.013.154.062.204.149.056.08.083.188.083.324v7.051h.473c.137 0 .242-.052.316-.158.074-.111.158-.167.25-.167.124 0 .229.047.316.14.086.092.13.207.13.343 0 .056-.003.108-.01.158-.006.043-.018.089-.037.139l-.074.38c-.043.223-.108.374-.195.455-.08.08-.21.12-.389.12h-.78v1.559h.325c.396 0 .668.049.816.148.149.093.223.257.223.492 0 .223-.062.39-.185.501-.124.111-.31.167-.557.167zm7.765-3.386c-.123 0-.222-.037-.296-.112-.068-.08-.102-.188-.102-.324v-.984c0-.117.034-.21.102-.278.074-.068.173-.102.296-.102h7.691c.143 0 .254.034.334.102.081.068.121.161.121.278v.984c0 .111-.046.213-.139.306-.093.086-.198.13-.316.13zm15.28-7.292c-.711 0-1.265.42-1.66 1.261-.396.842-.594 2.029-.594 3.563 0 1.54.198 2.734.594 3.581.395.841.949 1.262 1.66 1.262.718 0 1.274-.421 1.67-1.262.396-.847.594-2.041.594-3.581 0-1.534-.198-2.721-.594-3.563-.396-.841-.952-1.261-1.67-1.261zm0 10.984c-1.162 0-2.087-.547-2.774-1.642-.68-1.101-1.02-2.607-1.02-4.518 0-1.905.34-3.405 1.02-4.5.687-1.1 1.612-1.651 2.774-1.651 1.163 0 2.088.551 2.774 1.651.687 1.101 1.03 2.601 1.03 4.5s-.343 3.402-1.03 4.509c-.686 1.101-1.611 1.651-2.774 1.651zm9.417-3.915c0 .761.201 1.382.603 1.865.402.476.918.714 1.549.714.594 0 1.079-.226 1.457-.677.383-.452.575-1.042.575-1.772 0-.755-.198-1.367-.594-1.837-.39-.47-.894-.705-1.512-.705-.6 0-1.098.226-1.494.677-.389.452-.584 1.03-.584 1.735zm-.204-2.468c.334-.433.705-.757 1.113-.974.408-.216.853-.324 1.336-.324.977 0 1.806.368 2.486 1.104.687.736 1.03 1.642 1.03 2.718 0 1.125-.331 2.05-.993 2.774-.661.723-1.509 1.085-2.542 1.085-1.218 0-2.195-.482-2.931-1.447-.73-.971-1.095-2.264-1.095-3.878 0-2.103.541-3.791 1.624-5.065 1.082-1.281 2.511-1.921 4.286-1.921.6 0 .995.043 1.187.13s.288.25.288.492c0 .396-.365.6-1.095.612-.482.006-.869.037-1.16.093-.977.185-1.772.677-2.384 1.475-.606.792-.99 1.834-1.15 3.126z" fill="#a7a7a7"/></svg>