<svg width="1115" height="1159" viewBox="0 0 1115 1159" fill="none" xmlns="http://www.w3.org/2000/svg">
<rect y="56" width="120" height="331" fill="#EBEBEB"/>
<rect x="842" y="56" width="120" height="331" fill="#EBEBEB"/>
<rect x="133" y="156" width="100" height="696" transform="rotate(-90 133 156)" fill="#EBEBEB"/>
<rect x="133" y="387" width="221" height="696" transform="rotate(-90 133 387)" fill="#EBEBEB"/>
<line y1="530" x2="962" y2="530" stroke="black" stroke-width="2"/>
<line x1="133" y1="430" x2="829" y2="430" stroke="black" stroke-width="2"/>
<line x1="1000" y1="56" x2="1000" y2="387" stroke="black" stroke-width="2"/>
<line x1="-1.49473e-08" y1="430" x2="119" y2="430" stroke="black" stroke-width="2"/>
<path d="M437.937 489C437.937 487.908 438.028 486.907 438.21 485.997C438.392 485.061 438.704 484.177 439.146 483.345C439.614 482.513 440.251 481.733 441.057 481.005C441.889 480.251 442.942 479.536 444.216 478.86C445.126 478.34 445.984 477.885 446.79 477.495C447.596 477.079 448.311 476.676 448.935 476.286C449.559 475.87 450.04 475.428 450.378 474.96C450.742 474.492 450.924 473.959 450.924 473.361C450.924 472.789 450.768 472.256 450.456 471.762C450.144 471.268 449.676 470.878 449.052 470.592C448.428 470.28 447.674 470.124 446.79 470.124C446.088 470.124 445.438 470.215 444.84 470.397C444.268 470.579 443.735 470.826 443.241 471.138C442.773 471.424 442.344 471.749 441.954 472.113C441.564 472.451 441.226 472.789 440.94 473.127L438.249 470.046C438.509 469.734 438.912 469.383 439.458 468.993C440.03 468.577 440.706 468.174 441.486 467.784C442.292 467.368 443.202 467.03 444.216 466.77C445.23 466.484 446.335 466.341 447.531 466.341C449.221 466.341 450.664 466.627 451.86 467.199C453.056 467.745 453.966 468.512 454.59 469.5C455.24 470.462 455.565 471.554 455.565 472.776C455.565 473.738 455.37 474.583 454.98 475.311C454.616 476.039 454.135 476.689 453.537 477.261C452.939 477.807 452.302 478.288 451.626 478.704C450.976 479.094 450.365 479.445 449.793 479.757C448.779 480.251 447.895 480.706 447.141 481.122C446.413 481.538 445.789 481.954 445.269 482.37C444.749 482.76 444.32 483.176 443.982 483.618C443.644 484.034 443.358 484.541 443.124 485.139H455.994V489H437.937ZM468 494.811C465.998 494.811 464.204 494.356 462.618 493.446C461.032 492.562 459.823 491.353 458.991 489.819L461.565 487.362C462.293 488.48 463.229 489.364 464.373 490.014C465.517 490.69 466.739 491.028 468.039 491.028C469.105 491.028 470.054 490.794 470.886 490.326C471.718 489.884 472.368 489.26 472.836 488.454C473.33 487.622 473.577 486.673 473.577 485.607C473.577 484.567 473.343 483.657 472.875 482.877C472.407 482.071 471.783 481.46 471.003 481.044C470.223 480.602 469.326 480.381 468.312 480.381C467.324 480.381 466.401 480.602 465.543 481.044C464.685 481.486 463.983 482.11 463.437 482.916H459.654L462.813 466.731H476.346V470.67H465.933L464.529 478.236C464.971 477.768 465.569 477.391 466.323 477.105C467.077 476.793 467.935 476.637 468.897 476.637C470.639 476.637 472.186 477.027 473.538 477.807C474.916 478.561 475.995 479.601 476.775 480.927C477.581 482.253 477.984 483.787 477.984 485.529C477.984 487.375 477.542 488.987 476.658 490.365C475.774 491.769 474.578 492.861 473.07 493.641C471.562 494.421 469.872 494.811 468 494.811ZM493.653 479.796C494.745 479.978 495.694 480.394 496.5 481.044C497.332 481.668 497.969 482.474 498.411 483.462C498.853 484.424 499.074 485.516 499.074 486.738C499.074 488.35 498.671 489.754 497.865 490.95C497.085 492.146 495.967 493.069 494.511 493.719C493.055 494.395 491.339 494.733 489.363 494.733C487.387 494.733 485.645 494.382 484.137 493.68C482.629 493.004 481.42 492.016 480.51 490.716L483.123 487.752C483.747 488.688 484.553 489.429 485.541 489.975C486.529 490.547 487.777 490.833 489.285 490.833C490.975 490.833 492.288 490.469 493.224 489.741C494.16 489.013 494.628 487.921 494.628 486.465C494.628 484.957 494.108 483.774 493.068 482.916C492.054 482.058 490.52 481.629 488.466 481.629H487.413V478.275H488.583C490.325 478.275 491.664 477.872 492.6 477.066C493.536 476.234 494.004 475.194 494.004 473.946C494.004 473.114 493.809 472.438 493.419 471.918C493.055 471.372 492.535 470.969 491.859 470.709C491.183 470.449 490.403 470.319 489.519 470.319C488.193 470.319 487.023 470.605 486.009 471.177C484.995 471.749 484.189 472.568 483.591 473.634L480.9 470.709C481.42 469.877 482.135 469.149 483.045 468.525C483.955 467.901 484.995 467.42 486.165 467.082C487.361 466.718 488.622 466.536 489.948 466.536C491.664 466.536 493.172 466.822 494.472 467.394C495.772 467.966 496.773 468.772 497.475 469.812C498.203 470.852 498.567 472.074 498.567 473.478C498.567 474.492 498.372 475.454 497.982 476.364C497.592 477.248 497.02 478.002 496.266 478.626C495.512 479.224 494.641 479.614 493.653 479.796ZM522.624 477.573C522.624 479.861 522.182 481.902 521.298 483.696C520.44 485.464 519.257 486.855 517.749 487.869C516.267 488.883 514.564 489.39 512.64 489.39C510.742 489.39 509.039 488.883 507.531 487.869C506.023 486.855 504.827 485.464 503.943 483.696C503.085 481.902 502.656 479.861 502.656 477.573C502.656 475.285 503.085 473.257 503.943 471.489C504.827 469.695 506.023 468.291 507.531 467.277C509.039 466.237 510.742 465.717 512.64 465.717C514.564 465.717 516.267 466.237 517.749 467.277C519.257 468.291 520.44 469.695 521.298 471.489C522.182 473.257 522.624 475.285 522.624 477.573ZM518.256 477.573C518.256 476.013 518.022 474.648 517.554 473.478C517.086 472.282 516.423 471.359 515.565 470.709C514.707 470.033 513.732 469.695 512.64 469.695C511.522 469.695 510.534 470.033 509.676 470.709C508.818 471.359 508.142 472.282 507.648 473.478C507.18 474.648 506.946 476.013 506.946 477.573C506.946 479.133 507.18 480.498 507.648 481.668C508.142 482.838 508.818 483.761 509.676 484.437C510.534 485.087 511.522 485.412 512.64 485.412C513.732 485.412 514.694 485.087 515.526 484.437C516.384 483.761 517.047 482.838 517.515 481.668C518.009 480.498 518.256 479.133 518.256 477.573Z" fill="black"/>
<path d="M436.657 596C436.657 594.908 436.748 593.907 436.93 592.997C437.112 592.061 437.424 591.177 437.866 590.345C438.334 589.513 438.971 588.733 439.777 588.005C440.609 587.251 441.662 586.536 442.936 585.86C443.846 585.34 444.704 584.885 445.51 584.495C446.316 584.079 447.031 583.676 447.655 583.286C448.279 582.87 448.76 582.428 449.098 581.96C449.462 581.492 449.644 580.959 449.644 580.361C449.644 579.789 449.488 579.256 449.176 578.762C448.864 578.268 448.396 577.878 447.772 577.592C447.148 577.28 446.394 577.124 445.51 577.124C444.808 577.124 444.158 577.215 443.56 577.397C442.988 577.579 442.455 577.826 441.961 578.138C441.493 578.424 441.064 578.749 440.674 579.113C440.284 579.451 439.946 579.789 439.66 580.127L436.969 577.046C437.229 576.734 437.632 576.383 438.178 575.993C438.75 575.577 439.426 575.174 440.206 574.784C441.012 574.368 441.922 574.03 442.936 573.77C443.95 573.484 445.055 573.341 446.251 573.341C447.941 573.341 449.384 573.627 450.58 574.199C451.776 574.745 452.686 575.512 453.31 576.5C453.96 577.462 454.285 578.554 454.285 579.776C454.285 580.738 454.09 581.583 453.7 582.311C453.336 583.039 452.855 583.689 452.257 584.261C451.659 584.807 451.022 585.288 450.346 585.704C449.696 586.094 449.085 586.445 448.513 586.757C447.499 587.251 446.615 587.706 445.861 588.122C445.133 588.538 444.509 588.954 443.989 589.37C443.469 589.76 443.04 590.176 442.702 590.618C442.364 591.034 442.078 591.541 441.844 592.139H454.714V596H436.657ZM457.827 583.325C457.827 581.557 458.269 579.945 459.153 578.489C460.037 577.033 461.233 575.876 462.741 575.018C464.275 574.16 465.978 573.731 467.85 573.731C469.878 573.731 471.646 574.225 473.154 575.213C474.662 576.175 475.832 577.579 476.664 579.425C477.522 581.245 477.951 583.442 477.951 586.016C477.951 589.552 477.509 592.503 476.625 594.869C475.767 597.235 474.545 599.016 472.959 600.212C471.373 601.408 469.514 602.006 467.382 602.006C465.64 602.006 464.028 601.59 462.546 600.758C461.064 599.952 459.868 598.821 458.958 597.365L461.493 594.713C462.091 595.779 462.923 596.637 463.989 597.287C465.055 597.937 466.212 598.262 467.46 598.262C468.76 598.262 469.891 597.885 470.853 597.131C471.815 596.403 472.556 595.337 473.076 593.933C473.622 592.529 473.908 590.826 473.934 588.824C473.57 589.578 473.063 590.241 472.413 590.813C471.763 591.385 471.009 591.827 470.151 592.139C469.319 592.451 468.409 592.607 467.421 592.607C465.627 592.607 464.002 592.191 462.546 591.359C461.09 590.527 459.933 589.422 459.075 588.044C458.243 586.64 457.827 585.067 457.827 583.325ZM467.811 577.397C466.745 577.397 465.757 577.67 464.847 578.216C463.963 578.736 463.248 579.451 462.702 580.361C462.182 581.245 461.922 582.233 461.922 583.325C461.922 584.391 462.182 585.366 462.702 586.25C463.248 587.134 463.963 587.849 464.847 588.395C465.757 588.915 466.745 589.175 467.811 589.175C468.903 589.175 469.891 588.915 470.775 588.395C471.659 587.849 472.361 587.134 472.881 586.25C473.427 585.366 473.7 584.391 473.7 583.325C473.7 582.259 473.427 581.271 472.881 580.361C472.335 579.451 471.62 578.736 470.736 578.216C469.852 577.67 468.877 577.397 467.811 577.397ZM489.685 601.811C487.683 601.811 485.889 601.356 484.303 600.446C482.717 599.562 481.508 598.353 480.676 596.819L483.25 594.362C483.978 595.48 484.914 596.364 486.058 597.014C487.202 597.69 488.424 598.028 489.724 598.028C490.79 598.028 491.739 597.794 492.571 597.326C493.403 596.884 494.053 596.26 494.521 595.454C495.015 594.622 495.262 593.673 495.262 592.607C495.262 591.567 495.028 590.657 494.56 589.877C494.092 589.071 493.468 588.46 492.688 588.044C491.908 587.602 491.011 587.381 489.997 587.381C489.009 587.381 488.086 587.602 487.228 588.044C486.37 588.486 485.668 589.11 485.122 589.916H481.339L484.498 573.731H498.031V577.67H487.618L486.214 585.236C486.656 584.768 487.254 584.391 488.008 584.105C488.762 583.793 489.62 583.637 490.582 583.637C492.324 583.637 493.871 584.027 495.223 584.807C496.601 585.561 497.68 586.601 498.46 587.927C499.266 589.253 499.669 590.787 499.669 592.529C499.669 594.375 499.227 595.987 498.343 597.365C497.459 598.769 496.263 599.861 494.755 600.641C493.247 601.421 491.557 601.811 489.685 601.811ZM522.904 584.573C522.904 586.861 522.462 588.902 521.578 590.696C520.72 592.464 519.537 593.855 518.029 594.869C516.547 595.883 514.844 596.39 512.92 596.39C511.022 596.39 509.319 595.883 507.811 594.869C506.303 593.855 505.107 592.464 504.223 590.696C503.365 588.902 502.936 586.861 502.936 584.573C502.936 582.285 503.365 580.257 504.223 578.489C505.107 576.695 506.303 575.291 507.811 574.277C509.319 573.237 511.022 572.717 512.92 572.717C514.844 572.717 516.547 573.237 518.029 574.277C519.537 575.291 520.72 576.695 521.578 578.489C522.462 580.257 522.904 582.285 522.904 584.573ZM518.536 584.573C518.536 583.013 518.302 581.648 517.834 580.478C517.366 579.282 516.703 578.359 515.845 577.709C514.987 577.033 514.012 576.695 512.92 576.695C511.802 576.695 510.814 577.033 509.956 577.709C509.098 578.359 508.422 579.282 507.928 580.478C507.46 581.648 507.226 583.013 507.226 584.573C507.226 586.133 507.46 587.498 507.928 588.668C508.422 589.838 509.098 590.761 509.956 591.437C510.814 592.087 511.802 592.412 512.92 592.412C514.012 592.412 514.974 592.087 515.806 591.437C516.664 590.761 517.327 589.838 517.795 588.668C518.289 587.498 518.536 586.133 518.536 584.573Z" fill="black"/>
<path d="M1065.93 214.005C1065.93 215.669 1065.48 217.125 1064.57 218.373C1063.68 219.621 1062.48 220.596 1060.94 221.298C1059.43 221.974 1057.78 222.312 1055.99 222.312C1054.14 222.312 1052.48 221.948 1051 221.22C1049.51 220.466 1048.33 219.452 1047.45 218.178C1046.56 216.904 1046.12 215.448 1046.12 213.81C1046.12 212.718 1046.37 211.743 1046.86 210.885C1047.36 210.001 1047.97 209.247 1048.7 208.623C1049.42 207.999 1050.16 207.518 1050.92 207.18C1050.22 206.842 1049.57 206.413 1048.97 205.893C1048.4 205.347 1047.93 204.723 1047.56 204.021C1047.23 203.319 1047.06 202.565 1047.06 201.759C1047.06 200.563 1047.32 199.51 1047.84 198.6C1048.38 197.664 1049.1 196.884 1049.98 196.26C1050.87 195.61 1051.83 195.129 1052.87 194.817C1053.93 194.479 1054.99 194.31 1056.03 194.31C1057.09 194.31 1058.15 194.479 1059.19 194.817C1060.25 195.129 1061.23 195.597 1062.11 196.221C1063.02 196.845 1063.74 197.625 1064.26 198.561C1064.8 199.471 1065.08 200.524 1065.08 201.72C1065.08 202.526 1064.89 203.293 1064.53 204.021C1064.19 204.723 1063.71 205.347 1063.09 205.893C1062.49 206.439 1061.84 206.868 1061.14 207.18C1061.97 207.544 1062.75 208.051 1063.48 208.701C1064.23 209.351 1064.83 210.118 1065.27 211.002C1065.71 211.886 1065.93 212.887 1065.93 214.005ZM1061.6 213.732C1061.6 212.978 1061.44 212.302 1061.1 211.704C1060.79 211.106 1060.36 210.612 1059.81 210.222C1059.26 209.806 1058.67 209.494 1058.02 209.286C1057.37 209.078 1056.7 208.974 1056.03 208.974C1055.07 208.974 1054.17 209.169 1053.34 209.559C1052.5 209.949 1051.83 210.508 1051.31 211.236C1050.79 211.938 1050.53 212.77 1050.53 213.732C1050.53 214.46 1050.68 215.123 1051 215.721C1051.31 216.293 1051.72 216.787 1052.24 217.203C1052.79 217.619 1053.39 217.931 1054.04 218.139C1054.71 218.347 1055.39 218.451 1056.07 218.451C1057 218.451 1057.89 218.256 1058.72 217.866C1059.58 217.45 1060.27 216.891 1060.79 216.189C1061.33 215.461 1061.6 214.642 1061.6 213.732ZM1051.39 201.915C1051.39 202.721 1051.62 203.41 1052.09 203.982C1052.56 204.554 1053.15 204.983 1053.88 205.269C1054.61 205.555 1055.33 205.698 1056.03 205.698C1056.76 205.698 1057.47 205.555 1058.17 205.269C1058.9 204.957 1059.5 204.515 1059.97 203.943C1060.46 203.371 1060.71 202.669 1060.71 201.837C1060.71 201.083 1060.49 200.433 1060.04 199.887C1059.6 199.315 1059.02 198.886 1058.29 198.6C1057.59 198.288 1056.83 198.132 1056.03 198.132C1055.22 198.132 1054.45 198.288 1053.73 198.6C1053.02 198.912 1052.45 199.354 1052.01 199.926C1051.59 200.472 1051.39 201.135 1051.39 201.915ZM1069.08 209.325C1069.08 207.557 1069.52 205.945 1070.4 204.489C1071.29 203.033 1072.48 201.876 1073.99 201.018C1075.52 200.16 1077.23 199.731 1079.1 199.731C1081.13 199.731 1082.9 200.225 1084.4 201.213C1085.91 202.175 1087.08 203.579 1087.91 205.425C1088.77 207.245 1089.2 209.442 1089.2 212.016C1089.2 215.552 1088.76 218.503 1087.87 220.869C1087.02 223.235 1085.79 225.016 1084.21 226.212C1082.62 227.408 1080.76 228.006 1078.63 228.006C1076.89 228.006 1075.28 227.59 1073.8 226.758C1072.31 225.952 1071.12 224.821 1070.21 223.365L1072.74 220.713C1073.34 221.779 1074.17 222.637 1075.24 223.287C1076.3 223.937 1077.46 224.262 1078.71 224.262C1080.01 224.262 1081.14 223.885 1082.1 223.131C1083.06 222.403 1083.81 221.337 1084.33 219.933C1084.87 218.529 1085.16 216.826 1085.18 214.824C1084.82 215.578 1084.31 216.241 1083.66 216.813C1083.01 217.385 1082.26 217.827 1081.4 218.139C1080.57 218.451 1079.66 218.607 1078.67 218.607C1076.88 218.607 1075.25 218.191 1073.8 217.359C1072.34 216.527 1071.18 215.422 1070.32 214.044C1069.49 212.64 1069.08 211.067 1069.08 209.325ZM1079.06 203.397C1077.99 203.397 1077.01 203.67 1076.1 204.216C1075.21 204.736 1074.5 205.451 1073.95 206.361C1073.43 207.245 1073.17 208.233 1073.17 209.325C1073.17 210.391 1073.43 211.366 1073.95 212.25C1074.5 213.134 1075.21 213.849 1076.1 214.395C1077.01 214.915 1077.99 215.175 1079.06 215.175C1080.15 215.175 1081.14 214.915 1082.02 214.395C1082.91 213.849 1083.61 213.134 1084.13 212.25C1084.68 211.366 1084.95 210.391 1084.95 209.325C1084.95 208.259 1084.68 207.271 1084.13 206.361C1083.58 205.451 1082.87 204.736 1081.99 204.216C1081.1 203.67 1080.13 203.397 1079.06 203.397ZM1112.67 210.573C1112.67 212.861 1112.23 214.902 1111.35 216.696C1110.49 218.464 1109.31 219.855 1107.8 220.869C1106.32 221.883 1104.61 222.39 1102.69 222.39C1100.79 222.39 1099.09 221.883 1097.58 220.869C1096.07 219.855 1094.88 218.464 1093.99 216.696C1093.13 214.902 1092.71 212.861 1092.71 210.573C1092.71 208.285 1093.13 206.257 1093.99 204.489C1094.88 202.695 1096.07 201.291 1097.58 200.277C1099.09 199.237 1100.79 198.717 1102.69 198.717C1104.61 198.717 1106.32 199.237 1107.8 200.277C1109.31 201.291 1110.49 202.695 1111.35 204.489C1112.23 206.257 1112.67 208.285 1112.67 210.573ZM1108.31 210.573C1108.31 209.013 1108.07 207.648 1107.6 206.478C1107.14 205.282 1106.47 204.359 1105.61 203.709C1104.76 203.033 1103.78 202.695 1102.69 202.695C1101.57 202.695 1100.58 203.033 1099.73 203.709C1098.87 204.359 1098.19 205.282 1097.7 206.478C1097.23 207.648 1097 209.013 1097 210.573C1097 212.133 1097.23 213.498 1097.7 214.668C1098.19 215.838 1098.87 216.761 1099.73 217.437C1100.58 218.087 1101.57 218.412 1102.69 218.412C1103.78 218.412 1104.74 218.087 1105.58 217.437C1106.43 216.761 1107.1 215.838 1107.56 214.668C1108.06 213.498 1108.31 212.133 1108.31 210.573Z" fill="black"/>
<path d="M38.144 489.953V483.752H26.171V479.93L39.509 462.731H42.434V479.852H45.866V483.752H42.434V489.953H38.144ZM30.539 479.852H38.612V469.283L30.539 479.852ZM48.8867 485C48.8867 483.908 48.9777 482.907 49.1597 481.997C49.3417 481.061 49.6537 480.177 50.0957 479.345C50.5637 478.513 51.2007 477.733 52.0067 477.005C52.8387 476.251 53.8917 475.536 55.1657 474.86C56.0757 474.34 56.9337 473.885 57.7397 473.495C58.5457 473.079 59.2607 472.676 59.8847 472.286C60.5087 471.87 60.9897 471.428 61.3277 470.96C61.6917 470.492 61.8737 469.959 61.8737 469.361C61.8737 468.789 61.7177 468.256 61.4057 467.762C61.0937 467.268 60.6257 466.878 60.0017 466.592C59.3777 466.28 58.6237 466.124 57.7397 466.124C57.0377 466.124 56.3877 466.215 55.7897 466.397C55.2177 466.579 54.6847 466.826 54.1907 467.138C53.7227 467.424 53.2937 467.749 52.9037 468.113C52.5137 468.451 52.1757 468.789 51.8897 469.127L49.1987 466.046C49.4587 465.734 49.8617 465.383 50.4077 464.993C50.9797 464.577 51.6557 464.174 52.4357 463.784C53.2417 463.368 54.1517 463.03 55.1657 462.77C56.1797 462.484 57.2847 462.341 58.4807 462.341C60.1707 462.341 61.6137 462.627 62.8097 463.199C64.0057 463.745 64.9157 464.512 65.5397 465.5C66.1897 466.462 66.5147 467.554 66.5147 468.776C66.5147 469.738 66.3197 470.583 65.9297 471.311C65.5657 472.039 65.0847 472.689 64.4867 473.261C63.8887 473.807 63.2517 474.288 62.5757 474.704C61.9257 475.094 61.3147 475.445 60.7427 475.757C59.7287 476.251 58.8447 476.706 58.0907 477.122C57.3627 477.538 56.7387 477.954 56.2187 478.37C55.6987 478.76 55.2697 479.176 54.9317 479.618C54.5937 480.034 54.3077 480.541 54.0737 481.139H66.9437V485H48.8867ZM90.688 473.573C90.688 475.861 90.246 477.902 89.362 479.696C88.504 481.464 87.321 482.855 85.813 483.869C84.331 484.883 82.628 485.39 80.704 485.39C78.806 485.39 77.103 484.883 75.595 483.869C74.087 482.855 72.891 481.464 72.007 479.696C71.149 477.902 70.72 475.861 70.72 473.573C70.72 471.285 71.149 469.257 72.007 467.489C72.891 465.695 74.087 464.291 75.595 463.277C77.103 462.237 78.806 461.717 80.704 461.717C82.628 461.717 84.331 462.237 85.813 463.277C87.321 464.291 88.504 465.695 89.362 467.489C90.246 469.257 90.688 471.285 90.688 473.573ZM86.32 473.573C86.32 472.013 86.086 470.648 85.618 469.478C85.15 468.282 84.487 467.359 83.629 466.709C82.771 466.033 81.796 465.695 80.704 465.695C79.586 465.695 78.598 466.033 77.74 466.709C76.882 467.359 76.206 468.282 75.712 469.478C75.244 470.648 75.01 472.013 75.01 473.573C75.01 475.133 75.244 476.498 75.712 477.668C76.206 478.838 76.882 479.761 77.74 480.437C78.598 481.087 79.586 481.412 80.704 481.412C81.796 481.412 82.758 481.087 83.59 480.437C84.448 479.761 85.111 478.838 85.579 477.668C86.073 476.498 86.32 475.133 86.32 473.573Z" fill="black"/>
<rect y="765" width="453" height="282" fill="#EBEBEB"/>
<line x1="-8.74228e-08" y1="1101" x2="459" y2="1101" stroke="black" stroke-width="2"/>
<line x1="510" y1="765" x2="510" y2="1086" stroke="black" stroke-width="2"/>
<line x1="670" y1="765" x2="670" y2="1086" stroke="black" stroke-width="2"/>
<path d="M188.961 1150C188.961 1148.91 189.052 1147.91 189.234 1147C189.416 1146.06 189.728 1145.18 190.17 1144.34C190.638 1143.51 191.275 1142.73 192.081 1142C192.913 1141.25 193.966 1140.54 195.24 1139.86C196.15 1139.34 197.008 1138.88 197.814 1138.49C198.62 1138.08 199.335 1137.68 199.959 1137.29C200.583 1136.87 201.064 1136.43 201.402 1135.96C201.766 1135.49 201.948 1134.96 201.948 1134.36C201.948 1133.79 201.792 1133.26 201.48 1132.76C201.168 1132.27 200.7 1131.88 200.076 1131.59C199.452 1131.28 198.698 1131.12 197.814 1131.12C197.112 1131.12 196.462 1131.21 195.864 1131.4C195.292 1131.58 194.759 1131.83 194.265 1132.14C193.797 1132.42 193.368 1132.75 192.978 1133.11C192.588 1133.45 192.25 1133.79 191.964 1134.13L189.273 1131.05C189.533 1130.73 189.936 1130.38 190.482 1129.99C191.054 1129.58 191.73 1129.17 192.51 1128.78C193.316 1128.37 194.226 1128.03 195.24 1127.77C196.254 1127.48 197.359 1127.34 198.555 1127.34C200.245 1127.34 201.688 1127.63 202.884 1128.2C204.08 1128.74 204.99 1129.51 205.614 1130.5C206.264 1131.46 206.589 1132.55 206.589 1133.78C206.589 1134.74 206.394 1135.58 206.004 1136.31C205.64 1137.04 205.159 1137.69 204.561 1138.26C203.963 1138.81 203.326 1139.29 202.65 1139.7C202 1140.09 201.389 1140.44 200.817 1140.76C199.803 1141.25 198.919 1141.71 198.165 1142.12C197.437 1142.54 196.813 1142.95 196.293 1143.37C195.773 1143.76 195.344 1144.18 195.006 1144.62C194.668 1145.03 194.382 1145.54 194.148 1146.14H207.018V1150H188.961ZM226.238 1146.14V1150H211.34V1146.14H216.878V1132.53C216.644 1132.84 216.28 1133.16 215.786 1133.5C215.292 1133.84 214.733 1134.17 214.109 1134.48C213.511 1134.76 212.9 1135 212.276 1135.18C211.652 1135.36 211.08 1135.45 210.56 1135.45V1131.44C211.08 1131.44 211.678 1131.28 212.354 1130.97C213.03 1130.66 213.693 1130.29 214.343 1129.88C215.019 1129.43 215.591 1129.02 216.059 1128.63C216.527 1128.21 216.8 1127.91 216.878 1127.73H221.285V1146.14H226.238ZM249.12 1138.57C249.12 1140.86 248.678 1142.9 247.794 1144.7C246.936 1146.46 245.753 1147.85 244.245 1148.87C242.763 1149.88 241.06 1150.39 239.136 1150.39C237.238 1150.39 235.535 1149.88 234.027 1148.87C232.519 1147.85 231.323 1146.46 230.439 1144.7C229.581 1142.9 229.152 1140.86 229.152 1138.57C229.152 1136.28 229.581 1134.26 230.439 1132.49C231.323 1130.69 232.519 1129.29 234.027 1128.28C235.535 1127.24 237.238 1126.72 239.136 1126.72C241.06 1126.72 242.763 1127.24 244.245 1128.28C245.753 1129.29 246.936 1130.69 247.794 1132.49C248.678 1134.26 249.12 1136.28 249.12 1138.57ZM244.752 1138.57C244.752 1137.01 244.518 1135.65 244.05 1134.48C243.582 1133.28 242.919 1132.36 242.061 1131.71C241.203 1131.03 240.228 1130.69 239.136 1130.69C238.018 1130.69 237.03 1131.03 236.172 1131.71C235.314 1132.36 234.638 1133.28 234.144 1134.48C233.676 1135.65 233.442 1137.01 233.442 1138.57C233.442 1140.13 233.676 1141.5 234.144 1142.67C234.638 1143.84 235.314 1144.76 236.172 1145.44C237.03 1146.09 238.018 1146.41 239.136 1146.41C240.228 1146.41 241.19 1146.09 242.022 1145.44C242.88 1144.76 243.543 1143.84 244.011 1142.67C244.505 1141.5 244.752 1140.13 244.752 1138.57ZM261.337 1155.81C259.335 1155.81 257.541 1155.36 255.955 1154.45C254.369 1153.56 253.16 1152.35 252.328 1150.82L254.902 1148.36C255.63 1149.48 256.566 1150.36 257.71 1151.01C258.854 1151.69 260.076 1152.03 261.376 1152.03C262.442 1152.03 263.391 1151.79 264.223 1151.33C265.055 1150.88 265.705 1150.26 266.173 1149.45C266.667 1148.62 266.914 1147.67 266.914 1146.61C266.914 1145.57 266.68 1144.66 266.212 1143.88C265.744 1143.07 265.12 1142.46 264.34 1142.04C263.56 1141.6 262.663 1141.38 261.649 1141.38C260.661 1141.38 259.738 1141.6 258.88 1142.04C258.022 1142.49 257.32 1143.11 256.774 1143.92H252.991L256.15 1127.73H269.683V1131.67H259.27L257.866 1139.24C258.308 1138.77 258.906 1138.39 259.66 1138.1C260.414 1137.79 261.272 1137.64 262.234 1137.64C263.976 1137.64 265.523 1138.03 266.875 1138.81C268.253 1139.56 269.332 1140.6 270.112 1141.93C270.918 1143.25 271.321 1144.79 271.321 1146.53C271.321 1148.37 270.879 1149.99 269.995 1151.37C269.111 1152.77 267.915 1153.86 266.407 1154.64C264.899 1155.42 263.209 1155.81 261.337 1155.81Z" fill="black"/>
<path d="M551.508 902.202H538.092V898.263H558.294L544.449 925.953H539.574L551.508 902.202ZM569.521 925.953V919.752H557.548V915.93L570.886 898.731H573.811V915.852H577.243V919.752H573.811V925.953H569.521ZM561.916 915.852H569.989V905.283L561.916 915.852ZM588.922 926.811C586.92 926.811 585.126 926.356 583.54 925.446C581.954 924.562 580.745 923.353 579.913 921.819L582.487 919.362C583.215 920.48 584.151 921.364 585.295 922.014C586.439 922.69 587.661 923.028 588.961 923.028C590.027 923.028 590.976 922.794 591.808 922.326C592.64 921.884 593.29 921.26 593.758 920.454C594.252 919.622 594.499 918.673 594.499 917.607C594.499 916.567 594.265 915.657 593.797 914.877C593.329 914.071 592.705 913.46 591.925 913.044C591.145 912.602 590.248 912.381 589.234 912.381C588.246 912.381 587.323 912.602 586.465 913.044C585.607 913.486 584.905 914.11 584.359 914.916H580.576L583.735 898.731H597.268V902.67H586.855L585.451 910.236C585.893 909.768 586.491 909.391 587.245 909.105C587.999 908.793 588.857 908.637 589.819 908.637C591.561 908.637 593.108 909.027 594.46 909.807C595.838 910.561 596.917 911.601 597.697 912.927C598.503 914.253 598.906 915.787 598.906 917.529C598.906 919.375 598.464 920.987 597.58 922.365C596.696 923.769 595.5 924.861 593.992 925.641C592.484 926.421 590.794 926.811 588.922 926.811Z" fill="black"/>
<path d="M727.606 913.005C727.606 914.669 727.151 916.125 726.241 917.373C725.357 918.621 724.148 919.596 722.614 920.298C721.106 920.974 719.455 921.312 717.661 921.312C715.815 921.312 714.151 920.948 712.669 920.22C711.187 919.466 710.004 918.452 709.12 917.178C708.236 915.904 707.794 914.448 707.794 912.81C707.794 911.718 708.041 910.743 708.535 909.885C709.029 909.001 709.64 908.247 710.368 907.623C711.096 906.999 711.837 906.518 712.591 906.18C711.889 905.842 711.239 905.413 710.641 904.893C710.069 904.347 709.601 903.723 709.237 903.021C708.899 902.319 708.73 901.565 708.73 900.759C708.73 899.563 708.99 898.51 709.51 897.6C710.056 896.664 710.771 895.884 711.655 895.26C712.539 894.61 713.501 894.129 714.541 893.817C715.607 893.479 716.66 893.31 717.7 893.31C718.766 893.31 719.819 893.479 720.859 893.817C721.925 894.129 722.9 894.597 723.784 895.221C724.694 895.845 725.409 896.625 725.929 897.561C726.475 898.471 726.748 899.524 726.748 900.72C726.748 901.526 726.566 902.293 726.202 903.021C725.864 903.723 725.383 904.347 724.759 904.893C724.161 905.439 723.511 905.868 722.809 906.18C723.641 906.544 724.421 907.051 725.149 907.701C725.903 908.351 726.501 909.118 726.943 910.002C727.385 910.886 727.606 911.887 727.606 913.005ZM723.277 912.732C723.277 911.978 723.108 911.302 722.77 910.704C722.458 910.106 722.029 909.612 721.483 909.222C720.937 908.806 720.339 908.494 719.689 908.286C719.039 908.078 718.376 907.974 717.7 907.974C716.738 907.974 715.841 908.169 715.009 908.559C714.177 908.949 713.501 909.508 712.981 910.236C712.461 910.938 712.201 911.77 712.201 912.732C712.201 913.46 712.357 914.123 712.669 914.721C712.981 915.293 713.397 915.787 713.917 916.203C714.463 916.619 715.061 916.931 715.711 917.139C716.387 917.347 717.063 917.451 717.739 917.451C718.675 917.451 719.559 917.256 720.391 916.866C721.249 916.45 721.938 915.891 722.458 915.189C723.004 914.461 723.277 913.642 723.277 912.732ZM713.059 900.915C713.059 901.721 713.293 902.41 713.761 902.982C714.229 903.554 714.827 903.983 715.555 904.269C716.283 904.555 716.998 904.698 717.7 904.698C718.428 904.698 719.143 904.555 719.845 904.269C720.573 903.957 721.171 903.515 721.639 902.943C722.133 902.371 722.38 901.669 722.38 900.837C722.38 900.083 722.159 899.433 721.717 898.887C721.275 898.315 720.69 897.886 719.962 897.6C719.26 897.288 718.506 897.132 717.7 897.132C716.894 897.132 716.127 897.288 715.399 897.6C714.697 897.912 714.125 898.354 713.683 898.926C713.267 899.472 713.059 900.135 713.059 900.915ZM739.641 926.811C737.639 926.811 735.845 926.356 734.259 925.446C732.673 924.562 731.464 923.353 730.632 921.819L733.206 919.362C733.934 920.48 734.87 921.364 736.014 922.014C737.158 922.69 738.38 923.028 739.68 923.028C740.746 923.028 741.695 922.794 742.527 922.326C743.359 921.884 744.009 921.26 744.477 920.454C744.971 919.622 745.218 918.673 745.218 917.607C745.218 916.567 744.984 915.657 744.516 914.877C744.048 914.071 743.424 913.46 742.644 913.044C741.864 912.602 740.967 912.381 739.953 912.381C738.965 912.381 738.042 912.602 737.184 913.044C736.326 913.486 735.624 914.11 735.078 914.916H731.295L734.454 898.731H747.987V902.67H737.574L736.17 910.236C736.612 909.768 737.21 909.391 737.964 909.105C738.718 908.793 739.576 908.637 740.538 908.637C742.28 908.637 743.827 909.027 745.179 909.807C746.557 910.561 747.636 911.601 748.416 912.927C749.222 914.253 749.625 915.787 749.625 917.529C749.625 919.375 749.183 920.987 748.299 922.365C747.415 923.769 746.219 924.861 744.711 925.641C743.203 926.421 741.513 926.811 739.641 926.811ZM761.121 926.811C759.119 926.811 757.325 926.356 755.739 925.446C754.153 924.562 752.944 923.353 752.112 921.819L754.686 919.362C755.414 920.48 756.35 921.364 757.494 922.014C758.638 922.69 759.86 923.028 761.16 923.028C762.226 923.028 763.175 922.794 764.007 922.326C764.839 921.884 765.489 921.26 765.957 920.454C766.451 919.622 766.698 918.673 766.698 917.607C766.698 916.567 766.464 915.657 765.996 914.877C765.528 914.071 764.904 913.46 764.124 913.044C763.344 912.602 762.447 912.381 761.433 912.381C760.445 912.381 759.522 912.602 758.664 913.044C757.806 913.486 757.104 914.11 756.558 914.916H752.775L755.934 898.731H769.467V902.67H759.054L757.65 910.236C758.092 909.768 758.69 909.391 759.444 909.105C760.198 908.793 761.056 908.637 762.018 908.637C763.76 908.637 765.307 909.027 766.659 909.807C768.037 910.561 769.116 911.601 769.896 912.927C770.702 914.253 771.105 915.787 771.105 917.529C771.105 919.375 770.663 920.987 769.779 922.365C768.895 923.769 767.699 924.861 766.191 925.641C764.683 926.421 762.993 926.811 761.121 926.811Z" fill="black"/>
<path d="M560.433 1075.14V1079H545.535V1075.14H551.073V1061.53C550.839 1061.84 550.475 1062.16 549.981 1062.5C549.487 1062.84 548.928 1063.17 548.304 1063.48C547.706 1063.76 547.095 1064 546.471 1064.18C545.847 1064.36 545.275 1064.45 544.755 1064.45V1060.44C545.275 1060.44 545.873 1060.28 546.549 1059.97C547.225 1059.66 547.888 1059.29 548.538 1058.88C549.214 1058.43 549.786 1058.02 550.254 1057.63C550.722 1057.21 550.995 1056.91 551.073 1056.73H555.48V1075.14H560.433ZM578.79 1075.14V1079H563.892V1075.14H569.43V1061.53C569.196 1061.84 568.832 1062.16 568.338 1062.5C567.844 1062.84 567.285 1063.17 566.661 1063.48C566.063 1063.76 565.452 1064 564.828 1064.18C564.204 1064.36 563.632 1064.45 563.112 1064.45V1060.44C563.632 1060.44 564.23 1060.28 564.906 1059.97C565.582 1059.66 566.245 1059.29 566.895 1058.88C567.571 1058.43 568.143 1058.02 568.611 1057.63C569.079 1057.21 569.352 1056.91 569.43 1056.73H573.837V1075.14H578.79ZM601.672 1067.57C601.672 1069.86 601.23 1071.9 600.346 1073.7C599.488 1075.46 598.305 1076.85 596.797 1077.87C595.315 1078.88 593.612 1079.39 591.688 1079.39C589.79 1079.39 588.087 1078.88 586.579 1077.87C585.071 1076.85 583.875 1075.46 582.991 1073.7C582.133 1071.9 581.704 1069.86 581.704 1067.57C581.704 1065.28 582.133 1063.26 582.991 1061.49C583.875 1059.69 585.071 1058.29 586.579 1057.28C588.087 1056.24 589.79 1055.72 591.688 1055.72C593.612 1055.72 595.315 1056.24 596.797 1057.28C598.305 1058.29 599.488 1059.69 600.346 1061.49C601.23 1063.26 601.672 1065.28 601.672 1067.57ZM597.304 1067.57C597.304 1066.01 597.07 1064.65 596.602 1063.48C596.134 1062.28 595.471 1061.36 594.613 1060.71C593.755 1060.03 592.78 1059.69 591.688 1059.69C590.57 1059.69 589.582 1060.03 588.724 1060.71C587.866 1061.36 587.19 1062.28 586.696 1063.48C586.228 1064.65 585.994 1066.01 585.994 1067.57C585.994 1069.13 586.228 1070.5 586.696 1071.67C587.19 1072.84 587.866 1073.76 588.724 1074.44C589.582 1075.09 590.57 1075.41 591.688 1075.41C592.78 1075.41 593.742 1075.09 594.574 1074.44C595.432 1073.76 596.095 1072.84 596.563 1071.67C597.057 1070.5 597.304 1069.13 597.304 1067.57Z" fill="black"/>
<rect x="41" y="1052" width="30" height="34" fill="#D9D9D9"/>
<rect x="401" y="1052" width="30" height="34" fill="#D9D9D9"/>
<line x1="501" y1="1049.5" x2="518" y2="1049.5" stroke="black"/>
<path d="M16.94 9.508H10.584V26H6.748V9.508H0.392V6.12H16.94V9.508ZM29.3871 26.14C27.9311 26.14 26.6058 25.86 25.4111 25.3C24.2351 24.74 23.2178 23.984 22.3591 23.032C21.5191 22.0613 20.8658 20.9787 20.3991 19.784C19.9324 18.5707 19.6991 17.3293 19.6991 16.06C19.6991 14.7347 19.9418 13.4747 20.4271 12.28C20.9311 11.0667 21.6124 9.99333 22.4711 9.06C23.3484 8.108 24.3751 7.36133 25.5511 6.82C26.7458 6.26 28.0524 5.98 29.4711 5.98C30.9084 5.98 32.2151 6.26933 33.3911 6.848C34.5858 7.42667 35.6031 8.20133 36.4431 9.172C37.2831 10.1427 37.9364 11.2253 38.4031 12.42C38.8698 13.6147 39.1031 14.8467 39.1031 16.116C39.1031 17.4227 38.8604 18.6827 38.3751 19.896C37.8898 21.0907 37.2084 22.164 36.3311 23.116C35.4724 24.0493 34.4458 24.7867 33.2511 25.328C32.0751 25.8693 30.7871 26.14 29.3871 26.14ZM23.6191 16.06C23.6191 16.9187 23.7498 17.7493 24.0111 18.552C24.2724 19.3547 24.6458 20.0733 25.1311 20.708C25.6351 21.324 26.2418 21.8187 26.9511 22.192C27.6791 22.5467 28.5004 22.724 29.4151 22.724C30.3484 22.724 31.1791 22.5373 31.9071 22.164C32.6351 21.772 33.2418 21.2587 33.7271 20.624C34.2124 19.9707 34.5764 19.252 34.8191 18.468C35.0804 17.6653 35.2111 16.8627 35.2111 16.06C35.2111 15.2013 35.0711 14.38 34.7911 13.596C34.5298 12.7933 34.1471 12.084 33.6431 11.468C33.1578 10.8333 32.5511 10.3387 31.8231 9.984C31.1138 9.61067 30.3111 9.424 29.4151 9.424C28.4631 9.424 27.6231 9.62 26.8951 10.012C26.1858 10.3853 25.5884 10.8893 25.1031 11.524C24.6178 12.1587 24.2444 12.868 23.9831 13.652C23.7404 14.436 23.6191 15.2387 23.6191 16.06ZM44.0272 26V6.12H52.4552C53.3698 6.12 54.2098 6.30667 54.9752 6.68C55.7405 7.05333 56.4032 7.55733 56.9632 8.192C57.5418 8.82667 57.9898 9.536 58.3072 10.32C58.6245 11.104 58.7832 11.9067 58.7832 12.728C58.7832 13.848 58.5218 14.912 57.9992 15.92C57.4765 16.928 56.7578 17.7493 55.8432 18.384C54.9285 19.0187 53.8458 19.336 52.5952 19.336H47.8912V26H44.0272ZM47.8912 15.948H52.3712C52.8378 15.948 53.2578 15.8173 53.6312 15.556C54.0045 15.2947 54.3032 14.9213 54.5272 14.436C54.7512 13.932 54.8632 13.3627 54.8632 12.728C54.8632 12.0373 54.7325 11.4493 54.4712 10.964C54.2285 10.4787 53.9018 10.1147 53.4912 9.872C53.0992 9.62933 52.6698 9.508 52.2032 9.508H47.8912V15.948ZM71.3534 26V6.12H79.7814C80.6961 6.12 81.5361 6.30667 82.3014 6.68C83.0667 7.05333 83.7294 7.55733 84.2894 8.192C84.8681 8.82667 85.3161 9.536 85.6334 10.32C85.9507 11.104 86.1094 11.9067 86.1094 12.728C86.1094 13.848 85.8481 14.912 85.3254 15.92C84.8027 16.928 84.0841 17.7493 83.1694 18.384C82.2547 19.0187 81.1721 19.336 79.9214 19.336H75.2174V26H71.3534ZM75.2174 15.948H79.6974C80.1641 15.948 80.5841 15.8173 80.9574 15.556C81.3307 15.2947 81.6294 14.9213 81.8534 14.436C82.0774 13.932 82.1894 13.3627 82.1894 12.728C82.1894 12.0373 82.0587 11.4493 81.7974 10.964C81.5547 10.4787 81.2281 10.1147 80.8174 9.872C80.4254 9.62933 79.9961 9.508 79.5294 9.508H75.2174V15.948ZM90.7587 26V6.12H99.5507C100.465 6.12 101.305 6.30667 102.071 6.68C102.855 7.05333 103.527 7.55733 104.087 8.192C104.665 8.82667 105.104 9.536 105.403 10.32C105.72 11.104 105.879 11.9067 105.879 12.728C105.879 13.568 105.729 14.38 105.431 15.164C105.151 15.9293 104.74 16.6013 104.199 17.18C103.657 17.7587 103.023 18.2067 102.295 18.524L106.831 26H102.575L98.4867 19.336H94.6227V26H90.7587ZM94.6227 15.948H99.4667C99.9521 15.948 100.381 15.808 100.755 15.528C101.128 15.2293 101.427 14.8373 101.651 14.352C101.875 13.8667 101.987 13.3253 101.987 12.728C101.987 12.0933 101.856 11.5427 101.595 11.076C101.333 10.5907 100.997 10.208 100.587 9.928C100.195 9.648 99.7654 9.508 99.2987 9.508H94.6227V15.948ZM119.714 26.14C118.258 26.14 116.933 25.86 115.738 25.3C114.562 24.74 113.545 23.984 112.686 23.032C111.846 22.0613 111.193 20.9787 110.726 19.784C110.26 18.5707 110.026 17.3293 110.026 16.06C110.026 14.7347 110.269 13.4747 110.754 12.28C111.258 11.0667 111.94 9.99333 112.798 9.06C113.676 8.108 114.702 7.36133 115.878 6.82C117.073 6.26 118.38 5.98 119.798 5.98C121.236 5.98 122.542 6.26933 123.718 6.848C124.913 7.42667 125.93 8.20133 126.77 9.172C127.61 10.1427 128.264 11.2253 128.73 12.42C129.197 13.6147 129.43 14.8467 129.43 16.116C129.43 17.4227 129.188 18.6827 128.702 19.896C128.217 21.0907 127.536 22.164 126.658 23.116C125.8 24.0493 124.773 24.7867 123.578 25.328C122.402 25.8693 121.114 26.14 119.714 26.14ZM113.946 16.06C113.946 16.9187 114.077 17.7493 114.338 18.552C114.6 19.3547 114.973 20.0733 115.458 20.708C115.962 21.324 116.569 21.8187 117.278 22.192C118.006 22.5467 118.828 22.724 119.742 22.724C120.676 22.724 121.506 22.5373 122.234 22.164C122.962 21.772 123.569 21.2587 124.054 20.624C124.54 19.9707 124.904 19.252 125.146 18.468C125.408 17.6653 125.538 16.8627 125.538 16.06C125.538 15.2013 125.398 14.38 125.118 13.596C124.857 12.7933 124.474 12.084 123.97 11.468C123.485 10.8333 122.878 10.3387 122.15 9.984C121.441 9.61067 120.638 9.424 119.742 9.424C118.79 9.424 117.95 9.62 117.222 10.012C116.513 10.3853 115.916 10.8893 115.43 11.524C114.945 12.1587 114.572 12.868 114.31 13.652C114.068 14.436 113.946 15.2387 113.946 16.06ZM134.355 26V6.12H147.711V9.508H138.219V14.632H146.115V17.768H138.219V26H134.355ZM152.393 26V6.12H156.257V26H152.393ZM162.364 26V6.12H166.228V22.612H176.364V26H162.364ZM194.48 22.612V26H180.676V6.12H194.228V9.508H184.54V14.296H192.912V17.432H184.54V22.612H194.48Z" fill="black"/>
<path d="M13.916 722.328C13.7853 722.197 13.5427 722.02 13.188 721.796C12.852 721.572 12.432 721.357 11.928 721.152C11.4427 720.947 10.9107 720.769 10.332 720.62C9.75333 720.452 9.16533 720.368 8.568 720.368C7.52267 720.368 6.72933 720.564 6.188 720.956C5.66533 721.348 5.404 721.899 5.404 722.608C5.404 723.149 5.572 723.579 5.908 723.896C6.244 724.213 6.748 724.484 7.42 724.708C8.092 724.932 8.932 725.175 9.94 725.436C11.2467 725.753 12.376 726.145 13.328 726.612C14.2987 727.06 15.036 727.657 15.54 728.404C16.0627 729.132 16.324 730.103 16.324 731.316C16.324 732.38 16.128 733.295 15.736 734.06C15.344 734.807 14.8027 735.413 14.112 735.88C13.4213 736.347 12.6373 736.692 11.76 736.916C10.8827 737.121 9.94933 737.224 8.96 737.224C7.97067 737.224 6.98133 737.121 5.992 736.916C5.00267 736.711 4.05067 736.421 3.136 736.048C2.22133 735.656 1.38133 735.189 0.616 734.648L2.324 731.316C2.492 731.484 2.79067 731.708 3.22 731.988C3.64933 732.249 4.172 732.52 4.788 732.8C5.404 733.061 6.076 733.285 6.804 733.472C7.532 733.659 8.26933 733.752 9.016 733.752C10.0613 733.752 10.8547 733.575 11.396 733.22C11.9373 732.865 12.208 732.361 12.208 731.708C12.208 731.111 11.9933 730.644 11.564 730.308C11.1347 729.972 10.5373 729.683 9.772 729.44C9.00667 729.179 8.10133 728.899 7.056 728.6C5.80533 728.245 4.76 727.853 3.92 727.424C3.08 726.976 2.45467 726.416 2.044 725.744C1.63333 725.072 1.428 724.232 1.428 723.224C1.428 721.861 1.74533 720.723 2.38 719.808C3.03333 718.875 3.91067 718.175 5.012 717.708C6.11333 717.223 7.336 716.98 8.68 716.98C9.61333 716.98 10.4907 717.083 11.312 717.288C12.152 717.493 12.936 717.764 13.664 718.1C14.392 718.436 15.0453 718.8 15.624 719.192L13.916 722.328ZM21.2039 737V717.12H25.0679V737H21.2039ZM31.1756 737V717.12H38.3996C40.5649 717.12 42.3756 717.568 43.8316 718.464C45.2876 719.341 46.3796 720.536 47.1076 722.048C47.8356 723.541 48.1996 725.203 48.1996 727.032C48.1996 729.048 47.7983 730.803 46.9956 732.296C46.1929 733.789 45.0543 734.947 43.5796 735.768C42.1236 736.589 40.3969 737 38.3996 737H31.1756ZM44.3076 727.032C44.3076 725.744 44.0743 724.615 43.6076 723.644C43.1409 722.655 42.4689 721.889 41.5916 721.348C40.7143 720.788 39.6503 720.508 38.3996 720.508H35.0396V733.612H38.3996C39.6689 733.612 40.7423 733.332 41.6196 732.772C42.4969 732.193 43.1596 731.409 43.6076 730.42C44.0743 729.412 44.3076 728.283 44.3076 727.032ZM66.9826 733.612V737H53.1786V717.12H66.7306V720.508H57.0426V725.296H65.4146V728.432H57.0426V733.612H66.9826ZM80.6415 737V717.12H89.0695C89.9842 717.12 90.8242 717.307 91.5895 717.68C92.3549 718.053 93.0175 718.557 93.5775 719.192C94.1562 719.827 94.6042 720.536 94.9215 721.32C95.2389 722.104 95.3975 722.907 95.3975 723.728C95.3975 724.848 95.1362 725.912 94.6135 726.92C94.0909 727.928 93.3722 728.749 92.4575 729.384C91.5429 730.019 90.4602 730.336 89.2095 730.336H84.5055V737H80.6415ZM84.5055 726.948H88.9855C89.4522 726.948 89.8722 726.817 90.2455 726.556C90.6189 726.295 90.9175 725.921 91.1415 725.436C91.3655 724.932 91.4775 724.363 91.4775 723.728C91.4775 723.037 91.3469 722.449 91.0855 721.964C90.8429 721.479 90.5162 721.115 90.1055 720.872C89.7135 720.629 89.2842 720.508 88.8175 720.508H84.5055V726.948ZM100.047 737V717.12H108.839C109.754 717.12 110.594 717.307 111.359 717.68C112.143 718.053 112.815 718.557 113.375 719.192C113.954 719.827 114.392 720.536 114.691 721.32C115.008 722.104 115.167 722.907 115.167 723.728C115.167 724.568 115.018 725.38 114.719 726.164C114.439 726.929 114.028 727.601 113.487 728.18C112.946 728.759 112.311 729.207 111.583 729.524L116.119 737H111.863L107.775 730.336H103.911V737H100.047ZM103.911 726.948H108.755C109.24 726.948 109.67 726.808 110.043 726.528C110.416 726.229 110.715 725.837 110.939 725.352C111.163 724.867 111.275 724.325 111.275 723.728C111.275 723.093 111.144 722.543 110.883 722.076C110.622 721.591 110.286 721.208 109.875 720.928C109.483 720.648 109.054 720.508 108.587 720.508H103.911V726.948ZM129.003 737.14C127.547 737.14 126.221 736.86 125.027 736.3C123.851 735.74 122.833 734.984 121.975 734.032C121.135 733.061 120.481 731.979 120.015 730.784C119.548 729.571 119.315 728.329 119.315 727.06C119.315 725.735 119.557 724.475 120.043 723.28C120.547 722.067 121.228 720.993 122.087 720.06C122.964 719.108 123.991 718.361 125.167 717.82C126.361 717.26 127.668 716.98 129.087 716.98C130.524 716.98 131.831 717.269 133.007 717.848C134.201 718.427 135.219 719.201 136.059 720.172C136.899 721.143 137.552 722.225 138.019 723.42C138.485 724.615 138.719 725.847 138.719 727.116C138.719 728.423 138.476 729.683 137.991 730.896C137.505 732.091 136.824 733.164 135.947 734.116C135.088 735.049 134.061 735.787 132.867 736.328C131.691 736.869 130.403 737.14 129.003 737.14ZM123.235 727.06C123.235 727.919 123.365 728.749 123.627 729.552C123.888 730.355 124.261 731.073 124.747 731.708C125.251 732.324 125.857 732.819 126.567 733.192C127.295 733.547 128.116 733.724 129.031 733.724C129.964 733.724 130.795 733.537 131.523 733.164C132.251 732.772 132.857 732.259 133.343 731.624C133.828 730.971 134.192 730.252 134.435 729.468C134.696 728.665 134.827 727.863 134.827 727.06C134.827 726.201 134.687 725.38 134.407 724.596C134.145 723.793 133.763 723.084 133.259 722.468C132.773 721.833 132.167 721.339 131.439 720.984C130.729 720.611 129.927 720.424 129.031 720.424C128.079 720.424 127.239 720.62 126.511 721.012C125.801 721.385 125.204 721.889 124.719 722.524C124.233 723.159 123.86 723.868 123.599 724.652C123.356 725.436 123.235 726.239 123.235 727.06ZM143.643 737V717.12H156.999V720.508H147.507V725.632H155.403V728.768H147.507V737H143.643ZM161.681 737V717.12H165.545V737H161.681ZM171.652 737V717.12H175.516V733.612H185.652V737H171.652ZM203.768 733.612V737H189.964V717.12H203.516V720.508H193.828V725.296H202.2V728.432H193.828V733.612H203.768Z" fill="black"/>
</svg>
