<?xml version="1.0" encoding="iso-8859-1"?>
<!-- Uploaded to: SVG Repo, www.svgrepo.com, Generator: SVG Repo Mixer Tools -->
<svg fill="#000000" height="800px" width="800px" version="1.1" id="Capa_1" xmlns="http://www.w3.org/2000/svg" xmlns:xlink="http://www.w3.org/1999/xlink" 
	 viewBox="0 0 350 350" xml:space="preserve">
<path id="XMLID_1014_" d="M241,35.5V0H111v35.5C111,53.42,96.42,68,78.5,68H23v48.368l8.47,7.847
	C45.773,137.466,53.65,155.502,53.65,175s-7.876,37.534-22.179,50.785L23,233.632V282h55.5c17.92,0,32.5,14.58,32.5,32.5V350h130
	v-35.5c0-17.92,14.579-32.5,32.5-32.5H327v-48.368l-8.471-7.847c-14.303-13.251-22.18-31.288-22.18-50.786
	s7.877-37.534,22.18-50.785l8.471-7.847V68h-53.5C255.579,68,241,53.42,241,35.5z M307,107.632l-2.063,1.911
	C286.77,126.375,276.35,150.233,276.35,175s10.42,48.625,28.588,65.457l2.063,1.911V262h-33.5c-28.948,0-52.5,23.551-52.5,52.5V330
	h-90v-15.5c0-28.949-23.551-52.5-52.5-52.5H43v-19.632l2.063-1.911C63.23,223.625,73.65,199.767,73.65,175
	s-10.419-48.625-28.587-65.457L43,107.632V88h35.5c28.949,0,52.5-23.551,52.5-52.5V20h90v15.5c0,28.949,23.552,52.5,52.5,52.5H307
	V107.632z"/>
</svg>