<?xml version="1.0" encoding="utf-8"?><!-- Uploaded to: SVG Repo, www.svgrepo.com, Generator: SVG Repo Mixer Tools -->
<svg fill="#000000" width="800px" height="800px" viewBox="0 0 24 24" xmlns="http://www.w3.org/2000/svg" xmlns:xlink="http://www.w3.org/1999/xlink"><path d="M7 4C5.346 4 4 5.346 4 7L4 8.5722656C4.762 9.0352656 5.3802812 9.7543906 5.7382812 10.650391L6.6796875 13L17.318359 13L18.3125 10.517578C18.6515 9.6715781 19.254 8.9995469 20 8.5605469L20 7C20 5.346 18.654 4 17 4L7 4 z M 22.027344 10C21.208344 10 20.471969 10.498766 20.167969 11.259766L18.671875 15L5.3222656 15L3.8808594 11.392578C3.5888594 10.662578 2.9421563 10.083766 2.1601562 10.009766C1.7601562 9.9717656 1.3715781 10.049234 1.0175781 10.240234C0.10057813 10.732234 -0.22684375 11.899234 0.16015625 12.865234L1.859375 17.115234C2.315375 18.253234 3.4185313 19 4.6445312 19L5 19L5 21L7 21L7 19L17 19L17 21L19 21L19 19L19.347656 19C20.574656 19 21.677813 18.252281 22.132812 17.113281L23.841797 12.841797C24.211797 11.915797 23.919453 10.806969 23.064453 10.292969C22.744453 10.099969 22.392344 10 22.027344 10 z"/></svg>