<?xml version="1.0" encoding="iso-8859-1"?>
<!-- Uploaded to: SVG Repo, www.svgrepo.com, Generator: SVG Repo Mixer Tools -->
<!DOCTYPE svg PUBLIC "-//W3C//DTD SVG 1.1//EN" "http://www.w3.org/Graphics/SVG/1.1/DTD/svg11.dtd">
<svg fill="#fff" height="800px" width="800px" version="1.1" id="Capa_1" xmlns="http://www.w3.org/2000/svg" xmlns:xlink="http://www.w3.org/1999/xlink"
	 viewBox="0 0 456.333 456.333" xml:space="preserve">
<path d="M440.569,148.525c-1.542-0.129-3.073-0.131-4.587-0.034v-0.004l-37.159,0.029c-8.206,0-14.913,1.769-20.237,5.33
	c-0.266-4.369-0.818-9.983-1.963-15.135c-1.609-7.234-8.188-12.485-15.643-12.485H228.167H95.353
	c-7.455,0-14.032,5.251-15.642,12.485c-1.145,5.152-1.698,10.766-1.964,15.135c-5.324-3.562-12.031-5.33-20.235-5.33l-37.162-0.029
	v0.003c-1.514-0.097-3.045-0.094-4.587,0.035C6.924,149.262,0,156.788,0,165.658v107.622c0,15.41,12.537,27.946,27.946,27.946H36
	v19.869c0,3.656,2.183,6.923,5.561,8.322c1.121,0.464,2.294,0.69,3.457,0.69c2.339,0,4.633-0.916,6.36-2.643l26.238-26.239h301.101
	l26.239,26.239c1.728,1.727,4.021,2.643,6.36,2.643c1.161,0,2.335-0.226,3.456-0.69c3.378-1.399,5.561-4.666,5.561-8.323v-19.869
	h8.054c15.409,0,27.946-12.537,27.946-27.946V165.658C456.333,156.788,449.408,149.262,440.569,148.525z M398.826,155.516
	l19.333-0.015c-3.627,2.957-6.622,6.737-8.655,11.159l-11.732,25.523c-8.061,17.535-7.663,37.325,0.172,54.129
	c-12.513-7.839-25.896-14.112-39.865-18.706c-1.672-11.078-0.094-22.271,4.604-32.497l11.731-25.521
	C378.882,159.855,386.41,155.516,398.826,155.516z M95.353,133.226h132.814H360.98c4.202,0,7.906,2.946,8.809,7.005
	c1.71,7.69,1.989,16.858,2.033,20.048c-1.425,1.897-2.683,4.02-3.769,6.386l-11.731,25.521c-4.807,10.462-6.696,21.824-5.572,33.168
	c-10.399-2.943-21.08-4.983-31.936-6.048c-60.149-5.593-121.145-5.592-181.313,0.001c-10.848,1.064-21.523,3.103-31.917,6.045
	c1.123-11.343-0.766-22.705-5.574-33.168L88.28,166.666c-1.086-2.366-2.345-4.49-3.77-6.387c0.043-3.186,0.321-12.341,2.034-20.048
	C87.447,136.171,91.151,133.226,95.353,133.226z M57.51,155.516c12.413,0,19.941,4.339,24.41,14.072l11.729,25.52
	c4.7,10.227,6.278,21.42,4.606,32.496c-13.968,4.594-27.352,10.868-39.866,18.708c7.835-16.804,8.233-36.594,0.172-54.129
	L46.829,166.66c-2.032-4.422-5.028-8.202-8.655-11.159L57.51,155.516z M46.429,322.515c-0.855,0.856-1.817,0.589-2.189,0.436
	c-0.372-0.155-1.239-0.645-1.239-1.855v-19.869h24.717L46.429,322.515z M413.333,321.095c0,1.211-0.867,1.701-1.239,1.855
	c-0.372,0.154-1.331,0.421-2.188-0.436l-21.289-21.289h24.717V321.095z M449.333,273.279c0,11.568-9.378,20.946-20.946,20.946
	H27.946C16.378,294.226,7,284.848,7,273.279V165.658c0-5.258,4.105-9.72,9.346-10.157c10.155-0.844,19.861,4.812,24.124,14.083
	l11.732,25.523c10.214,22.22,5.209,48.512-12.456,65.425l4.842,5.056h0c3.772-3.618,7.826-6.942,12.151-9.876
	c24.23-16.436,52.2-26.57,81.428-29.436c59.72-5.552,120.28-5.553,179.982-0.001c29.243,2.867,57.215,13.001,81.445,29.437
	c4.307,2.922,8.345,6.23,12.103,9.83l0.048,0.046l4.842-5.056c-17.665-16.913-22.671-43.205-12.457-65.425l11.732-25.523
	c4.262-9.271,13.973-14.92,24.124-14.083c5.24,0.437,9.346,4.898,9.346,10.157V273.279z"/>
</svg>