<svg fill="none" height="18" viewBox="0 0 18 18" width="18" xmlns="http://www.w3.org/2000/svg"><path d="m16.3469 5.65924-8.99998 8.99996c-.07838.0787-.17153.1411-.27409.1837s-.21251.0645-.32356.0645-.22101-.0219-.32357-.0645-.1957-.105-.27409-.1837l-3.9375-3.9375c-.07849-.0784-.14074-.1716-.18322-.2742-.04248-.1025-.06434-.2124-.06434-.3234s.02186-.22092.06434-.32347c.04248-.10254.10473-.19572.18322-.2742.07849-.07849.17166-.14075.27421-.18322.10254-.04248.21245-.06434.32345-.06434.11099 0 .2209.02186.32345.06434.10254.04247.19572.10473.2742.18322l3.34055 3.34057 8.40303-8.40167c.1585-.15851.3735-.24756.5977-.24756.2241 0 .4391.08905.5976.24756s.2476.37349.2476.59766c0 .22416-.0891.43915-.2476.59765z" fill="#fff" fill-opacity=".5"/></svg>