<svg fill="none" height="126" viewBox="0 0 128 126" width="128" xmlns="http://www.w3.org/2000/svg" xmlns:xlink="http://www.w3.org/1999/xlink"><filter id="a" color-interpolation-filters="sRGB" filterUnits="userSpaceOnUse" height="114.739" width="114.738" x="7.59334" y="10.977"><feFlood flood-opacity="0" result="BackgroundImageFix"/><feColorMatrix in="SourceAlpha" result="hardAlpha" type="matrix" values="0 0 0 0 0 0 0 0 0 0 0 0 0 0 0 0 0 0 127 0"/><feOffset dy="6.76408"/><feGaussianBlur stdDeviation="3.38204"/><feComposite in2="hardAlpha" operator="out"/><feColorMatrix type="matrix" values="0 0 0 0 0 0 0 0 0 0 0 0 0 0 0 0 0 0 0.25 0"/><feBlend in2="BackgroundImageFix" mode="normal" result="effect1_dropShadow_504_195"/><feBlend in="SourceGraphic" in2="effect1_dropShadow_504_195" mode="normal" result="shape"/></filter><path d="m29.3829 19.3141c.0652-1.8667 1.6313-3.3271 3.4981-3.2619l91.259 3.1868c1.867.0652 3.328 1.6313 3.262 3.498l-3.187 91.259c-.065 1.867-1.631 3.328-3.498 3.262l-91.259-3.186c-1.8667-.066-3.3271-1.632-3.2619-3.498z" fill="#000"/><rect fill="#00c2ff" height="98.0791" rx="3.38204" transform="matrix(.9961947 .08715574 -.08715574 .9961947 .032527 -.744994)" width="98.0791" x="8.54785"/><g filter="url(#a)"><path d="m14.3592 17.664c-.0651-1.8667 1.3953-3.4328 3.262-3.498l91.2598-3.1869c1.866-.0652 3.432 1.3953 3.498 3.262l3.186 91.2599c.066 1.866-1.395 3.432-3.261 3.498l-91.2599 3.186c-1.8667.066-3.4328-1.395-3.498-3.262z" fill="#fff"/></g><path d="m92.5313 36.6268c0 4.97-.0127 9.2427-.0381 12.8181-.0253 3.55-.038 6.7957-.038 9.7372 0 3.8036.0127 8.2031.038 13.1985.0254 4.97.0381 8.6975.0381 11.1825l-14.4157 5.287c-4.7925-6.1111-9.1286-11.3854-13.0083-15.8229-3.8796-4.4629-6.5295-7.4677-7.9495-9.0145l-.3043.1521c0 3.6768.0127 7.9622.0381 12.8562.0253 4.8939.038 8.4059.038 10.5359h-19.3603c0-2.0793.0127-5.5659.038-10.4599.0254-4.8939.0381-10.2063.0381-15.937 0-2.409-.0127-5.3378-.0381-8.7863-.0253-3.474-.0507-7.2776-.0761-11.4108l15.2144-5.5913c2.0286 2.3836 4.5897 5.3377 7.6833 8.8624 3.1189 3.4993 7.3156 8.127 12.5899 13.8831l.2282-.1141c0-2.9922-.0127-6.3647-.038-10.1176-.0254-3.7529-.0381-7.5058-.0381-11.2586z" fill="#000"/></svg>