<svg enable-background="new 0 0 512 512" viewBox="0 0 512 512" xmlns="http://www.w3.org/2000/svg"><path d="m497 60h-77.509c-6.969-34.192-37.271-60-73.491-60s-66.522 25.808-73.491 60h-257.509c-8.284 0-15 6.716-15 15s6.716 15 15 15h257.509c6.968 34.192 37.271 60 73.491 60s66.522-25.808 73.491-60h77.509c8.284 0 15-6.716 15-15s-6.716-15-15-15zm-151 60c-24.809 0-44.993-20.18-45-44.987 0-.004.001-.008.001-.013s-.001-.009-.001-.013c.007-24.807 20.191-44.987 45-44.987 24.813 0 45 20.187 45 45s-20.187 45-45 45z"/><path d="m497 241h-257.509c-6.968-34.192-37.271-60-73.491-60s-66.522 25.808-73.491 60h-77.509c-8.284 0-15 6.716-15 15s6.716 15 15 15h77.509c6.968 34.192 37.271 60 73.491 60s66.522-25.808 73.491-60h257.509c8.284 0 15-6.716 15-15s-6.716-15-15-15zm-331 60c-24.809 0-44.993-20.18-45-44.987 0-.004.001-.008.001-.013s-.001-.009-.001-.013c.007-24.807 20.191-44.987 45-44.987 24.813 0 45 20.187 45 45s-20.187 45-45 45z"/><path d="m497 422h-77.509c-6.968-34.192-37.271-60-73.491-60s-66.522 25.808-73.491 60h-257.509c-8.284 0-15 6.716-15 15s6.716 15 15 15h257.509c6.968 34.192 37.271 60 73.491 60s66.522-25.808 73.491-60h77.509c8.284 0 15-6.716 15-15s-6.716-15-15-15zm-151 60c-24.809 0-44.993-20.18-45-44.987 0-.004.001-.008.001-.013s-.001-.009-.001-.013c.007-24.807 20.191-44.987 45-44.987 24.813 0 45 20.187 45 45s-20.187 45-45 45z"/></svg>