<svg fill="none" height="127" viewBox="0 0 128 127" width="128" xmlns="http://www.w3.org/2000/svg" xmlns:xlink="http://www.w3.org/1999/xlink"><filter id="a" color-interpolation-filters="sRGB" filterUnits="userSpaceOnUse" height="114.739" width="114.739" x="8.03768" y="11.7045"><feFlood flood-opacity="0" result="BackgroundImageFix"/><feColorMatrix in="SourceAlpha" result="hardAlpha" type="matrix" values="0 0 0 0 0 0 0 0 0 0 0 0 0 0 0 0 0 0 127 0"/><feOffset dy="6.76408"/><feGaussianBlur stdDeviation="3.38204"/><feComposite in2="hardAlpha" operator="out"/><feColorMatrix type="matrix" values="0 0 0 0 0 0 0 0 0 0 0 0 0 0 0 0 0 0 0.25 0"/><feBlend in2="BackgroundImageFix" mode="normal" result="effect1_dropShadow_417_22"/><feBlend in="SourceGraphic" in2="effect1_dropShadow_417_22" mode="normal" result="shape"/></filter><path d="m29.8278 20.0417c.0652-1.8668 1.6313-3.3272 3.498-3.262l91.2592 3.1869c1.867.0651 3.327 1.6313 3.262 3.498l-3.187 91.2594c-.065 1.867-1.631 3.327-3.498 3.262l-91.2591-3.187c-1.8667-.065-3.3272-1.631-3.262-3.498z" fill="#000"/><rect fill="#00c2ff" height="98.0791" rx="3.38204" transform="matrix(.9961947 .08715574 -.08715574 .9961947 .09763 -.780995)" width="98.0791" x="8.99268" y=".727551"/><g filter="url(#a)"><path d="m14.8038 18.3915c-.0652-1.8667 1.3953-3.4328 3.262-3.498l91.2592-3.1869c1.867-.0651 3.433 1.3953 3.498 3.262l3.187 91.2594c.065 1.867-1.395 3.433-3.262 3.498l-91.2593 3.187c-1.8667.065-3.4328-1.395-3.498-3.262z" fill="#fff"/></g><path d="m96.6586 34.5296c0 5.6642-.0145 10.5338-.0434 14.6086-.0289 4.0458-.0433 7.745-.0433 11.0973 0 4.3349.0144 9.3489.0433 15.042.0289 5.6643.0434 9.9125.0434 12.7446l-16.4293 6.0255c-5.4619-6.9647-10.4037-12.9758-14.8253-18.0331-4.4216-5.0863-7.4415-8.5109-9.0599-10.2737l-.3468.1734c0 4.1904.0145 9.0743.0434 14.6519s.0433 9.5801.0433 12.0076h-22.0646c0-2.3697.0145-6.3433.0434-11.9209s.0433-11.632.0433-18.1632c0-2.7454-.0144-6.0833-.0433-10.0136-.0289-3.9592-.0578-8.2941-.0867-13.0047l17.3395-6.3722c2.312 2.7165 5.2308 6.0833 8.7565 10.1003 3.5546 3.9881 8.3374 9.2622 14.3485 15.8223l.2601-.13c0-3.4102-.0145-7.2538-.0434-11.5309-.0289-4.277-.0433-8.5541-.0433-12.8312z" fill="#000"/></svg>